<?xml version="1.0" encoding="UTF-8" standalone="no"?>
<!DOCTYPE svg PUBLIC "-//W3C//DTD SVG 1.1//EN" "http://www.w3.org/Graphics/SVG/1.1/DTD/svg11.dtd">
<!-- Created with Vectornator (http://vectornator.io/) -->
<svg height="100%" stroke-miterlimit="10" style="fill-rule:nonzero;clip-rule:evenodd;stroke-linecap:round;stroke-linejoin:round;" version="1.1" viewBox="0 0 2384.24 1683.99" width="100%" xml:space="preserve" xmlns="http://www.w3.org/2000/svg" xmlns:vectornator="http://vectornator.io" xmlns:xlink="http://www.w3.org/1999/xlink">
<defs>
<clipPath id="TextBounds">
<rect height="81.5" width="224.689" x="720.654" y="254.776"/>
</clipPath>
<clipPath id="TextBounds_2">
<rect height="162" width="574.963" x="545.517" y="507.735"/>
</clipPath>
<clipPath id="TextBounds_3">
<rect height="169" width="259.689" x="713.844" y="760.995"/>
</clipPath>
<clipPath id="TextBounds_4">
<rect height="85" width="211.171" x="738.103" y="1188.37"/>
</clipPath>
<clipPath id="TextBounds_5">
<rect height="162" width="425.292" x="1823.43" y="502.155"/>
</clipPath>
<clipPath id="TextBounds_6">
<rect height="162" width="425.292" x="1823.43" y="693.907"/>
</clipPath>
<clipPath id="TextBounds_7">
<rect height="85" width="349.24" x="1823.43" y="910.596"/>
</clipPath>
<clipPath id="TextBounds_8">
<rect height="85" width="255.827" x="1823.43" y="1073.28"/>
</clipPath>
</defs>
<g id="Livello-1" vectornator:layerName="Livello 1"/>
<g id="Livello-3" vectornator:layerName="Livello 3">
<path d="M135.47 870.783C135.47 485.548 447.764 173.254 832.999 173.254C1218.23 173.254 1530.53 485.548 1530.53 870.783C1530.53 1256.02 1218.23 1568.31 832.999 1568.31C447.764 1568.31 135.47 1256.02 135.47 870.783Z" fill="#292929" fill-rule="nonzero" opacity="1" stroke="none"/>
<path d="M249.603 969.261C249.603 647.061 510.798 385.866 832.999 385.866C1155.2 385.866 1416.39 647.061 1416.39 969.261C1416.39 1291.46 1155.2 1552.66 832.999 1552.66C510.798 1552.66 249.603 1291.46 249.603 969.261Z" fill="#ce3838" fill-rule="nonzero" opacity="1" stroke="none"/>
<path d="M425.558 1114.03C425.558 889.008 607.975 706.59 832.999 706.59C1058.02 706.59 1240.44 889.008 1240.44 1114.03C1240.44 1339.05 1058.02 1521.47 832.999 1521.47C607.975 1521.47 425.558 1339.05 425.558 1114.03Z" fill="#e67c6e" fill-rule="nonzero" opacity="1" stroke="none"/>
<path d="M569.495 1229.12C569.495 1083.59 687.47 965.614 832.999 965.614C978.528 965.614 1096.5 1083.59 1096.5 1229.12C1096.5 1374.65 978.528 1492.62 832.999 1492.62C687.47 1492.62 569.495 1374.65 569.495 1229.12Z" fill="#f4c4b2" fill-rule="nonzero" opacity="1" stroke="none"/>
<g fill="#fdf6e3" opacity="1" stroke="none">
<path clip-path="url(#TextBounds)" d="M739.039 322.776L729.229 322.776L729.229 272.395L744.542 272.395L753.702 312.01L762.793 272.395L777.935 272.395L777.935 322.776L768.125 322.776L768.125 288.699C768.125 287.719 768.137 286.346 768.16 284.58C768.182 282.814 768.194 281.453 768.194 280.496L758.658 322.776L748.438 322.776L738.97 280.496C738.97 281.453 738.982 282.814 739.004 284.58C739.027 286.346 739.039 287.719 739.039 288.699L739.039 322.776Z"/>
<path clip-path="url(#TextBounds)" d="M817.994 290.237C821.138 294.179 822.71 298.839 822.71 304.217C822.71 309.685 821.138 314.362 817.994 318.247C814.849 322.133 810.075 324.075 803.672 324.075C797.269 324.075 792.496 322.133 789.351 318.247C786.207 314.362 784.634 309.685 784.634 304.217C784.634 298.839 786.207 294.179 789.351 290.237C792.496 286.295 797.269 284.324 803.672 284.324C810.075 284.324 814.849 286.295 817.994 290.237ZM803.638 292.561C800.79 292.561 798.597 293.57 797.059 295.586C795.521 297.603 794.751 300.48 794.751 304.217C794.751 307.954 795.521 310.836 797.059 312.864C798.597 314.892 800.79 315.906 803.638 315.906C806.486 315.906 808.674 314.892 810.201 312.864C811.727 310.836 812.491 307.954 812.491 304.217C812.491 300.48 811.727 297.603 810.201 295.586C808.674 293.57 806.486 292.561 803.638 292.561Z"/>
<path clip-path="url(#TextBounds)" d="M861.915 298.885L851.934 298.885C851.752 297.495 851.285 296.241 850.533 295.125C849.439 293.621 847.741 292.869 845.44 292.869C842.159 292.869 839.914 294.498 838.707 297.757C838.069 299.488 837.75 301.79 837.75 304.661C837.75 307.395 838.069 309.594 838.707 311.258C839.869 314.357 842.056 315.906 845.269 315.906C847.548 315.906 849.166 315.291 850.123 314.06C851.08 312.83 851.661 311.235 851.866 309.275L861.812 309.275C861.584 312.238 860.513 315.04 858.599 317.683C855.546 321.945 851.023 324.075 845.03 324.075C839.037 324.075 834.628 322.298 831.802 318.743C828.977 315.188 827.564 310.574 827.564 304.9C827.564 298.497 829.125 293.518 832.247 289.964C835.368 286.409 839.675 284.632 845.167 284.632C849.838 284.632 853.66 285.68 856.634 287.776C859.607 289.873 861.368 293.575 861.915 298.885Z"/>
<path clip-path="url(#TextBounds)" d="M902.793 322.776L891.036 322.776L882.115 306.849L878.082 311.053L878.082 322.776L868.511 322.776L868.511 272.566L878.082 272.566L878.082 299.705L890.215 285.691L902.281 285.691L889.258 299.944L902.793 322.776Z"/>
<path clip-path="url(#TextBounds)" d="M933.213 287.229C936.13 289.098 937.805 292.311 938.238 296.868L928.497 296.868C928.36 295.615 928.007 294.624 927.437 293.894C926.366 292.573 924.543 291.912 921.968 291.912C919.849 291.912 918.34 292.242 917.439 292.903C916.539 293.564 916.089 294.339 916.089 295.227C916.089 296.344 916.568 297.153 917.525 297.654C918.482 298.178 921.866 299.078 927.676 300.354C931.55 301.266 934.455 302.644 936.392 304.49C938.306 306.359 939.263 308.694 939.263 311.497C939.263 315.188 937.89 318.202 935.145 320.537C932.399 322.873 928.155 324.041 922.413 324.041C916.556 324.041 912.233 322.805 909.441 320.332C906.65 317.86 905.254 314.71 905.254 310.882L915.132 310.882C915.337 312.613 915.782 313.844 916.465 314.573C917.673 315.872 919.906 316.521 923.165 316.521C925.079 316.521 926.6 316.237 927.728 315.667C928.855 315.097 929.419 314.243 929.419 313.103C929.419 312.01 928.964 311.178 928.052 310.608C927.141 310.039 923.757 309.059 917.901 307.669C913.685 306.621 910.712 305.31 908.98 303.738C907.248 302.189 906.382 299.956 906.382 297.039C906.382 293.598 907.732 290.642 910.433 288.169C913.133 285.697 916.932 284.461 921.832 284.461C926.48 284.461 930.274 285.384 933.213 287.229Z"/>
</g>
<g fill="#292929" opacity="1" stroke="none">
<path clip-path="url(#TextBounds_2)" d="M576.771 575.735L555.066 575.735L555.066 525.355L576.771 525.355C579.892 525.4 582.49 525.765 584.563 526.448C588.095 527.61 590.955 529.741 593.143 532.84C594.897 535.346 596.093 538.058 596.731 540.975C597.369 543.891 597.688 546.671 597.688 549.315C597.688 556.014 596.344 561.688 593.655 566.336C590.009 572.602 584.381 575.735 576.771 575.735ZM584.598 538.206C582.98 535.472 579.778 534.105 574.993 534.105L565.286 534.105L565.286 566.985L574.993 566.985C579.961 566.985 583.424 564.536 585.384 559.637C586.455 556.948 586.99 553.746 586.99 550.032C586.99 544.905 586.193 540.963 584.598 538.206Z"/>
<path clip-path="url(#TextBounds_2)" d="M642.225 525.355L642.225 534.275L627.151 534.275L627.151 575.735L616.556 575.735L616.556 534.275L601.414 534.275L601.414 525.355L642.225 525.355Z"/>
<path clip-path="url(#TextBounds_2)" d="M669.432 577.137C662.231 577.137 656.728 575.177 652.923 571.258C647.819 566.45 645.267 559.523 645.267 550.477C645.267 541.248 647.819 534.321 652.923 529.695C656.728 525.776 662.231 523.816 669.432 523.816C676.632 523.816 682.135 525.776 685.94 529.695C691.022 534.321 693.563 541.248 693.563 550.477C693.563 559.523 691.022 566.45 685.94 571.258C682.135 575.177 676.632 577.137 669.432 577.137ZM679.378 563.602C681.816 560.525 683.035 556.15 683.035 550.477C683.035 544.826 681.81 540.456 679.361 537.369C676.911 534.281 673.602 532.737 669.432 532.737C665.262 532.737 661.935 534.275 659.451 537.352C656.967 540.428 655.726 544.803 655.726 550.477C655.726 556.15 656.967 560.525 659.451 563.602C661.935 566.678 665.262 568.216 669.432 568.216C673.602 568.216 676.917 566.678 679.378 563.602Z"/>
<path clip-path="url(#TextBounds_2)" d="M726.478 540.189C729.394 542.057 731.069 545.27 731.502 549.827L721.761 549.827C721.624 548.574 721.271 547.583 720.701 546.854C719.63 545.532 717.807 544.871 715.232 544.871C713.113 544.871 711.604 545.202 710.704 545.862C709.804 546.523 709.354 547.298 709.354 548.187C709.354 549.303 709.832 550.112 710.789 550.613C711.746 551.137 715.13 552.037 720.94 553.314C724.814 554.225 727.719 555.604 729.656 557.449C731.57 559.318 732.527 561.653 732.527 564.456C732.527 568.148 731.154 571.161 728.409 573.497C725.663 575.832 721.419 577 715.677 577C709.821 577 705.497 575.764 702.706 573.292C699.914 570.819 698.519 567.669 698.519 563.841L708.396 563.841C708.602 565.573 709.046 566.803 709.729 567.532C710.937 568.831 713.17 569.481 716.429 569.481C718.343 569.481 719.864 569.196 720.992 568.626C722.12 568.056 722.684 567.202 722.684 566.063C722.684 564.969 722.228 564.137 721.316 563.567C720.405 562.998 717.021 562.018 711.165 560.628C706.95 559.58 703.976 558.27 702.244 556.697C700.512 555.148 699.646 552.915 699.646 549.998C699.646 546.557 700.997 543.601 703.697 541.128C706.397 538.656 710.197 537.42 715.096 537.42C719.744 537.42 723.538 538.343 726.478 540.189Z"/>
<path clip-path="url(#TextBounds_2)" d="M769.886 589.852L767.459 586.536C765.887 584.531 764.212 581.546 762.435 577.581C759.267 570.495 757.684 563.522 757.684 556.663C757.684 550.42 759.017 544.222 761.683 538.069C763.483 533.877 766.115 529.365 769.578 524.534L776.927 524.534L774.842 528.362C771.971 533.626 769.977 539.14 768.86 544.905C768.131 548.688 767.767 552.812 767.767 557.278C767.767 564.251 768.781 570.665 770.809 576.522C771.993 579.985 774.09 584.428 777.098 589.852L769.886 589.852Z"/>
<path clip-path="url(#TextBounds_2)" d="M812.781 565.379L794.222 565.379L790.735 575.735L779.729 575.735L797.708 525.355L809.603 525.355L827.444 575.735L816.028 575.735L812.781 565.379ZM809.842 556.697L803.553 536.873L797.059 556.697L809.842 556.697Z"/>
<path clip-path="url(#TextBounds_2)" d="M869.383 571.976C865.623 575.416 860.815 577.137 854.959 577.137C847.713 577.137 842.016 574.813 837.869 570.164C833.722 565.493 831.648 559.09 831.648 550.955C831.648 542.16 834.007 535.381 838.724 530.618C842.825 526.471 848.043 524.398 854.378 524.398C862.854 524.398 869.052 527.177 872.972 532.737C875.136 535.859 876.299 538.992 876.458 542.137L865.931 542.137C865.247 539.721 864.37 537.898 863.299 536.668C861.385 534.481 858.548 533.387 854.788 533.387C850.96 533.387 847.941 534.931 845.73 538.018C843.52 541.106 842.415 545.475 842.415 551.126C842.415 556.777 843.583 561.01 845.918 563.824C848.254 566.638 851.222 568.045 854.822 568.045C858.514 568.045 861.328 566.837 863.265 564.422C864.336 563.123 865.224 561.175 865.931 558.577L876.355 558.577C875.444 564.069 873.12 568.535 869.383 571.976Z"/>
<path clip-path="url(#TextBounds_2)" d="M884.388 525.355L894.915 525.355L894.915 566.678L919.866 566.678L919.866 575.735L884.388 575.735L884.388 525.355Z"/>
<path clip-path="url(#TextBounds_2)" d="M917.986 575.735L937.503 523.816L945.604 523.816L926.019 575.735L917.986 575.735Z"/>
<path clip-path="url(#TextBounds_2)" d="M968.88 577.137C961.679 577.137 956.176 575.177 952.371 571.258C947.267 566.45 944.715 559.523 944.715 550.477C944.715 541.248 947.267 534.321 952.371 529.695C956.176 525.776 961.679 523.816 968.88 523.816C976.08 523.816 981.583 525.776 985.389 529.695C990.47 534.321 993.011 541.248 993.011 550.477C993.011 559.523 990.47 566.45 985.389 571.258C981.583 575.177 976.08 577.137 968.88 577.137ZM978.826 563.602C981.264 560.525 982.483 556.15 982.483 550.477C982.483 544.826 981.259 540.456 978.809 537.369C976.36 534.281 973.05 532.737 968.88 532.737C964.71 532.737 961.383 534.275 958.899 537.352C956.416 540.428 955.174 544.803 955.174 550.477C955.174 556.15 956.416 560.525 958.899 563.602C961.383 566.678 964.71 568.216 968.88 568.216C973.05 568.216 976.365 566.678 978.826 563.602Z"/>
<path clip-path="url(#TextBounds_2)" d="M1031.09 575.735L1031.09 553.245L1011.4 553.245L1011.4 575.735L1000.97 575.735L1000.97 525.355L1011.4 525.355L1011.4 544.564L1031.09 544.564L1031.09 525.355L1041.55 525.355L1041.55 575.735L1031.09 575.735Z"/>
<path clip-path="url(#TextBounds_2)" d="M1069.88 568.455C1072.36 568.455 1074.38 568.182 1075.93 567.635C1078.87 566.587 1080.34 564.638 1080.34 561.79C1080.34 560.127 1079.61 558.839 1078.15 557.928C1076.69 557.039 1074.4 556.253 1071.28 555.569L1065.95 554.373C1060.71 553.188 1057.09 551.901 1055.08 550.511C1051.69 548.187 1049.99 544.552 1049.99 539.607C1049.99 535.096 1051.63 531.347 1054.91 528.362C1058.19 525.377 1063.01 523.885 1069.37 523.885C1074.68 523.885 1079.21 525.292 1082.95 528.106C1086.7 530.92 1088.67 535.005 1088.85 540.359L1078.73 540.359C1078.55 537.329 1077.23 535.176 1074.77 533.899C1073.13 533.056 1071.09 532.635 1068.65 532.635C1065.94 532.635 1063.77 533.182 1062.16 534.275C1060.54 535.369 1059.73 536.896 1059.73 538.856C1059.73 540.656 1060.53 542 1062.12 542.889C1063.15 543.481 1065.33 544.176 1068.68 544.974L1077.37 547.059C1081.17 547.97 1084.04 549.189 1085.98 550.716C1088.99 553.086 1090.49 556.515 1090.49 561.004C1090.49 565.607 1088.73 569.429 1085.21 572.471C1081.69 575.513 1076.72 577.034 1070.29 577.034C1063.73 577.034 1058.57 575.536 1054.81 572.54C1051.05 569.543 1049.17 565.425 1049.17 560.184L1059.22 560.184C1059.54 562.485 1060.16 564.205 1061.1 565.345C1062.81 567.418 1065.73 568.455 1069.88 568.455Z"/>
<path clip-path="url(#TextBounds_2)" d="M1103.31 586.536L1100.88 589.852L1093.67 589.852C1096.68 584.428 1098.77 579.985 1099.96 576.522C1101.99 570.665 1103 564.251 1103 557.278C1103 552.812 1102.64 548.688 1101.91 544.905C1100.79 539.14 1098.8 533.626 1095.93 528.362L1093.84 524.534L1101.19 524.534C1104.65 529.365 1107.28 533.877 1109.08 538.069C1111.75 544.222 1113.08 550.42 1113.08 556.663C1113.08 563.522 1111.5 570.495 1108.33 577.581C1106.56 581.546 1104.88 584.531 1103.31 586.536Z"/>
<path clip-path="url(#TextBounds_2)" d="M647.728 639.98L636.858 639.98L636.858 659.735L626.57 659.735L626.57 609.355L651.282 609.355C654.814 609.423 657.531 609.856 659.434 610.653C661.337 611.451 662.949 612.624 664.271 614.174C665.364 615.45 666.23 616.863 666.868 618.412C667.506 619.962 667.825 621.728 667.825 623.71C667.825 626.103 667.221 628.455 666.014 630.768C664.806 633.081 662.812 634.716 660.032 635.673C662.356 636.607 664.003 637.934 664.971 639.655C665.94 641.375 666.424 644.001 666.424 647.533L666.424 650.917C666.424 653.218 666.515 654.779 666.697 655.6C666.971 656.898 667.609 657.856 668.611 658.471L668.611 659.735L657.024 659.735C656.705 658.619 656.478 657.719 656.341 657.035C656.067 655.622 655.919 654.176 655.896 652.694L655.828 648.012C655.783 644.799 655.196 642.657 654.068 641.586C652.94 640.515 650.827 639.98 647.728 639.98ZM654.119 630.819C656.215 629.862 657.264 627.971 657.264 625.146C657.264 622.092 656.25 620.041 654.222 618.993C653.082 618.401 651.373 618.105 649.095 618.105L636.858 618.105L636.858 631.64L648.787 631.64C651.157 631.64 652.934 631.366 654.119 630.819Z"/>
<path clip-path="url(#TextBounds_2)" d="M707.986 648.798C707.736 651.008 706.585 653.253 704.534 655.531C701.344 659.154 696.878 660.966 691.136 660.966C686.396 660.966 682.215 659.439 678.592 656.386C674.969 653.332 673.157 648.365 673.157 641.483C673.157 635.035 674.792 630.09 678.062 626.649C681.332 623.209 685.576 621.488 690.794 621.488C693.893 621.488 696.684 622.069 699.168 623.231C701.652 624.394 703.702 626.228 705.32 628.734C706.779 630.945 707.724 633.508 708.157 636.425C708.408 638.134 708.51 640.595 708.465 643.808L682.967 643.808C683.104 647.545 684.277 650.165 686.487 651.669C687.832 652.603 689.45 653.07 691.341 653.07C693.346 653.07 694.975 652.501 696.229 651.361C696.912 650.746 697.516 649.892 698.04 648.798L707.986 648.798ZM698.348 637.382C698.188 634.807 697.408 632.853 696.006 631.52C694.605 630.187 692.868 629.521 690.794 629.521C688.538 629.521 686.789 630.227 685.547 631.64C684.306 633.052 683.525 634.967 683.206 637.382L698.348 637.382Z"/>
<path clip-path="url(#TextBounds_2)" d="M746.233 626.479C749.241 629.691 750.745 634.408 750.745 640.629C750.745 647.191 749.27 652.193 746.319 655.634C743.368 659.075 739.568 660.795 734.92 660.795C731.958 660.795 729.497 660.054 727.537 658.573C726.466 657.753 725.418 656.557 724.393 654.984L724.393 674.398L714.754 674.398L714.754 622.48L724.085 622.48L724.085 627.982C725.133 626.365 726.25 625.089 727.435 624.154C729.599 622.491 732.174 621.659 735.159 621.659C739.511 621.659 743.203 623.266 746.233 626.479ZM740.696 641.107C740.696 638.236 740.041 635.696 738.731 633.485C737.421 631.275 735.296 630.17 732.356 630.17C728.825 630.17 726.398 631.845 725.076 635.194C724.393 636.972 724.051 639.228 724.051 641.962C724.051 646.291 725.202 649.333 727.503 651.088C728.87 652.113 730.488 652.626 732.356 652.626C735.068 652.626 737.136 651.578 738.56 649.481C739.984 647.385 740.696 644.594 740.696 641.107Z"/>
<path clip-path="url(#TextBounds_2)" d="M788.855 627.196C792 631.138 793.572 635.798 793.572 641.176C793.572 646.645 792 651.322 788.855 655.207C785.711 659.092 780.937 661.034 774.534 661.034C768.131 661.034 763.357 659.092 760.213 655.207C757.068 651.322 755.496 646.645 755.496 641.176C755.496 635.798 757.068 631.138 760.213 627.196C763.357 623.254 768.131 621.283 774.534 621.283C780.937 621.283 785.711 623.254 788.855 627.196ZM774.5 629.521C771.652 629.521 769.459 630.529 767.92 632.545C766.382 634.562 765.613 637.439 765.613 641.176C765.613 644.913 766.382 647.795 767.92 649.823C769.459 651.851 771.652 652.865 774.5 652.865C777.348 652.865 779.536 651.851 781.063 649.823C782.589 647.795 783.353 644.913 783.353 641.176C783.353 637.439 782.589 634.562 781.063 632.545C779.536 630.529 777.348 629.521 774.5 629.521Z"/>
<path clip-path="url(#TextBounds_2)" d="M826.214 624.189C829.131 626.057 830.805 629.27 831.238 633.827L821.497 633.827C821.36 632.574 821.007 631.583 820.438 630.854C819.367 629.532 817.544 628.871 814.969 628.871C812.85 628.871 811.34 629.202 810.44 629.862C809.54 630.523 809.09 631.298 809.09 632.187C809.09 633.303 809.568 634.112 810.525 634.613C811.482 635.137 814.866 636.037 820.677 637.314C824.55 638.225 827.456 639.604 829.393 641.449C831.307 643.318 832.264 645.653 832.264 648.456C832.264 652.148 830.891 655.161 828.145 657.497C825.399 659.832 821.155 661 815.413 661C809.557 661 805.233 659.764 802.442 657.292C799.651 654.819 798.255 651.669 798.255 647.841L808.133 647.841C808.338 649.573 808.782 650.803 809.466 651.532C810.674 652.831 812.907 653.481 816.165 653.481C818.079 653.481 819.6 653.196 820.728 652.626C821.856 652.056 822.42 651.202 822.42 650.063C822.42 648.969 821.964 648.137 821.053 647.567C820.141 646.998 816.757 646.018 810.901 644.628C806.686 643.58 803.712 642.27 801.98 640.697C800.249 639.148 799.383 636.915 799.383 633.998C799.383 630.557 800.733 627.601 803.433 625.128C806.133 622.656 809.933 621.42 814.832 621.42C819.48 621.42 823.274 622.343 826.214 624.189Z"/>
<path clip-path="url(#TextBounds_2)" d="M849.49 622.48L849.49 659.735L839.612 659.735L839.612 622.48L849.49 622.48ZM849.49 609.047L849.49 618.036L839.612 618.036L839.612 609.047L849.49 609.047Z"/>
<path clip-path="url(#TextBounds_2)" d="M875.979 652.797L875.979 660.077L871.365 660.248C866.762 660.408 863.618 659.61 861.932 657.856C860.838 656.739 860.291 655.019 860.291 652.694L860.291 629.76L855.096 629.76L855.096 622.821L860.291 622.821L860.291 612.431L869.93 612.431L869.93 622.821L875.979 622.821L875.979 629.76L869.93 629.76L869.93 649.447C869.93 650.974 870.123 651.925 870.511 652.301C870.898 652.677 872.083 652.865 874.065 652.865C874.362 652.865 874.675 652.86 875.005 652.848C875.336 652.837 875.66 652.82 875.979 652.797Z"/>
<path clip-path="url(#TextBounds_2)" d="M913.304 627.196C916.448 631.138 918.021 635.798 918.021 641.176C918.021 646.645 916.448 651.322 913.304 655.207C910.159 659.092 905.385 661.034 898.982 661.034C892.579 661.034 887.806 659.092 884.661 655.207C881.517 651.322 879.944 646.645 879.944 641.176C879.944 635.798 881.517 631.138 884.661 627.196C887.806 623.254 892.579 621.283 898.982 621.283C905.385 621.283 910.159 623.254 913.304 627.196ZM898.948 629.521C896.1 629.521 893.907 630.529 892.369 632.545C890.831 634.562 890.062 637.439 890.062 641.176C890.062 644.913 890.831 647.795 892.369 649.823C893.907 651.851 896.1 652.865 898.948 652.865C901.797 652.865 903.984 651.851 905.511 649.823C907.037 647.795 907.801 644.913 907.801 641.176C907.801 637.439 907.037 634.562 905.511 632.545C903.984 630.529 901.797 629.521 898.948 629.521Z"/>
<path clip-path="url(#TextBounds_2)" d="M943.724 631.469C939.804 631.469 937.173 632.745 935.828 635.297C935.076 636.732 934.7 638.943 934.7 641.928L934.7 659.735L924.891 659.735L924.891 622.48L934.188 622.48L934.188 628.974C935.691 626.49 937.002 624.792 938.118 623.881C939.941 622.354 942.311 621.591 945.228 621.591C945.41 621.591 945.564 621.597 945.689 621.608C945.814 621.619 946.093 621.636 946.526 621.659L946.526 631.64C945.911 631.571 945.364 631.526 944.886 631.503C944.407 631.48 944.02 631.469 943.724 631.469Z"/>
<path clip-path="url(#TextBounds_2)" d="M962.249 622.48L962.249 659.735L952.371 659.735L952.371 622.48L962.249 622.48ZM962.249 609.047L962.249 618.036L952.371 618.036L952.371 609.047L962.249 609.047Z"/>
<path clip-path="url(#TextBounds_2)" d="M1003.57 648.798C1003.32 651.008 1002.17 653.253 1000.12 655.531C996.93 659.154 992.464 660.966 986.722 660.966C981.982 660.966 977.801 659.439 974.178 656.386C970.555 653.332 968.743 648.365 968.743 641.483C968.743 635.035 970.378 630.09 973.648 626.649C976.918 623.209 981.162 621.488 986.38 621.488C989.479 621.488 992.27 622.069 994.754 623.231C997.238 624.394 999.288 626.228 1000.91 628.734C1002.36 630.945 1003.31 633.508 1003.74 636.425C1003.99 638.134 1004.1 640.595 1004.05 643.808L978.553 643.808C978.689 647.545 979.863 650.165 982.073 651.669C983.418 652.603 985.035 653.07 986.927 653.07C988.932 653.07 990.561 652.501 991.814 651.361C992.498 650.746 993.102 649.892 993.626 648.798L1003.57 648.798ZM993.934 637.382C993.774 634.807 992.994 632.853 991.592 631.52C990.191 630.187 988.453 629.521 986.38 629.521C984.124 629.521 982.375 630.227 981.133 631.64C979.891 633.052 979.111 634.967 978.792 637.382L993.934 637.382Z"/>
<path clip-path="url(#TextBounds_2)" d="M1036.28 624.189C1039.2 626.057 1040.87 629.27 1041.31 633.827L1031.57 633.827C1031.43 632.574 1031.08 631.583 1030.51 630.854C1029.43 629.532 1027.61 628.871 1025.04 628.871C1022.92 628.871 1021.41 629.202 1020.51 629.862C1019.61 630.523 1019.16 631.298 1019.16 632.187C1019.16 633.303 1019.64 634.112 1020.59 634.613C1021.55 635.137 1024.93 636.037 1030.75 637.314C1034.62 638.225 1037.52 639.604 1039.46 641.449C1041.38 643.318 1042.33 645.653 1042.33 648.456C1042.33 652.148 1040.96 655.161 1038.21 657.497C1035.47 659.832 1031.22 661 1025.48 661C1019.63 661 1015.3 659.764 1012.51 657.292C1009.72 654.819 1008.32 651.669 1008.32 647.841L1018.2 647.841C1018.41 649.573 1018.85 650.803 1019.53 651.532C1020.74 652.831 1022.97 653.481 1026.23 653.481C1028.15 653.481 1029.67 653.196 1030.8 652.626C1031.92 652.056 1032.49 651.202 1032.49 650.063C1032.49 648.969 1032.03 648.137 1031.12 647.567C1030.21 646.998 1026.83 646.018 1020.97 644.628C1016.75 643.58 1013.78 642.27 1012.05 640.697C1010.32 639.148 1009.45 636.915 1009.45 633.998C1009.45 630.557 1010.8 627.601 1013.5 625.128C1016.2 622.656 1020 621.42 1024.9 621.42C1029.55 621.42 1033.34 622.343 1036.28 624.189Z"/>
</g>
<g fill="#292929" opacity="1" stroke="none">
<path clip-path="url(#TextBounds_3)" d="M769.313 806.983L744.841 806.983L744.841 819.937L772.731 819.937L772.731 828.995L734.552 828.995L734.552 778.614L771.501 778.614L771.501 787.535L744.841 787.535L744.841 798.233L769.313 798.233L769.313 806.983Z"/>
<path clip-path="url(#TextBounds_3)" d="M776.491 791.739L787.428 791.739L795.187 819.22L803.117 791.739L813.576 791.739L800.143 828.995L789.855 828.995L776.491 791.739Z"/>
<path clip-path="url(#TextBounds_3)" d="M850.969 818.058C850.718 820.268 849.567 822.512 847.516 824.791C844.326 828.414 839.86 830.225 834.118 830.225C829.378 830.225 825.197 828.699 821.574 825.645C817.951 822.592 816.139 817.625 816.139 810.743C816.139 804.294 817.774 799.35 821.044 795.909C824.314 792.468 828.558 790.748 833.776 790.748C836.875 790.748 839.666 791.329 842.15 792.491C844.634 793.653 846.685 795.488 848.302 797.994C849.761 800.204 850.706 802.768 851.139 805.684C851.39 807.393 851.493 809.854 851.447 813.067L825.949 813.067C826.086 816.804 827.259 819.425 829.469 820.929C830.814 821.863 832.432 822.33 834.323 822.33C836.328 822.33 837.957 821.76 839.211 820.621C839.894 820.006 840.498 819.151 841.022 818.058L850.969 818.058ZM841.33 806.641C841.17 804.067 840.39 802.113 838.989 800.78C837.587 799.447 835.85 798.78 833.776 798.78C831.52 798.78 829.771 799.487 828.53 800.899C827.288 802.312 826.507 804.226 826.188 806.641L841.33 806.641Z"/>
<path clip-path="url(#TextBounds_3)" d="M875.544 798.951C872.24 798.951 869.972 800.352 868.742 803.155C868.104 804.636 867.785 806.528 867.785 808.829L867.785 828.995L858.078 828.995L858.078 791.808L867.477 791.808L867.477 797.242C868.731 795.328 869.915 793.949 871.032 793.106C873.037 791.602 875.578 790.85 878.654 790.85C882.505 790.85 885.655 791.859 888.105 793.875C890.554 795.892 891.779 799.236 891.779 803.907L891.779 828.995L881.799 828.995L881.799 806.334C881.799 804.374 881.537 802.87 881.012 801.822C880.055 799.908 878.233 798.951 875.544 798.951Z"/>
<path clip-path="url(#TextBounds_3)" d="M917.824 822.057L917.824 829.337L913.21 829.508C908.607 829.667 905.462 828.87 903.776 827.115C902.682 825.999 902.136 824.278 902.136 821.954L902.136 799.019L896.94 799.019L896.94 792.081L902.136 792.081L902.136 781.69L911.774 781.69L911.774 792.081L917.824 792.081L917.824 799.019L911.774 799.019L911.774 818.707C911.774 820.234 911.968 821.185 912.355 821.561C912.743 821.937 913.927 822.125 915.91 822.125C916.206 822.125 916.519 822.119 916.85 822.108C917.18 822.096 917.505 822.079 917.824 822.057Z"/>
<path clip-path="url(#TextBounds_3)" d="M949.748 793.448C952.664 795.317 954.339 798.53 954.772 803.087L945.031 803.087C944.894 801.834 944.541 800.842 943.971 800.113C942.9 798.792 941.078 798.131 938.503 798.131C936.384 798.131 934.874 798.461 933.974 799.122C933.074 799.783 932.624 800.557 932.624 801.446C932.624 802.563 933.102 803.372 934.059 803.873C935.016 804.397 938.4 805.297 944.211 806.573C948.084 807.485 950.99 808.863 952.927 810.709C954.841 812.577 955.798 814.913 955.798 817.716C955.798 821.407 954.425 824.421 951.679 826.756C948.933 829.092 944.689 830.26 938.947 830.26C933.091 830.26 928.767 829.023 925.976 826.551C923.184 824.079 921.789 820.929 921.789 817.1L931.667 817.1C931.872 818.832 932.316 820.063 933 820.792C934.207 822.091 936.441 822.74 939.699 822.74C941.613 822.74 943.134 822.455 944.262 821.886C945.39 821.316 945.954 820.461 945.954 819.322C945.954 818.228 945.498 817.397 944.587 816.827C943.675 816.257 940.291 815.278 934.435 813.888C930.22 812.839 927.246 811.529 925.514 809.957C923.783 808.407 922.917 806.174 922.917 803.258C922.917 799.817 924.267 796.86 926.967 794.388C929.667 791.916 933.467 790.68 938.366 790.68C943.014 790.68 946.808 791.602 949.748 793.448Z"/>
<path clip-path="url(#TextBounds_3)" d="M750.173 902.639L731.613 902.639L728.127 912.995L717.121 912.995L735.099 862.614L746.994 862.614L764.836 912.995L753.42 912.995L750.173 902.639ZM747.233 893.957L740.944 874.133L734.45 893.957L747.233 893.957Z"/>
<path clip-path="url(#TextBounds_3)" d="M802.673 889.103L792.692 889.103C792.51 887.713 792.043 886.46 791.291 885.344C790.197 883.84 788.499 883.088 786.198 883.088C782.917 883.088 780.672 884.717 779.465 887.975C778.827 889.707 778.508 892.009 778.508 894.88C778.508 897.614 778.827 899.813 779.465 901.476C780.627 904.575 782.814 906.125 786.027 906.125C788.306 906.125 789.924 905.51 790.881 904.279C791.838 903.049 792.419 901.454 792.624 899.494L802.57 899.494C802.342 902.456 801.271 905.259 799.357 907.902C796.304 912.163 791.781 914.294 785.788 914.294C779.795 914.294 775.386 912.516 772.56 908.962C769.735 905.407 768.322 900.793 768.322 895.119C768.322 888.716 769.883 883.737 773.005 880.183C776.126 876.628 780.433 874.85 785.925 874.85C790.596 874.85 794.418 875.899 797.392 877.995C800.365 880.091 802.126 883.794 802.673 889.103Z"/>
<path clip-path="url(#TextBounds_3)" d="M826.427 906.057L826.427 913.337L821.813 913.508C817.21 913.667 814.066 912.87 812.38 911.115C811.286 909.999 810.739 908.278 810.739 905.954L810.739 883.019L805.544 883.019L805.544 876.081L810.739 876.081L810.739 865.69L820.378 865.69L820.378 876.081L826.427 876.081L826.427 883.019L820.378 883.019L820.378 902.707C820.378 904.234 820.571 905.185 820.959 905.561C821.346 905.937 822.531 906.125 824.513 906.125C824.81 906.125 825.123 906.119 825.453 906.108C825.784 906.096 826.108 906.079 826.427 906.057Z"/>
<path clip-path="url(#TextBounds_3)" d="M842.697 875.739L842.697 912.995L832.819 912.995L832.819 875.739L842.697 875.739ZM842.697 862.307L842.697 871.296L832.819 871.296L832.819 862.307L842.697 862.307Z"/>
<path clip-path="url(#TextBounds_3)" d="M883.2 880.456C886.344 884.398 887.917 889.058 887.917 894.435C887.917 899.904 886.344 904.581 883.2 908.466C880.055 912.351 875.282 914.294 868.879 914.294C862.476 914.294 857.702 912.351 854.557 908.466C851.413 904.581 849.841 899.904 849.841 894.435C849.841 889.058 851.413 884.398 854.557 880.456C857.702 876.514 862.476 874.543 868.879 874.543C875.282 874.543 880.055 876.514 883.2 880.456ZM868.844 882.78C865.996 882.78 863.803 883.788 862.265 885.805C860.727 887.822 859.958 890.698 859.958 894.435C859.958 898.172 860.727 901.055 862.265 903.083C863.803 905.111 865.996 906.125 868.844 906.125C871.693 906.125 873.88 905.111 875.407 903.083C876.934 901.055 877.697 898.172 877.697 894.435C877.697 890.698 876.934 887.822 875.407 885.805C873.88 883.788 871.693 882.78 868.844 882.78Z"/>
<path clip-path="url(#TextBounds_3)" d="M912.424 882.951C909.12 882.951 906.852 884.352 905.622 887.155C904.984 888.636 904.665 890.528 904.665 892.829L904.665 912.995L894.958 912.995L894.958 875.808L904.357 875.808L904.357 881.242C905.61 879.328 906.795 877.949 907.912 877.106C909.917 875.602 912.458 874.85 915.534 874.85C919.385 874.85 922.535 875.859 924.985 877.875C927.434 879.892 928.659 883.236 928.659 887.907L928.659 912.995L918.678 912.995L918.678 890.334C918.678 888.374 918.416 886.87 917.892 885.822C916.935 883.908 915.112 882.951 912.424 882.951Z"/>
<path clip-path="url(#TextBounds_3)" d="M963.317 877.448C966.234 879.317 967.909 882.53 968.342 887.087L958.6 887.087C958.464 885.834 958.11 884.842 957.541 884.113C956.47 882.792 954.647 882.131 952.072 882.131C949.953 882.131 948.443 882.461 947.543 883.122C946.643 883.783 946.193 884.557 946.193 885.446C946.193 886.563 946.672 887.372 947.629 887.873C948.586 888.397 951.969 889.297 957.78 890.573C961.654 891.485 964.559 892.863 966.496 894.709C968.41 896.577 969.367 898.913 969.367 901.716C969.367 905.407 967.994 908.421 965.248 910.756C962.503 913.092 958.259 914.26 952.516 914.26C946.66 914.26 942.337 913.023 939.545 910.551C936.754 908.079 935.358 904.929 935.358 901.1L945.236 901.1C945.441 902.832 945.886 904.063 946.569 904.792C947.777 906.091 950.01 906.74 953.268 906.74C955.182 906.74 956.703 906.455 957.831 905.886C958.959 905.316 959.523 904.461 959.523 903.322C959.523 902.228 959.067 901.397 958.156 900.827C957.245 900.257 953.861 899.278 948.005 897.888C943.789 896.839 940.816 895.529 939.084 893.957C937.352 892.407 936.486 890.174 936.486 887.258C936.486 883.817 937.836 880.86 940.536 878.388C943.237 875.916 947.036 874.68 951.935 874.68C956.584 874.68 960.378 875.602 963.317 877.448Z"/>
</g>
<g fill="#292929" opacity="1" stroke="none">
<path clip-path="url(#TextBounds_4)" d="M787.052 1205.99L787.052 1214.91L771.979 1214.91L771.979 1256.37L761.384 1256.37L761.384 1214.91L746.242 1214.91L746.242 1205.99L787.052 1205.99Z"/>
<path clip-path="url(#TextBounds_4)" d="M802.399 1246.59L810.09 1219.11L820.446 1219.11L807.663 1255.75C805.202 1262.82 803.254 1267.2 801.818 1268.89C800.383 1270.59 797.511 1271.44 793.205 1271.44C792.339 1271.44 791.644 1271.44 791.12 1271.42C790.596 1271.41 789.81 1271.37 788.761 1271.3L788.761 1263.51L789.992 1263.58C790.949 1263.63 791.86 1263.59 792.726 1263.48C793.592 1263.36 794.321 1263.1 794.914 1262.69C795.483 1262.3 796.013 1261.49 796.503 1260.26C796.993 1259.03 797.192 1258.28 797.101 1258.01L783.429 1219.11L794.264 1219.11L802.399 1246.59Z"/>
<path clip-path="url(#TextBounds_4)" d="M857.394 1223.11C860.402 1226.32 861.906 1231.04 861.906 1237.26C861.906 1243.82 860.431 1248.83 857.48 1252.27C854.529 1255.71 850.729 1257.43 846.081 1257.43C843.119 1257.43 840.658 1256.69 838.698 1255.21C837.627 1254.39 836.579 1253.19 835.553 1251.62L835.553 1271.03L825.915 1271.03L825.915 1219.11L835.246 1219.11L835.246 1224.61C836.294 1223 837.411 1221.72 838.595 1220.79C840.76 1219.12 843.335 1218.29 846.32 1218.29C850.672 1218.29 854.364 1219.9 857.394 1223.11ZM851.857 1237.74C851.857 1234.87 851.202 1232.33 849.892 1230.12C848.582 1227.91 846.457 1226.8 843.517 1226.8C839.985 1226.8 837.559 1228.48 836.237 1231.83C835.553 1233.6 835.212 1235.86 835.212 1238.59C835.212 1242.92 836.362 1245.97 838.664 1247.72C840.031 1248.75 841.649 1249.26 843.517 1249.26C846.229 1249.26 848.297 1248.21 849.721 1246.11C851.145 1244.02 851.857 1241.23 851.857 1237.74Z"/>
<path clip-path="url(#TextBounds_4)" d="M900.837 1245.43C900.586 1247.64 899.435 1249.88 897.385 1252.16C894.194 1255.79 889.728 1257.6 883.986 1257.6C879.247 1257.6 875.065 1256.07 871.442 1253.02C867.819 1249.96 866.008 1245 866.008 1238.12C866.008 1231.67 867.643 1226.72 870.912 1223.28C874.182 1219.84 878.426 1218.12 883.644 1218.12C886.743 1218.12 889.535 1218.7 892.018 1219.86C894.502 1221.03 896.553 1222.86 898.171 1225.37C899.629 1227.58 900.575 1230.14 901.008 1233.06C901.258 1234.77 901.361 1237.23 901.315 1240.44L875.817 1240.44C875.954 1244.18 877.127 1246.8 879.338 1248.3C880.682 1249.24 882.3 1249.7 884.191 1249.7C886.196 1249.7 887.826 1249.13 889.079 1247.99C889.762 1247.38 890.366 1246.52 890.89 1245.43L900.837 1245.43ZM891.198 1234.01C891.038 1231.44 890.258 1229.49 888.857 1228.15C887.455 1226.82 885.718 1226.15 883.644 1226.15C881.388 1226.15 879.64 1226.86 878.398 1228.27C877.156 1229.68 876.375 1231.6 876.056 1234.01L891.198 1234.01Z"/>
<path clip-path="url(#TextBounds_4)" d="M933.547 1220.82C936.463 1222.69 938.138 1225.9 938.571 1230.46L928.83 1230.46C928.693 1229.21 928.34 1228.21 927.77 1227.49C926.699 1226.16 924.876 1225.5 922.302 1225.5C920.182 1225.5 918.673 1225.83 917.773 1226.49C916.873 1227.16 916.423 1227.93 916.423 1228.82C916.423 1229.94 916.901 1230.74 917.858 1231.25C918.815 1231.77 922.199 1232.67 928.01 1233.95C931.883 1234.86 934.788 1236.24 936.725 1238.08C938.639 1239.95 939.596 1242.29 939.596 1245.09C939.596 1248.78 938.224 1251.79 935.478 1254.13C932.732 1256.46 928.488 1257.63 922.746 1257.63C916.89 1257.63 912.566 1256.4 909.775 1253.92C906.983 1251.45 905.588 1248.3 905.588 1244.47L915.466 1244.47C915.671 1246.2 916.115 1247.44 916.799 1248.16C918.006 1249.46 920.239 1250.11 923.498 1250.11C925.412 1250.11 926.933 1249.83 928.061 1249.26C929.189 1248.69 929.753 1247.83 929.753 1246.69C929.753 1245.6 929.297 1244.77 928.386 1244.2C927.474 1243.63 924.09 1242.65 918.234 1241.26C914.019 1240.21 911.045 1238.9 909.313 1237.33C907.581 1235.78 906.716 1233.55 906.716 1230.63C906.716 1227.19 908.066 1224.23 910.766 1221.76C913.466 1219.29 917.266 1218.05 922.165 1218.05C926.813 1218.05 930.607 1218.97 933.547 1220.82Z"/>
</g>
<path d="M1679.15 583.155C1679.15 558.208 1699.37 537.985 1724.32 537.985C1749.27 537.985 1769.49 558.208 1769.49 583.155C1769.49 608.101 1749.27 628.324 1724.32 628.324C1699.37 628.324 1679.15 608.101 1679.15 583.155Z" fill="#292929" fill-rule="nonzero" opacity="1" stroke="none"/>
<path d="M1679.15 774.907C1679.15 749.96 1699.37 729.737 1724.32 729.737C1749.27 729.737 1769.49 749.96 1769.49 774.907C1769.49 799.853 1749.27 820.077 1724.32 820.077C1699.37 820.077 1679.15 799.853 1679.15 774.907Z" fill="#ce3838" fill-rule="nonzero" opacity="1" stroke="none"/>
<path d="M1679.15 951.346C1679.15 926.399 1699.37 906.176 1724.32 906.176C1749.27 906.176 1769.49 926.399 1769.49 951.346C1769.49 976.292 1749.27 996.516 1724.32 996.516C1699.37 996.516 1679.15 976.292 1679.15 951.346Z" fill="#e67c6e" fill-rule="nonzero" opacity="1" stroke="none"/>
<path d="M1679.15 1114.03C1679.15 1089.08 1699.37 1068.86 1724.32 1068.86C1749.27 1068.86 1769.49 1089.08 1769.49 1114.03C1769.49 1138.98 1749.27 1159.2 1724.32 1159.2C1699.37 1159.2 1679.15 1138.98 1679.15 1114.03Z" fill="#f4c4b2" fill-rule="nonzero" opacity="1" stroke="none"/>
<g fill="#292929" opacity="1" stroke="none">
<path clip-path="url(#TextBounds_5)" d="M1865.98 528.695L1840.72 528.695L1840.72 540.282L1862.83 540.282L1862.83 549.032L1840.72 549.032L1840.72 570.155L1830.26 570.155L1830.26 519.842L1865.98 519.842L1865.98 528.695Z"/>
<path clip-path="url(#TextBounds_5)" d="M1890.96 541.888C1887.04 541.888 1884.41 543.164 1883.07 545.716C1882.32 547.152 1881.94 549.362 1881.94 552.347L1881.94 570.155L1872.13 570.155L1872.13 532.899L1881.43 532.899L1881.43 539.393C1882.93 536.909 1884.24 535.212 1885.36 534.3C1887.18 532.773 1889.55 532.01 1892.47 532.01C1892.65 532.01 1892.8 532.016 1892.93 532.027C1893.05 532.039 1893.33 532.056 1893.77 532.078L1893.77 542.059C1893.15 541.991 1892.6 541.945 1892.12 541.922C1891.65 541.899 1891.26 541.888 1890.96 541.888Z"/>
<path clip-path="url(#TextBounds_5)" d="M1900.87 536.932C1903.45 533.651 1907.87 532.01 1914.14 532.01C1918.22 532.01 1921.84 532.819 1925.01 534.437C1928.17 536.055 1929.76 539.108 1929.76 543.597L1929.76 560.687C1929.76 561.872 1929.78 563.307 1929.82 564.994C1929.89 566.27 1930.09 567.135 1930.41 567.591C1930.72 568.047 1931.2 568.423 1931.84 568.719L1931.84 570.155L1921.25 570.155C1920.95 569.403 1920.74 568.696 1920.63 568.036C1920.52 567.375 1920.43 566.623 1920.36 565.78C1919.01 567.238 1917.46 568.48 1915.71 569.505C1913.61 570.713 1911.24 571.317 1908.6 571.317C1905.23 571.317 1902.44 570.354 1900.24 568.429C1898.04 566.503 1896.94 563.774 1896.94 560.243C1896.94 555.662 1898.71 552.347 1902.24 550.296C1904.18 549.18 1907.03 548.382 1910.79 547.904L1914.1 547.494C1915.9 547.266 1917.19 546.981 1917.96 546.639C1919.35 546.047 1920.05 545.124 1920.05 543.87C1920.05 542.344 1919.52 541.29 1918.46 540.709C1917.4 540.128 1915.85 539.837 1913.79 539.837C1911.49 539.837 1909.86 540.407 1908.91 541.546C1908.22 542.389 1907.77 543.529 1907.54 544.964L1898.14 544.964C1898.35 541.706 1899.26 539.028 1900.87 536.932ZM1908.12 563.114C1909.03 563.866 1910.15 564.242 1911.47 564.242C1913.57 564.242 1915.5 563.626 1917.26 562.396C1919.03 561.165 1919.95 558.921 1920.02 555.662L1920.02 552.039C1919.4 552.427 1918.78 552.74 1918.15 552.979C1917.53 553.219 1916.67 553.441 1915.57 553.646L1913.38 554.056C1911.33 554.421 1909.86 554.865 1908.98 555.389C1907.47 556.278 1906.72 557.656 1906.72 559.525C1906.72 561.188 1907.19 562.384 1908.12 563.114Z"/>
<path clip-path="url(#TextBounds_5)" d="M1959.32 543.153C1958.5 541.353 1956.9 540.452 1954.5 540.452C1951.72 540.452 1949.85 541.353 1948.9 543.153C1948.37 544.178 1948.11 545.705 1948.11 547.733L1948.11 570.155L1938.23 570.155L1938.23 532.967L1947.7 532.967L1947.7 538.402C1948.91 536.465 1950.05 535.086 1951.12 534.266C1953.01 532.808 1955.46 532.078 1958.47 532.078C1961.32 532.078 1963.62 532.705 1965.37 533.958C1966.78 535.12 1967.86 536.613 1968.58 538.436C1969.86 536.248 1971.44 534.642 1973.34 533.617C1975.34 532.591 1977.57 532.078 1980.03 532.078C1981.68 532.078 1983.29 532.397 1984.89 533.036C1986.48 533.674 1987.93 534.79 1989.23 536.385C1990.28 537.684 1990.98 539.279 1991.35 541.17C1991.58 542.424 1991.69 544.258 1991.69 546.673L1991.62 570.155L1981.64 570.155L1981.64 546.434C1981.64 545.021 1981.41 543.859 1980.96 542.948C1980.09 541.216 1978.5 540.35 1976.17 540.35C1973.48 540.35 1971.63 541.466 1970.6 543.7C1970.08 544.884 1969.82 546.309 1969.82 547.972L1969.82 570.155L1960.01 570.155L1960.01 547.972C1960.01 545.762 1959.78 544.155 1959.32 543.153Z"/>
<path clip-path="url(#TextBounds_5)" d="M2032.53 559.217C2032.28 561.427 2031.13 563.672 2029.08 565.951C2025.89 569.574 2021.43 571.385 2015.68 571.385C2010.94 571.385 2006.76 569.858 2003.14 566.805C1999.52 563.752 1997.71 558.784 1997.71 551.903C1997.71 545.454 1999.34 540.509 2002.61 537.069C2005.88 533.628 2010.12 531.908 2015.34 531.908C2018.44 531.908 2021.23 532.489 2023.72 533.651C2026.2 534.813 2028.25 536.647 2029.87 539.154C2031.33 541.364 2032.27 543.927 2032.71 546.844C2032.96 548.553 2033.06 551.014 2033.01 554.227L2007.52 554.227C2007.65 557.964 2008.83 560.584 2011.04 562.088C2012.38 563.022 2014 563.49 2015.89 563.49C2017.89 563.49 2019.52 562.92 2020.78 561.781C2021.46 561.165 2022.06 560.311 2022.59 559.217L2032.53 559.217ZM2022.9 547.801C2022.74 545.226 2021.96 543.272 2020.55 541.939C2019.15 540.606 2017.42 539.94 2015.34 539.94C2013.09 539.94 2011.34 540.646 2010.1 542.059C2008.85 543.472 2008.07 545.386 2007.75 547.801L2022.9 547.801Z"/>
<path clip-path="url(#TextBounds_5)" d="M2067.84 570.155L2062 543.016L2056.08 570.155L2045.97 570.155L2035.51 532.899L2045.97 532.899L2051.78 559.627L2057.14 532.899L2067.02 532.899L2072.7 559.73L2078.51 532.899L2088.66 532.899L2077.86 570.155L2067.84 570.155Z"/>
<path clip-path="url(#TextBounds_5)" d="M2125.09 537.616C2128.24 541.558 2129.81 546.217 2129.81 551.595C2129.81 557.064 2128.24 561.741 2125.09 565.626C2121.95 569.511 2117.18 571.453 2110.77 571.453C2104.37 571.453 2099.6 569.511 2096.45 565.626C2093.31 561.741 2091.73 557.064 2091.73 551.595C2091.73 546.217 2093.31 541.558 2096.45 537.616C2099.6 533.674 2104.37 531.702 2110.77 531.702C2117.18 531.702 2121.95 533.674 2125.09 537.616ZM2110.74 539.94C2107.89 539.94 2105.7 540.948 2104.16 542.965C2102.62 544.981 2101.85 547.858 2101.85 551.595C2101.85 555.332 2102.62 558.215 2104.16 560.243C2105.7 562.271 2107.89 563.285 2110.74 563.285C2113.59 563.285 2115.77 562.271 2117.3 560.243C2118.83 558.215 2119.59 555.332 2119.59 551.595C2119.59 547.858 2118.83 544.981 2117.3 542.965C2115.77 540.948 2113.59 539.94 2110.74 539.94Z"/>
<path clip-path="url(#TextBounds_5)" d="M2155.51 541.888C2151.59 541.888 2148.96 543.164 2147.62 545.716C2146.87 547.152 2146.49 549.362 2146.49 552.347L2146.49 570.155L2136.68 570.155L2136.68 532.899L2145.98 532.899L2145.98 539.393C2147.48 536.909 2148.79 535.212 2149.91 534.3C2151.73 532.773 2154.1 532.01 2157.02 532.01C2157.2 532.01 2157.35 532.016 2157.48 532.027C2157.6 532.039 2157.88 532.056 2158.32 532.078L2158.32 542.059C2157.7 541.991 2157.15 541.945 2156.68 541.922C2156.2 541.899 2155.81 541.888 2155.51 541.888Z"/>
<path clip-path="url(#TextBounds_5)" d="M2198.2 570.155L2186.45 570.155L2177.53 554.227L2173.49 558.431L2173.49 570.155L2163.92 570.155L2163.92 519.945L2173.49 519.945L2173.49 547.083L2185.63 533.07L2197.69 533.07L2184.67 547.323L2198.2 570.155Z"/>
<path clip-path="url(#TextBounds_5)" d="M2228.62 534.608C2231.54 536.476 2233.22 539.689 2233.65 544.246L2223.91 544.246C2223.77 542.993 2223.42 542.002 2222.85 541.273C2221.78 539.951 2219.95 539.29 2217.38 539.29C2215.26 539.29 2213.75 539.621 2212.85 540.282C2211.95 540.942 2211.5 541.717 2211.5 542.606C2211.5 543.722 2211.98 544.531 2212.94 545.033C2213.89 545.557 2217.28 546.457 2223.09 547.733C2226.96 548.644 2229.87 550.023 2231.8 551.869C2233.72 553.737 2234.67 556.073 2234.67 558.875C2234.67 562.567 2233.3 565.58 2230.55 567.916C2227.81 570.251 2223.57 571.419 2217.82 571.419C2211.97 571.419 2207.64 570.183 2204.85 567.711C2202.06 565.238 2200.66 562.088 2200.66 558.26L2210.54 558.26C2210.75 559.992 2211.19 561.222 2211.88 561.952C2213.08 563.25 2215.32 563.9 2218.57 563.9C2220.49 563.9 2222.01 563.615 2223.14 563.045C2224.27 562.476 2224.83 561.621 2224.83 560.482C2224.83 559.388 2224.37 558.556 2223.46 557.987C2222.55 557.417 2219.17 556.437 2213.31 555.047C2209.1 553.999 2206.12 552.689 2204.39 551.117C2202.66 549.567 2201.79 547.334 2201.79 544.417C2201.79 540.977 2203.14 538.02 2205.84 535.548C2208.54 533.075 2212.34 531.839 2217.24 531.839C2221.89 531.839 2225.68 532.762 2228.62 534.608Z"/>
<path clip-path="url(#TextBounds_5)" d="M1830.87 620.932C1833.45 617.651 1837.87 616.01 1844.14 616.01C1848.22 616.01 1851.84 616.819 1855.01 618.437C1858.17 620.055 1859.76 623.108 1859.76 627.597L1859.76 644.687C1859.76 645.872 1859.78 647.307 1859.82 648.994C1859.89 650.27 1860.09 651.135 1860.41 651.591C1860.72 652.047 1861.2 652.423 1861.84 652.719L1861.84 654.155L1851.25 654.155C1850.95 653.403 1850.74 652.696 1850.63 652.036C1850.52 651.375 1850.43 650.623 1850.36 649.78C1849.01 651.238 1847.46 652.48 1845.71 653.505C1843.61 654.713 1841.24 655.317 1838.6 655.317C1835.23 655.317 1832.44 654.354 1830.24 652.429C1828.04 650.503 1826.94 647.774 1826.94 644.243C1826.94 639.662 1828.71 636.347 1832.24 634.296C1834.18 633.18 1837.03 632.382 1840.79 631.904L1844.1 631.494C1845.9 631.266 1847.19 630.981 1847.96 630.639C1849.35 630.047 1850.05 629.124 1850.05 627.87C1850.05 626.344 1849.52 625.29 1848.46 624.709C1847.4 624.128 1845.85 623.837 1843.79 623.837C1841.49 623.837 1839.86 624.407 1838.91 625.546C1838.22 626.389 1837.77 627.529 1837.54 628.964L1828.14 628.964C1828.35 625.706 1829.26 623.028 1830.87 620.932ZM1838.12 647.114C1839.03 647.866 1840.15 648.242 1841.47 648.242C1843.57 648.242 1845.5 647.626 1847.26 646.396C1849.03 645.165 1849.95 642.921 1850.02 639.662L1850.02 636.039C1849.4 636.427 1848.78 636.74 1848.15 636.979C1847.53 637.219 1846.67 637.441 1845.57 637.646L1843.38 638.056C1841.33 638.421 1839.86 638.865 1838.98 639.389C1837.47 640.278 1836.72 641.656 1836.72 643.525C1836.72 645.188 1837.19 646.384 1838.12 647.114Z"/>
<path clip-path="url(#TextBounds_5)" d="M1885.94 624.111C1882.63 624.111 1880.37 625.512 1879.14 628.315C1878.5 629.796 1878.18 631.687 1878.18 633.989L1878.18 654.155L1868.47 654.155L1868.47 616.967L1877.87 616.967L1877.87 622.402C1879.13 620.488 1880.31 619.109 1881.43 618.266C1883.43 616.762 1885.97 616.01 1889.05 616.01C1892.9 616.01 1896.05 617.018 1898.5 619.035C1900.95 621.052 1902.17 624.396 1902.17 629.067L1902.17 654.155L1892.19 654.155L1892.19 631.494C1892.19 629.534 1891.93 628.03 1891.41 626.982C1890.45 625.068 1888.63 624.111 1885.94 624.111Z"/>
<path clip-path="url(#TextBounds_5)" d="M1945.07 603.842L1945.07 654.155L1935.6 654.155L1935.6 648.994C1934.21 651.204 1932.63 652.81 1930.85 653.813C1929.07 654.815 1926.86 655.317 1924.22 655.317C1919.87 655.317 1916.2 653.556 1913.23 650.036C1910.26 646.515 1908.77 641.998 1908.77 636.484C1908.77 630.126 1910.23 625.125 1913.16 621.479C1916.09 617.833 1920 616.01 1924.9 616.01C1927.16 616.01 1929.16 616.506 1930.92 617.497C1932.67 618.488 1934.1 619.861 1935.19 621.616L1935.19 603.842L1945.07 603.842ZM1918.82 635.766C1918.82 639.207 1919.5 641.952 1920.87 644.003C1922.21 646.077 1924.27 647.114 1927.02 647.114C1929.78 647.114 1931.88 646.088 1933.31 644.037C1934.75 641.987 1935.46 639.332 1935.46 636.074C1935.46 631.516 1934.31 628.258 1932.01 626.298C1930.6 625.113 1928.96 624.521 1927.09 624.521C1924.24 624.521 1922.15 625.598 1920.82 627.751C1919.49 629.904 1918.82 632.576 1918.82 635.766Z"/>
<path clip-path="url(#TextBounds_5)" d="M2007.28 603.842L2007.28 654.155L1997.81 654.155L1997.81 648.994C1996.42 651.204 1994.83 652.81 1993.06 653.813C1991.28 654.815 1989.07 655.317 1986.43 655.317C1982.07 655.317 1978.41 653.556 1975.44 650.036C1972.46 646.515 1970.98 641.998 1970.98 636.484C1970.98 630.126 1972.44 625.125 1975.37 621.479C1978.3 617.833 1982.21 616.01 1987.11 616.01C1989.37 616.01 1991.37 616.506 1993.13 617.497C1994.88 618.488 1996.3 619.861 1997.4 621.616L1997.4 603.842L2007.28 603.842ZM1981.03 635.766C1981.03 639.207 1981.71 641.952 1983.08 644.003C1984.42 646.077 1986.47 647.114 1989.23 647.114C1991.99 647.114 1994.08 646.088 1995.52 644.037C1996.95 641.987 1997.67 639.332 1997.67 636.074C1997.67 631.516 1996.52 628.258 1994.22 626.298C1992.81 625.113 1991.17 624.521 1989.3 624.521C1986.45 624.521 1984.36 625.598 1983.03 627.751C1981.69 629.904 1981.03 632.576 1981.03 635.766Z"/>
<path clip-path="url(#TextBounds_5)" d="M2034.86 625.888C2030.94 625.888 2028.31 627.164 2026.96 629.716C2026.21 631.152 2025.84 633.362 2025.84 636.347L2025.84 654.155L2016.03 654.155L2016.03 616.899L2025.32 616.899L2025.32 623.393C2026.83 620.909 2028.14 619.212 2029.25 618.3C2031.08 616.773 2033.45 616.01 2036.36 616.01C2036.55 616.01 2036.7 616.016 2036.82 616.027C2036.95 616.039 2037.23 616.056 2037.66 616.078L2037.66 626.059C2037.05 625.991 2036.5 625.945 2036.02 625.922C2035.54 625.899 2035.16 625.888 2034.86 625.888Z"/>
<path clip-path="url(#TextBounds_5)" d="M2053.38 616.899L2053.38 654.155L2043.51 654.155L2043.51 616.899L2053.38 616.899ZM2053.38 603.466L2053.38 612.455L2043.51 612.455L2043.51 603.466L2053.38 603.466Z"/>
<path clip-path="url(#TextBounds_5)" d="M2059.16 616.899L2070.1 616.899L2077.86 644.379L2085.79 616.899L2096.25 616.899L2082.81 654.155L2072.53 654.155L2059.16 616.899Z"/>
<path clip-path="url(#TextBounds_5)" d="M2133.64 643.217C2133.39 645.427 2132.24 647.672 2130.19 649.951C2127 653.574 2122.53 655.385 2116.79 655.385C2112.05 655.385 2107.87 653.858 2104.24 650.805C2100.62 647.752 2098.81 642.784 2098.81 635.903C2098.81 629.454 2100.44 624.509 2103.71 621.069C2106.98 617.628 2111.23 615.908 2116.45 615.908C2119.54 615.908 2122.34 616.489 2124.82 617.651C2127.3 618.813 2129.35 620.647 2130.97 623.154C2132.43 625.364 2133.38 627.927 2133.81 630.844C2134.06 632.553 2134.16 635.014 2134.12 638.227L2108.62 638.227C2108.76 641.964 2109.93 644.584 2112.14 646.088C2113.48 647.022 2115.1 647.49 2116.99 647.49C2119 647.49 2120.63 646.92 2121.88 645.781C2122.56 645.165 2123.17 644.311 2123.69 643.217L2133.64 643.217ZM2124 631.801C2123.84 629.226 2123.06 627.272 2121.66 625.939C2120.26 624.606 2118.52 623.94 2116.45 623.94C2114.19 623.94 2112.44 624.646 2111.2 626.059C2109.96 627.472 2109.18 629.386 2108.86 631.801L2124 631.801Z"/>
<path clip-path="url(#TextBounds_5)" d="M2159.41 625.888C2155.49 625.888 2152.86 627.164 2151.51 629.716C2150.76 631.152 2150.39 633.362 2150.39 636.347L2150.39 654.155L2140.58 654.155L2140.58 616.899L2149.87 616.899L2149.87 623.393C2151.38 620.909 2152.69 619.212 2153.8 618.3C2155.63 616.773 2158 616.01 2160.91 616.01C2161.1 616.01 2161.25 616.016 2161.38 616.027C2161.5 616.039 2161.78 616.056 2162.21 616.078L2162.21 626.059C2161.6 625.991 2161.05 625.945 2160.57 625.922C2160.09 625.899 2159.71 625.888 2159.41 625.888Z"/>
<path clip-path="url(#TextBounds_5)" d="M2193.59 618.608C2196.51 620.476 2198.18 623.689 2198.61 628.246L2188.87 628.246C2188.74 626.993 2188.38 626.002 2187.81 625.273C2186.74 623.951 2184.92 623.29 2182.34 623.29C2180.23 623.29 2178.72 623.621 2177.82 624.282C2176.92 624.942 2176.47 625.717 2176.47 626.606C2176.47 627.722 2176.94 628.531 2177.9 629.033C2178.86 629.557 2182.24 630.457 2188.05 631.733C2191.93 632.644 2194.83 634.023 2196.77 635.869C2198.68 637.737 2199.64 640.073 2199.64 642.875C2199.64 646.567 2198.27 649.58 2195.52 651.916C2192.77 654.251 2188.53 655.419 2182.79 655.419C2176.93 655.419 2172.61 654.183 2169.82 651.711C2167.03 649.238 2165.63 646.088 2165.63 642.26L2175.51 642.26C2175.71 643.992 2176.16 645.222 2176.84 645.952C2178.05 647.25 2180.28 647.9 2183.54 647.9C2185.45 647.9 2186.98 647.615 2188.1 647.045C2189.23 646.476 2189.8 645.621 2189.8 644.482C2189.8 643.388 2189.34 642.556 2188.43 641.987C2187.52 641.417 2184.13 640.437 2178.28 639.047C2174.06 637.999 2171.09 636.689 2169.36 635.117C2167.62 633.567 2166.76 631.334 2166.76 628.417C2166.76 624.977 2168.11 622.02 2170.81 619.548C2173.51 617.075 2177.31 615.839 2182.21 615.839C2186.86 615.839 2190.65 616.762 2193.59 618.608Z"/>
</g>
<g fill="#292929" opacity="1" stroke="none">
<path clip-path="url(#TextBounds_6)" d="M1829.44 711.526L1839.9 711.526L1839.9 761.907L1829.44 761.907L1829.44 711.526Z"/>
<path clip-path="url(#TextBounds_6)" d="M1866.46 731.863C1863.15 731.863 1860.88 733.264 1859.65 736.067C1859.02 737.548 1858.7 739.439 1858.7 741.741L1858.7 761.907L1848.99 761.907L1848.99 724.719L1858.39 724.719L1858.39 730.154C1859.64 728.24 1860.83 726.861 1861.94 726.018C1863.95 724.514 1866.49 723.762 1869.57 723.762C1873.42 723.762 1876.57 724.771 1879.02 726.787C1881.47 728.804 1882.69 732.148 1882.69 736.819L1882.69 761.907L1872.71 761.907L1872.71 739.246C1872.71 737.286 1872.45 735.782 1871.92 734.734C1870.97 732.82 1869.14 731.863 1866.46 731.863Z"/>
<path clip-path="url(#TextBounds_6)" d="M1908.74 754.968L1908.74 762.249L1904.12 762.42C1899.52 762.579 1896.37 761.782 1894.69 760.027C1893.59 758.91 1893.05 757.19 1893.05 754.866L1893.05 731.931L1887.85 731.931L1887.85 724.993L1893.05 724.993L1893.05 714.602L1902.69 714.602L1902.69 724.993L1908.74 724.993L1908.74 731.931L1902.69 731.931L1902.69 751.619C1902.69 753.146 1902.88 754.097 1903.27 754.473C1903.65 754.849 1904.84 755.037 1906.82 755.037C1907.12 755.037 1907.43 755.031 1907.76 755.02C1908.09 755.008 1908.42 754.991 1908.74 754.968Z"/>
<path clip-path="url(#TextBounds_6)" d="M1946.88 750.969C1946.63 753.18 1945.48 755.424 1943.43 757.703C1940.24 761.326 1935.77 763.137 1930.03 763.137C1925.29 763.137 1921.11 761.611 1917.49 758.557C1913.86 755.504 1912.05 750.536 1912.05 743.655C1912.05 737.206 1913.69 732.262 1916.96 728.821C1920.23 725.38 1924.47 723.66 1929.69 723.66C1932.79 723.66 1935.58 724.241 1938.06 725.403C1940.55 726.565 1942.6 728.399 1944.21 730.906C1945.67 733.116 1946.62 735.68 1947.05 738.596C1947.3 740.305 1947.4 742.766 1947.36 745.979L1921.86 745.979C1922 749.716 1923.17 752.337 1925.38 753.84C1926.73 754.775 1928.34 755.242 1930.24 755.242C1932.24 755.242 1933.87 754.672 1935.12 753.533C1935.81 752.918 1936.41 752.063 1936.93 750.969L1946.88 750.969ZM1937.24 739.553C1937.08 736.979 1936.3 735.025 1934.9 733.692C1933.5 732.359 1931.76 731.692 1929.69 731.692C1927.43 731.692 1925.68 732.398 1924.44 733.811C1923.2 735.224 1922.42 737.138 1922.1 739.553L1937.24 739.553Z"/>
<path clip-path="url(#TextBounds_6)" d="M1972.65 733.64C1968.73 733.64 1966.1 734.916 1964.76 737.468C1964 738.904 1963.63 741.114 1963.63 744.099L1963.63 761.907L1953.82 761.907L1953.82 724.651L1963.12 724.651L1963.12 731.145C1964.62 728.661 1965.93 726.964 1967.05 726.052C1968.87 724.526 1971.24 723.762 1974.16 723.762C1974.34 723.762 1974.49 723.768 1974.62 723.779C1974.74 723.791 1975.02 723.808 1975.45 723.831L1975.45 733.811C1974.84 733.743 1974.29 733.697 1973.81 733.674C1973.34 733.652 1972.95 733.64 1972.65 733.64Z"/>
<path clip-path="url(#TextBounds_6)" d="M1998.63 711.218L1998.63 719.148C1998.08 719.08 1997.16 719.028 1995.88 718.994C1994.59 718.96 1993.7 719.245 1993.21 719.849C1992.72 720.453 1992.48 721.119 1992.48 721.848L1992.48 724.993L1998.87 724.993L1998.87 731.863L1992.48 731.863L1992.48 761.907L1982.77 761.907L1982.77 731.863L1977.33 731.863L1977.33 724.993L1982.67 724.993L1982.67 722.6C1982.67 718.613 1983.34 715.867 1984.68 714.363C1986.1 712.13 1989.5 711.013 1994.9 711.013C1995.52 711.013 1996.08 711.03 1996.58 711.065C1997.08 711.099 1997.76 711.15 1998.63 711.218Z"/>
<path clip-path="url(#TextBounds_6)" d="M2005.87 728.684C2008.45 725.403 2012.87 723.762 2019.14 723.762C2023.22 723.762 2026.84 724.571 2030.01 726.189C2033.17 727.807 2034.76 730.86 2034.76 735.349L2034.76 752.439C2034.76 753.624 2034.78 755.06 2034.82 756.746C2034.89 758.022 2035.09 758.888 2035.41 759.343C2035.72 759.799 2036.2 760.175 2036.84 760.471L2036.84 761.907L2026.25 761.907C2025.95 761.155 2025.74 760.449 2025.63 759.788C2025.52 759.127 2025.43 758.375 2025.36 757.532C2024.01 758.99 2022.46 760.232 2020.71 761.257C2018.61 762.465 2016.24 763.069 2013.6 763.069C2010.23 763.069 2007.44 762.106 2005.24 760.181C2003.04 758.255 2001.94 755.527 2001.94 751.995C2001.94 747.415 2003.71 744.099 2007.24 742.049C2009.18 740.932 2012.03 740.134 2015.79 739.656L2019.1 739.246C2020.9 739.018 2022.19 738.733 2022.96 738.391C2024.35 737.799 2025.05 736.876 2025.05 735.623C2025.05 734.096 2024.52 733.042 2023.46 732.461C2022.4 731.88 2020.85 731.59 2018.79 731.59C2016.49 731.59 2014.86 732.159 2013.91 733.299C2013.22 734.142 2012.77 735.281 2012.54 736.716L2003.14 736.716C2003.35 733.458 2004.26 730.781 2005.87 728.684ZM2013.12 754.866C2014.03 755.618 2015.15 755.994 2016.47 755.994C2018.57 755.994 2020.5 755.379 2022.26 754.148C2024.03 752.918 2024.95 750.673 2025.02 747.415L2025.02 743.792C2024.4 744.179 2023.78 744.492 2023.15 744.732C2022.53 744.971 2021.67 745.193 2020.57 745.398L2018.38 745.808C2016.33 746.173 2014.86 746.617 2013.98 747.141C2012.47 748.03 2011.72 749.409 2011.72 751.277C2011.72 752.94 2012.19 754.137 2013.12 754.866Z"/>
<path clip-path="url(#TextBounds_6)" d="M2075.64 738.015L2065.65 738.015C2065.47 736.625 2065.01 735.372 2064.25 734.256C2063.16 732.752 2061.46 732 2059.16 732C2055.88 732 2053.64 733.629 2052.43 736.887C2051.79 738.619 2051.47 740.921 2051.47 743.792C2051.47 746.526 2051.79 748.725 2052.43 750.388C2053.59 753.487 2055.78 755.037 2058.99 755.037C2061.27 755.037 2062.89 754.422 2063.84 753.191C2064.8 751.961 2065.38 750.366 2065.59 748.406L2075.53 748.406C2075.31 751.368 2074.23 754.171 2072.32 756.814C2069.27 761.075 2064.74 763.206 2058.75 763.206C2052.76 763.206 2048.35 761.428 2045.52 757.874C2042.7 754.319 2041.28 749.705 2041.28 744.031C2041.28 737.628 2042.85 732.649 2045.97 729.094C2049.09 725.54 2053.4 723.762 2058.89 723.762C2063.56 723.762 2067.38 724.811 2070.35 726.907C2073.33 729.003 2075.09 732.706 2075.64 738.015Z"/>
<path clip-path="url(#TextBounds_6)" d="M2114.22 750.969C2113.97 753.18 2112.82 755.424 2110.77 757.703C2107.58 761.326 2103.12 763.137 2097.37 763.137C2092.63 763.137 2088.45 761.611 2084.83 758.557C2081.21 755.504 2079.4 750.536 2079.4 743.655C2079.4 737.206 2081.03 732.262 2084.3 728.821C2087.57 725.38 2091.81 723.66 2097.03 723.66C2100.13 723.66 2102.92 724.241 2105.41 725.403C2107.89 726.565 2109.94 728.399 2111.56 730.906C2113.02 733.116 2113.96 735.68 2114.4 738.596C2114.65 740.305 2114.75 742.766 2114.7 745.979L2089.2 745.979C2089.34 749.716 2090.52 752.337 2092.73 753.84C2094.07 754.775 2095.69 755.242 2097.58 755.242C2099.58 755.242 2101.21 754.672 2102.47 753.533C2103.15 752.918 2103.75 752.063 2104.28 750.969L2114.22 750.969ZM2104.59 739.553C2104.43 736.979 2103.65 735.025 2102.24 733.692C2100.84 732.359 2099.11 731.692 2097.03 731.692C2094.78 731.692 2093.03 732.398 2091.79 733.811C2090.54 735.224 2089.76 737.138 2089.44 739.553L2104.59 739.553Z"/>
<path clip-path="url(#TextBounds_6)" d="M1830.87 812.684C1833.45 809.403 1837.87 807.762 1844.14 807.762C1848.22 807.762 1851.84 808.571 1855.01 810.189C1858.17 811.807 1859.76 814.86 1859.76 819.349L1859.76 836.439C1859.76 837.624 1859.78 839.06 1859.82 840.746C1859.89 842.022 1860.09 842.888 1860.41 843.343C1860.72 843.799 1861.2 844.175 1861.84 844.471L1861.84 845.907L1851.25 845.907C1850.95 845.155 1850.74 844.449 1850.63 843.788C1850.52 843.127 1850.43 842.375 1850.36 841.532C1849.01 842.99 1847.46 844.232 1845.71 845.257C1843.61 846.465 1841.24 847.069 1838.6 847.069C1835.23 847.069 1832.44 846.106 1830.24 844.181C1828.04 842.255 1826.94 839.527 1826.94 835.995C1826.94 831.415 1828.71 828.099 1832.24 826.049C1834.18 824.932 1837.03 824.134 1840.79 823.656L1844.1 823.246C1845.9 823.018 1847.19 822.733 1847.96 822.391C1849.35 821.799 1850.05 820.876 1850.05 819.623C1850.05 818.096 1849.52 817.042 1848.46 816.461C1847.4 815.88 1845.85 815.59 1843.79 815.59C1841.49 815.59 1839.86 816.159 1838.91 817.299C1838.22 818.142 1837.77 819.281 1837.54 820.716L1828.14 820.716C1828.35 817.458 1829.26 814.781 1830.87 812.684ZM1838.12 838.866C1839.03 839.618 1840.15 839.994 1841.47 839.994C1843.57 839.994 1845.5 839.379 1847.26 838.148C1849.03 836.918 1849.95 834.673 1850.02 831.415L1850.02 827.792C1849.4 828.179 1848.78 828.492 1848.15 828.732C1847.53 828.971 1846.67 829.193 1845.57 829.398L1843.38 829.808C1841.33 830.173 1839.86 830.617 1838.98 831.141C1837.47 832.03 1836.72 833.409 1836.72 835.277C1836.72 836.94 1837.19 838.137 1838.12 838.866Z"/>
<path clip-path="url(#TextBounds_6)" d="M1902.31 795.594L1902.31 845.907L1892.84 845.907L1892.84 840.746C1891.45 842.956 1889.87 844.562 1888.09 845.565C1886.31 846.568 1884.1 847.069 1881.46 847.069C1877.11 847.069 1873.45 845.309 1870.47 841.788C1867.5 838.268 1866.01 833.75 1866.01 828.236C1866.01 821.879 1867.48 816.877 1870.4 813.231C1873.33 809.585 1877.25 807.762 1882.14 807.762C1884.4 807.762 1886.41 808.258 1888.16 809.249C1889.91 810.24 1891.34 811.613 1892.43 813.368L1892.43 795.594L1902.31 795.594ZM1876.06 827.518C1876.06 830.959 1876.74 833.705 1878.11 835.756C1879.46 837.829 1881.51 838.866 1884.26 838.866C1887.02 838.866 1889.12 837.84 1890.55 835.79C1891.99 833.739 1892.71 831.084 1892.71 827.826C1892.71 823.269 1891.56 820.01 1889.25 818.05C1887.84 816.866 1886.2 816.273 1884.33 816.273C1881.48 816.273 1879.39 817.35 1878.06 819.503C1876.73 821.656 1876.06 824.328 1876.06 827.518Z"/>
<path clip-path="url(#TextBounds_6)" d="M1912.56 812.684C1915.14 809.403 1919.56 807.762 1925.83 807.762C1929.9 807.762 1933.53 808.571 1936.7 810.189C1939.86 811.807 1941.45 814.86 1941.45 819.349L1941.45 836.439C1941.45 837.624 1941.47 839.06 1941.51 840.746C1941.58 842.022 1941.78 842.888 1942.1 843.343C1942.41 843.799 1942.89 844.175 1943.53 844.471L1943.53 845.907L1932.94 845.907C1932.64 845.155 1932.43 844.449 1932.32 843.788C1932.21 843.127 1932.11 842.375 1932.05 841.532C1930.7 842.99 1929.15 844.232 1927.4 845.257C1925.3 846.465 1922.93 847.069 1920.29 847.069C1916.92 847.069 1914.13 846.106 1911.93 844.181C1909.73 842.255 1908.63 839.527 1908.63 835.995C1908.63 831.415 1910.4 828.099 1913.93 826.049C1915.87 824.932 1918.72 824.134 1922.48 823.656L1925.79 823.246C1927.59 823.018 1928.88 822.733 1929.65 822.391C1931.04 821.799 1931.74 820.876 1931.74 819.623C1931.74 818.096 1931.21 817.042 1930.15 816.461C1929.09 815.88 1927.53 815.59 1925.48 815.59C1923.18 815.59 1921.55 816.159 1920.6 817.299C1919.91 818.142 1919.46 819.281 1919.23 820.716L1909.83 820.716C1910.03 817.458 1910.95 814.781 1912.56 812.684ZM1919.81 838.866C1920.72 839.618 1921.84 839.994 1923.16 839.994C1925.26 839.994 1927.19 839.379 1928.95 838.148C1930.72 836.918 1931.64 834.673 1931.7 831.415L1931.7 827.792C1931.09 828.179 1930.47 828.492 1929.84 828.732C1929.22 828.971 1928.36 829.193 1927.26 829.398L1925.07 829.808C1923.02 830.173 1921.55 830.617 1920.66 831.141C1919.16 832.03 1918.41 833.409 1918.41 835.277C1918.41 836.94 1918.88 838.137 1919.81 838.866Z"/>
<path clip-path="url(#TextBounds_6)" d="M1981.3 812.65C1984.31 815.863 1985.81 820.58 1985.81 826.8C1985.81 833.363 1984.34 838.365 1981.38 841.805C1978.43 845.246 1974.63 846.966 1969.99 846.966C1967.02 846.966 1964.56 846.226 1962.6 844.745C1961.53 843.924 1960.48 842.728 1959.46 841.156L1959.46 860.57L1949.82 860.57L1949.82 808.651L1959.15 808.651L1959.15 814.154C1960.2 812.536 1961.32 811.26 1962.5 810.326C1964.67 808.662 1967.24 807.831 1970.23 807.831C1974.58 807.831 1978.27 809.437 1981.3 812.65ZM1975.76 827.279C1975.76 824.408 1975.11 821.867 1973.8 819.657C1972.49 817.447 1970.36 816.341 1967.42 816.341C1963.89 816.341 1961.46 818.016 1960.14 821.366C1959.46 823.143 1959.12 825.399 1959.12 828.133C1959.12 832.463 1960.27 835.505 1962.57 837.259C1963.94 838.285 1965.55 838.798 1967.42 838.798C1970.13 838.798 1972.2 837.749 1973.63 835.653C1975.05 833.557 1975.76 830.765 1975.76 827.279Z"/>
<path clip-path="url(#TextBounds_6)" d="M2009.91 838.968L2009.91 846.249L2005.29 846.42C2000.69 846.579 1997.55 845.782 1995.86 844.027C1994.77 842.91 1994.22 841.19 1994.22 838.866L1994.22 815.931L1989.02 815.931L1989.02 808.993L1994.22 808.993L1994.22 798.602L2003.86 798.602L2003.86 808.993L2009.91 808.993L2009.91 815.931L2003.86 815.931L2003.86 835.619C2003.86 837.146 2004.05 838.097 2004.44 838.473C2004.83 838.849 2006.01 839.037 2007.99 839.037C2008.29 839.037 2008.6 839.031 2008.93 839.02C2009.26 839.008 2009.59 838.991 2009.91 838.968Z"/>
<path clip-path="url(#TextBounds_6)" d="M2048.05 834.969C2047.8 837.18 2046.65 839.424 2044.6 841.703C2041.41 845.326 2036.94 847.137 2031.2 847.137C2026.46 847.137 2022.28 845.611 2018.66 842.557C2015.03 839.504 2013.22 834.536 2013.22 827.655C2013.22 821.206 2014.86 816.262 2018.13 812.821C2021.4 809.38 2025.64 807.66 2030.86 807.66C2033.96 807.66 2036.75 808.241 2039.23 809.403C2041.72 810.565 2043.77 812.399 2045.39 814.906C2046.84 817.116 2047.79 819.68 2048.22 822.596C2048.47 824.305 2048.58 826.766 2048.53 829.979L2023.03 829.979C2023.17 833.716 2024.34 836.337 2026.55 837.84C2027.9 838.775 2029.52 839.242 2031.41 839.242C2033.41 839.242 2035.04 838.672 2036.29 837.533C2036.98 836.918 2037.58 836.063 2038.11 834.969L2048.05 834.969ZM2038.41 823.553C2038.25 820.979 2037.47 819.025 2036.07 817.692C2034.67 816.359 2032.93 815.692 2030.86 815.692C2028.6 815.692 2026.86 816.398 2025.61 817.811C2024.37 819.224 2023.59 821.138 2023.27 823.553L2038.41 823.553Z"/>
<path clip-path="url(#TextBounds_6)" d="M2073.82 817.64C2069.9 817.64 2067.27 818.916 2065.93 821.468C2065.18 822.904 2064.8 825.114 2064.8 828.099L2064.8 845.907L2054.99 845.907L2054.99 808.651L2064.29 808.651L2064.29 815.145C2065.79 812.661 2067.1 810.964 2068.22 810.052C2070.04 808.526 2072.41 807.762 2075.33 807.762C2075.51 807.762 2075.66 807.768 2075.79 807.779C2075.91 807.791 2076.19 807.808 2076.63 807.831L2076.63 817.811C2076.01 817.743 2075.46 817.697 2074.99 817.674C2074.51 817.652 2074.12 817.64 2073.82 817.64Z"/>
<path clip-path="url(#TextBounds_6)" d="M2108 810.36C2110.92 812.229 2112.6 815.441 2113.03 819.999L2103.29 819.999C2103.15 818.745 2102.8 817.754 2102.23 817.025C2101.16 815.703 2099.33 815.043 2096.76 815.043C2094.64 815.043 2093.13 815.373 2092.23 816.034C2091.33 816.695 2090.88 817.469 2090.88 818.358C2090.88 819.475 2091.36 820.284 2092.32 820.785C2093.27 821.309 2096.66 822.209 2102.47 823.485C2106.34 824.396 2109.25 825.775 2111.18 827.621C2113.1 829.489 2114.05 831.825 2114.05 834.628C2114.05 838.319 2112.68 841.333 2109.93 843.668C2107.19 846.004 2102.95 847.172 2097.2 847.172C2091.35 847.172 2087.02 845.935 2084.23 843.463C2081.44 840.991 2080.04 837.84 2080.04 834.012L2089.92 834.012C2090.13 835.744 2090.57 836.975 2091.26 837.704C2092.46 839.003 2094.7 839.652 2097.95 839.652C2099.87 839.652 2101.39 839.367 2102.52 838.798C2103.65 838.228 2104.21 837.373 2104.21 836.234C2104.21 835.14 2103.75 834.309 2102.84 833.739C2101.93 833.169 2098.55 832.189 2092.69 830.799C2088.48 829.751 2085.5 828.441 2083.77 826.869C2082.04 825.319 2081.17 823.086 2081.17 820.17C2081.17 816.729 2082.52 813.772 2085.22 811.3C2087.92 808.828 2091.72 807.591 2096.62 807.591C2101.27 807.591 2105.06 808.514 2108 810.36Z"/>
</g>
<g fill="#292929" opacity="1" stroke="none">
<path clip-path="url(#TextBounds_7)" d="M1860.06 959.182L1860.06 928.215L1870.76 928.215L1870.76 959.182C1870.76 964.537 1869.93 968.707 1868.27 971.692C1865.17 977.16 1859.26 979.895 1850.53 979.895C1841.8 979.895 1835.88 977.16 1832.75 971.692C1831.09 968.707 1830.26 964.537 1830.26 959.182L1830.26 928.215L1840.96 928.215L1840.96 959.182C1840.96 962.645 1841.37 965.175 1842.19 966.77C1843.46 969.595 1846.24 971.008 1850.53 971.008C1854.79 971.008 1857.56 969.595 1858.83 966.77C1859.65 965.175 1860.06 962.645 1860.06 959.182Z"/>
<path clip-path="url(#TextBounds_7)" d="M1905.69 943.049C1908.61 944.918 1910.29 948.13 1910.72 952.688L1900.98 952.688C1900.84 951.434 1900.49 950.443 1899.92 949.714C1898.85 948.392 1897.02 947.732 1894.45 947.732C1892.33 947.732 1890.82 948.062 1889.92 948.723C1889.02 949.384 1888.57 950.158 1888.57 951.047C1888.57 952.164 1889.05 952.973 1890.01 953.474C1890.96 953.998 1894.35 954.898 1900.16 956.174C1904.03 957.085 1906.94 958.464 1908.87 960.31C1910.79 962.178 1911.74 964.514 1911.74 967.317C1911.74 971.008 1910.37 974.022 1907.63 976.357C1904.88 978.693 1900.64 979.861 1894.89 979.861C1889.04 979.861 1884.71 978.624 1881.92 976.152C1879.13 973.68 1877.74 970.53 1877.74 966.701L1887.61 966.701C1887.82 968.433 1888.26 969.664 1888.95 970.393C1890.15 971.692 1892.39 972.341 1895.65 972.341C1897.56 972.341 1899.08 972.056 1900.21 971.487C1901.34 970.917 1901.9 970.062 1901.9 968.923C1901.9 967.829 1901.44 966.998 1900.53 966.428C1899.62 965.858 1896.24 964.878 1890.38 963.488C1886.17 962.44 1883.19 961.13 1881.46 959.558C1879.73 958.008 1878.86 955.775 1878.86 952.859C1878.86 949.418 1880.21 946.461 1882.91 943.989C1885.61 941.517 1889.41 940.28 1894.31 940.28C1898.96 940.28 1902.75 941.203 1905.69 943.049Z"/>
<path clip-path="url(#TextBounds_7)" d="M1950.85 967.658C1950.59 969.869 1949.44 972.113 1947.39 974.392C1944.2 978.015 1939.74 979.826 1933.99 979.826C1929.26 979.826 1925.07 978.3 1921.45 975.246C1917.83 972.193 1916.02 967.225 1916.02 960.344C1916.02 953.895 1917.65 948.951 1920.92 945.51C1924.19 942.069 1928.43 940.349 1933.65 940.349C1936.75 940.349 1939.54 940.93 1942.03 942.092C1944.51 943.254 1946.56 945.088 1948.18 947.595C1949.64 949.805 1950.58 952.369 1951.02 955.285C1951.27 956.994 1951.37 959.455 1951.32 962.668L1925.83 962.668C1925.96 966.405 1927.14 969.026 1929.35 970.53C1930.69 971.464 1932.31 971.931 1934.2 971.931C1936.21 971.931 1937.83 971.361 1939.09 970.222C1939.77 969.607 1940.38 968.752 1940.9 967.658L1950.85 967.658ZM1941.21 956.242C1941.05 953.668 1940.27 951.714 1938.87 950.381C1937.46 949.048 1935.73 948.381 1933.65 948.381C1931.4 948.381 1929.65 949.087 1928.41 950.5C1927.16 951.913 1926.38 953.827 1926.07 956.242L1941.21 956.242Z"/>
<path clip-path="url(#TextBounds_7)" d="M2009.57 954.704L1999.59 954.704C1999.4 953.314 1998.94 952.061 1998.18 950.945C1997.09 949.441 1995.39 948.689 1993.09 948.689C1989.81 948.689 1987.57 950.318 1986.36 953.576C1985.72 955.308 1985.4 957.61 1985.4 960.481C1985.4 963.215 1985.72 965.414 1986.36 967.077C1987.52 970.176 1989.71 971.726 1992.92 971.726C1995.2 971.726 1996.82 971.111 1997.77 969.88C1998.73 968.65 1999.31 967.055 1999.52 965.095L2009.46 965.095C2009.24 968.057 2008.16 970.86 2006.25 973.503C2003.2 977.764 1998.67 979.895 1992.68 979.895C1986.69 979.895 1982.28 978.117 1979.45 974.563C1976.63 971.008 1975.22 966.394 1975.22 960.72C1975.22 954.317 1976.78 949.338 1979.9 945.783C1983.02 942.229 1987.33 940.451 1992.82 940.451C1997.49 940.451 2001.31 941.5 2004.29 943.596C2007.26 945.692 2009.02 949.395 2009.57 954.704Z"/>
<path clip-path="url(#TextBounds_7)" d="M2017.67 945.373C2020.24 942.092 2024.66 940.451 2030.93 940.451C2035.01 940.451 2038.63 941.26 2041.8 942.878C2044.96 944.496 2046.55 947.549 2046.55 952.038L2046.55 969.128C2046.55 970.313 2046.57 971.749 2046.62 973.435C2046.69 974.711 2046.88 975.577 2047.2 976.032C2047.52 976.488 2048 976.864 2048.63 977.16L2048.63 978.596L2038.04 978.596C2037.74 977.844 2037.54 977.138 2037.42 976.477C2037.31 975.816 2037.22 975.064 2037.15 974.221C2035.8 975.679 2034.26 976.921 2032.5 977.947C2030.4 979.154 2028.03 979.758 2025.39 979.758C2022.02 979.758 2019.23 978.795 2017.03 976.87C2014.84 974.944 2013.74 972.216 2013.74 968.684C2013.74 964.104 2015.5 960.788 2019.03 958.738C2020.97 957.621 2023.82 956.823 2027.58 956.345L2030.89 955.935C2032.69 955.707 2033.98 955.422 2034.76 955.08C2036.15 954.488 2036.84 953.565 2036.84 952.312C2036.84 950.785 2036.31 949.731 2035.25 949.15C2034.19 948.569 2032.64 948.279 2030.59 948.279C2028.29 948.279 2026.66 948.848 2025.7 949.988C2025.02 950.831 2024.56 951.97 2024.33 953.405L2014.93 953.405C2015.14 950.147 2016.05 947.47 2017.67 945.373ZM2024.91 971.555C2025.82 972.307 2026.94 972.683 2028.26 972.683C2030.36 972.683 2032.29 972.068 2034.06 970.837C2035.82 969.607 2036.74 967.362 2036.81 964.104L2036.81 960.481C2036.19 960.868 2035.57 961.181 2034.94 961.421C2034.32 961.66 2033.46 961.882 2032.36 962.087L2030.18 962.497C2028.13 962.862 2026.66 963.306 2025.77 963.83C2024.26 964.719 2023.51 966.098 2023.51 967.966C2023.51 969.629 2023.98 970.826 2024.91 971.555Z"/>
<path clip-path="url(#TextBounds_7)" d="M2080.86 943.049C2083.78 944.918 2085.46 948.13 2085.89 952.688L2076.15 952.688C2076.01 951.434 2075.66 950.443 2075.09 949.714C2074.02 948.392 2072.19 947.732 2069.62 947.732C2067.5 947.732 2065.99 948.062 2065.09 948.723C2064.19 949.384 2063.74 950.158 2063.74 951.047C2063.74 952.164 2064.22 952.973 2065.18 953.474C2066.13 953.998 2069.52 954.898 2075.33 956.174C2079.2 957.085 2082.11 958.464 2084.04 960.31C2085.96 962.178 2086.91 964.514 2086.91 967.317C2086.91 971.008 2085.54 974.022 2082.8 976.357C2080.05 978.693 2075.81 979.861 2070.06 979.861C2064.21 979.861 2059.88 978.624 2057.09 976.152C2054.3 973.68 2052.91 970.53 2052.91 966.701L2062.78 966.701C2062.99 968.433 2063.43 969.664 2064.12 970.393C2065.32 971.692 2067.56 972.341 2070.82 972.341C2072.73 972.341 2074.25 972.056 2075.38 971.487C2076.51 970.917 2077.07 970.062 2077.07 968.923C2077.07 967.829 2076.62 966.998 2075.7 966.428C2074.79 965.858 2071.41 964.878 2065.55 963.488C2061.34 962.44 2058.36 961.13 2056.63 959.558C2054.9 958.008 2054.03 955.775 2054.03 952.859C2054.03 949.418 2055.38 946.461 2058.08 943.989C2060.78 941.517 2064.58 940.28 2069.48 940.28C2074.13 940.28 2077.93 941.203 2080.86 943.049Z"/>
<path clip-path="url(#TextBounds_7)" d="M2126.02 967.658C2125.77 969.869 2124.61 972.113 2122.56 974.392C2119.37 978.015 2114.91 979.826 2109.17 979.826C2104.43 979.826 2100.24 978.3 2096.62 975.246C2093 972.193 2091.19 967.225 2091.19 960.344C2091.19 953.895 2092.82 948.951 2096.09 945.51C2099.36 942.069 2103.61 940.349 2108.82 940.349C2111.92 940.349 2114.71 940.93 2117.2 942.092C2119.68 943.254 2121.73 945.088 2123.35 947.595C2124.81 949.805 2125.75 952.369 2126.19 955.285C2126.44 956.994 2126.54 959.455 2126.49 962.668L2101 962.668C2101.13 966.405 2102.31 969.026 2104.52 970.53C2105.86 971.464 2107.48 971.931 2109.37 971.931C2111.38 971.931 2113.01 971.361 2114.26 970.222C2114.94 969.607 2115.55 968.752 2116.07 967.658L2126.02 967.658ZM2116.38 956.242C2116.22 953.668 2115.44 951.714 2114.04 950.381C2112.63 949.048 2110.9 948.381 2108.82 948.381C2106.57 948.381 2104.82 949.087 2103.58 950.5C2102.34 951.913 2101.56 953.827 2101.24 956.242L2116.38 956.242Z"/>
<path clip-path="url(#TextBounds_7)" d="M2158.73 943.049C2161.64 944.918 2163.32 948.13 2163.75 952.688L2154.01 952.688C2153.87 951.434 2153.52 950.443 2152.95 949.714C2151.88 948.392 2150.06 947.732 2147.48 947.732C2145.36 947.732 2143.85 948.062 2142.95 948.723C2142.05 949.384 2141.6 950.158 2141.6 951.047C2141.6 952.164 2142.08 952.973 2143.04 953.474C2143.99 953.998 2147.38 954.898 2153.19 956.174C2157.06 957.085 2159.97 958.464 2161.9 960.31C2163.82 962.178 2164.78 964.514 2164.78 967.317C2164.78 971.008 2163.4 974.022 2160.66 976.357C2157.91 978.693 2153.67 979.861 2147.93 979.861C2142.07 979.861 2137.75 978.624 2134.95 976.152C2132.16 973.68 2130.77 970.53 2130.77 966.701L2140.65 966.701C2140.85 968.433 2141.29 969.664 2141.98 970.393C2143.19 971.692 2145.42 972.341 2148.68 972.341C2150.59 972.341 2152.11 972.056 2153.24 971.487C2154.37 970.917 2154.93 970.062 2154.93 968.923C2154.93 967.829 2154.48 966.998 2153.57 966.428C2152.65 965.858 2149.27 964.878 2143.41 963.488C2139.2 962.44 2136.22 961.13 2134.49 959.558C2132.76 958.008 2131.9 955.775 2131.9 952.859C2131.9 949.418 2133.25 946.461 2135.95 943.989C2138.65 941.517 2142.45 940.28 2147.34 940.28C2151.99 940.28 2155.79 941.203 2158.73 943.049Z"/>
</g>
<g fill="#292929" opacity="1" stroke="none">
<path clip-path="url(#TextBounds_8)" d="M1865.33 1119.27L1840.86 1119.27L1840.86 1132.22L1868.75 1132.22L1868.75 1141.28L1830.57 1141.28L1830.57 1090.9L1867.52 1090.9L1867.52 1099.82L1840.86 1099.82L1840.86 1110.52L1865.33 1110.52L1865.33 1119.27Z"/>
<path clip-path="url(#TextBounds_8)" d="M1893.7 1111.24C1890.39 1111.24 1888.13 1112.64 1886.9 1115.44C1886.26 1116.92 1885.94 1118.81 1885.94 1121.11L1885.94 1141.28L1876.23 1141.28L1876.23 1104.09L1885.63 1104.09L1885.63 1109.53C1886.88 1107.61 1888.07 1106.24 1889.19 1105.39C1891.19 1103.89 1893.73 1103.14 1896.81 1103.14C1900.66 1103.14 1903.81 1104.14 1906.26 1106.16C1908.71 1108.18 1909.93 1111.52 1909.93 1116.19L1909.93 1141.28L1899.95 1141.28L1899.95 1118.62C1899.95 1116.66 1899.69 1115.16 1899.17 1114.11C1898.21 1112.19 1896.39 1111.24 1893.7 1111.24Z"/>
<path clip-path="url(#TextBounds_8)" d="M1935.98 1134.34L1935.98 1141.62L1931.36 1141.79C1926.76 1141.95 1923.62 1141.16 1921.93 1139.4C1920.84 1138.28 1920.29 1136.56 1920.29 1134.24L1920.29 1111.31L1915.09 1111.31L1915.09 1104.37L1920.29 1104.37L1920.29 1093.98L1929.93 1093.98L1929.93 1104.37L1935.98 1104.37L1935.98 1111.31L1929.93 1111.31L1929.93 1130.99C1929.93 1132.52 1930.12 1133.47 1930.51 1133.85C1930.9 1134.22 1932.08 1134.41 1934.06 1134.41C1934.36 1134.41 1934.67 1134.41 1935 1134.39C1935.33 1134.38 1935.66 1134.37 1935.98 1134.34Z"/>
<path clip-path="url(#TextBounds_8)" d="M1952.25 1104.03L1952.25 1141.28L1942.37 1141.28L1942.37 1104.03L1952.25 1104.03ZM1952.25 1090.59L1952.25 1099.58L1942.37 1099.58L1942.37 1090.59L1952.25 1090.59Z"/>
<path clip-path="url(#TextBounds_8)" d="M1978.74 1134.34L1978.74 1141.62L1974.12 1141.79C1969.52 1141.95 1966.37 1141.16 1964.69 1139.4C1963.59 1138.28 1963.05 1136.56 1963.05 1134.24L1963.05 1111.31L1957.85 1111.31L1957.85 1104.37L1963.05 1104.37L1963.05 1093.98L1972.69 1093.98L1972.69 1104.37L1978.74 1104.37L1978.74 1111.31L1972.69 1111.31L1972.69 1130.99C1972.69 1132.52 1972.88 1133.47 1973.27 1133.85C1973.65 1134.22 1974.84 1134.41 1976.82 1134.41C1977.12 1134.41 1977.43 1134.41 1977.76 1134.39C1978.09 1134.38 1978.42 1134.37 1978.74 1134.34Z"/>
<path clip-path="url(#TextBounds_8)" d="M1995.01 1104.03L1995.01 1141.28L1985.13 1141.28L1985.13 1104.03L1995.01 1104.03ZM1995.01 1090.59L1995.01 1099.58L1985.13 1099.58L1985.13 1090.59L1995.01 1090.59Z"/>
<path clip-path="url(#TextBounds_8)" d="M2036.33 1130.34C2036.08 1132.55 2034.93 1134.8 2032.88 1137.08C2029.69 1140.7 2025.22 1142.51 2019.48 1142.51C2014.74 1142.51 2010.56 1140.98 2006.93 1137.93C2003.31 1134.88 2001.5 1129.91 2001.5 1123.03C2001.5 1116.58 2003.13 1111.64 2006.4 1108.19C2009.67 1104.75 2013.92 1103.03 2019.14 1103.03C2022.24 1103.03 2025.03 1103.61 2027.51 1104.78C2029.99 1105.94 2032.04 1107.77 2033.66 1110.28C2035.12 1112.49 2036.07 1115.05 2036.5 1117.97C2036.75 1119.68 2036.85 1122.14 2036.81 1125.35L2011.31 1125.35C2011.45 1129.09 2012.62 1131.71 2014.83 1133.21C2016.17 1134.15 2017.79 1134.62 2019.68 1134.62C2021.69 1134.62 2023.32 1134.05 2024.57 1132.91C2025.25 1132.29 2025.86 1131.44 2026.38 1130.34L2036.33 1130.34ZM2026.69 1118.93C2026.53 1116.35 2025.75 1114.4 2024.35 1113.07C2022.95 1111.73 2021.21 1111.07 2019.14 1111.07C2016.88 1111.07 2015.13 1111.77 2013.89 1113.19C2012.65 1114.6 2011.87 1116.51 2011.55 1118.93L2026.69 1118.93Z"/>
<path clip-path="url(#TextBounds_8)" d="M2069.04 1105.73C2071.96 1107.6 2073.63 1110.82 2074.06 1115.37L2064.32 1115.37C2064.19 1114.12 2063.83 1113.13 2063.26 1112.4C2062.19 1111.08 2060.37 1110.42 2057.79 1110.42C2055.67 1110.42 2054.16 1110.75 2053.26 1111.41C2052.36 1112.07 2051.91 1112.84 2051.91 1113.73C2051.91 1114.85 2052.39 1115.66 2053.35 1116.16C2054.31 1116.68 2057.69 1117.58 2063.5 1118.86C2067.38 1119.77 2070.28 1121.15 2072.22 1122.99C2074.13 1124.86 2075.09 1127.2 2075.09 1130C2075.09 1133.69 2073.72 1136.71 2070.97 1139.04C2068.22 1141.38 2063.98 1142.55 2058.24 1142.55C2052.38 1142.55 2048.06 1141.31 2045.27 1138.84C2042.48 1136.36 2041.08 1133.21 2041.08 1129.39L2050.96 1129.39C2051.16 1131.12 2051.61 1132.35 2052.29 1133.08C2053.5 1134.38 2055.73 1135.03 2058.99 1135.03C2060.9 1135.03 2062.43 1134.74 2063.55 1134.17C2064.68 1133.6 2065.24 1132.75 2065.24 1131.61C2065.24 1130.51 2064.79 1129.68 2063.88 1129.11C2062.97 1128.54 2059.58 1127.56 2053.73 1126.17C2049.51 1125.13 2046.54 1123.82 2044.81 1122.24C2043.07 1120.69 2042.21 1118.46 2042.21 1115.54C2042.21 1112.1 2043.56 1109.15 2046.26 1106.67C2048.96 1104.2 2052.76 1102.97 2057.66 1102.97C2062.31 1102.97 2066.1 1103.89 2069.04 1105.73Z"/>
</g>
</g>
</svg>
