<svg width="2000px" height="1546px"
 viewBox="0.00 0.00 881.48 681.42" xmlns="http://www.w3.org/2000/svg" xmlns:xlink="http://www.w3.org/1999/xlink">
<g id="graph0" class="graph" transform="scale(1.0 1.0) rotate(0) translate(4 677.42)">
<title>ContextMapGraph</title>
<polygon fill="white" stroke="transparent" points="-4,4 -4,-677.42 877.48,-677.42 877.48,4 -4,4"/>
<!-- ClientOrders -->
<g id="node1" class="node">
<title>ClientOrders</title>
<polygon fill="none" stroke="black" stroke-width="2" points="640.06,-650.09 636.22,-652.44 632.18,-654.7 627.95,-656.87 623.54,-658.94 618.97,-660.9 614.26,-662.73 609.42,-664.44 604.47,-666.01 599.43,-667.44 594.31,-668.72 589.13,-669.86 583.9,-670.83 578.64,-671.65 573.37,-672.3 568.09,-672.79 562.82,-673.12 557.58,-673.28 552.38,-673.28 547.24,-673.11 542.15,-672.78 537.14,-672.3 532.21,-671.66 527.38,-670.87 522.65,-669.93 518.03,-668.86 513.54,-667.65 509.17,-666.32 504.94,-664.87 500.86,-663.3 496.92,-661.63 493.15,-659.87 489.53,-658.01 486.08,-656.08 482.8,-654.07 479.71,-652 476.79,-649.88 474.06,-647.71 471.52,-645.5 469.18,-643.27 467.03,-641.01 465.09,-638.73 463.36,-636.45 461.84,-634.18 460.53,-631.9 459.44,-629.64 458.57,-627.4 457.93,-625.18 457.52,-622.99 457.33,-620.84 457.39,-618.72 457.67,-616.65 458.2,-614.62 458.97,-612.63 459.98,-610.7 461.24,-608.82 462.74,-607 464.49,-605.23 466.48,-603.52 468.71,-601.88 471.19,-600.29 473.91,-598.76 476.87,-597.29 480.06,-595.89 483.48,-594.55 487.13,-593.28 490.99,-592.07 495.07,-590.92 499.34,-589.85 503.82,-588.84 508.47,-587.89 513.3,-587.02 518.29,-586.22 523.43,-585.49 528.71,-584.84 534.11,-584.26 539.61,-583.76 545.2,-583.34 550.86,-583 556.58,-582.75 562.34,-582.58 568.12,-582.5 573.89,-582.52 579.65,-582.62 585.36,-582.83 591.02,-583.14 596.6,-583.54 602.08,-584.05 607.44,-584.67 612.67,-585.39 617.73,-586.23 622.63,-587.17 627.33,-588.22 631.82,-589.39 636.08,-590.67 640.1,-592.06 643.87,-593.55 647.36,-595.16 650.57,-596.87 653.48,-598.69 656.09,-600.61 658.38,-602.62 660.35,-604.72 662,-606.92 663.3,-609.19 664.27,-611.54 664.9,-613.95 665.19,-616.43 665.14,-618.96 664.76,-621.54 664.03,-624.15 662.98,-626.79 661.61,-629.44 659.92,-632.1 657.92,-634.76 655.62,-637.41 653.03,-640.04 650.17,-642.63 647.05,-645.17 643.67,-647.66 640.06,-650.09"/>
<text text-anchor="middle" x="556.48" y="-620.76" font-family="sans-serif" font-size="16.00">ClientOrders</text>
</g>
<!-- ProductionPlanning -->
<g id="node2" class="node">
<title>ProductionPlanning</title>
<polygon fill="none" stroke="black" stroke-width="2" points="264.1,-507.14 257.98,-504.98 252.19,-502.75 246.77,-500.47 241.73,-498.14 237.1,-495.77 232.9,-493.38 229.14,-490.96 225.84,-488.52 223.02,-486.08 220.69,-483.65 218.86,-481.23 217.54,-478.82 216.72,-476.44 216.43,-474.1 216.65,-471.79 217.38,-469.53 218.63,-467.32 220.38,-465.16 222.63,-463.07 225.36,-461.04 228.57,-459.08 232.23,-457.19 236.33,-455.38 240.86,-453.64 245.78,-451.99 251.09,-450.42 256.75,-448.93 262.74,-447.53 269.04,-446.22 275.62,-444.99 282.44,-443.86 289.5,-442.81 296.74,-441.85 304.16,-440.98 311.71,-440.19 319.37,-439.5 327.12,-438.89 334.92,-438.38 342.75,-437.95 350.58,-437.61 358.39,-437.35 366.15,-437.19 373.84,-437.11 381.44,-437.12 388.93,-437.22 396.28,-437.4 403.48,-437.67 410.51,-438.03 417.36,-438.48 424.01,-439.02 430.45,-439.64 436.67,-440.35 442.66,-441.15 448.4,-442.04 453.9,-443.01 459.14,-444.08 464.13,-445.23 468.84,-446.47 473.29,-447.8 477.47,-449.21 481.37,-450.71 485,-452.29 488.35,-453.96 491.42,-455.7 494.22,-457.52 496.73,-459.42 498.97,-461.38 500.94,-463.42 502.62,-465.52 504.03,-467.68 505.16,-469.89 506.01,-472.16 506.59,-474.46 506.89,-476.81 506.9,-479.19 506.64,-481.59 506.09,-484.01 505.26,-486.44 504.15,-488.87 502.75,-491.3 501.06,-493.71 499.09,-496.1 496.82,-498.46 494.26,-500.78 491.4,-503.06 488.26,-505.27 484.81,-507.42 481.08,-509.49 477.05,-511.48 472.73,-513.38 468.12,-515.18 463.23,-516.88 458.05,-518.45 452.6,-519.91 446.88,-521.24 440.91,-522.44 434.68,-523.5 428.21,-524.41 421.51,-525.18 414.6,-525.8 407.5,-526.26 400.21,-526.56 392.75,-526.71 385.15,-526.7 377.43,-526.53 369.61,-526.21 361.71,-525.73 353.75,-525.09 345.77,-524.31 337.79,-523.38 329.83,-522.3 321.92,-521.08 314.1,-519.74 306.39,-518.26 298.82,-516.67 291.42,-514.96 284.22,-513.14 277.25,-511.23 270.53,-509.23 264.1,-507.14"/>
<text text-anchor="middle" x="372.48" y="-474.88" font-family="sans-serif" font-size="16.00">ProductionPlanning</text>
</g>
<!-- ClientOrders&#45;&gt;ProductionPlanning -->
<g id="edge1" class="edge">
<title>ClientOrders&#45;&gt;ProductionPlanning</title>
<path fill="none" stroke="black" stroke-width="2" d="M465.14,-604.27C438.07,-594.44 410.59,-579.71 391.48,-557.7 383.98,-549.07 379.34,-537.96 376.49,-526.85"/>
<text text-anchor="middle" x="466.98" y="-548.1" font-family="sans-serif" font-size="12.00"> &#160;&#160;&#160;&#160;&#160;&#160;&#160;&#160;&#160;&#160;&#160;&#160;&#160;&#160;&#160;&#160;&#160;&#160;&#160;&#160;&#160;&#160;&#160;&#160;&#160;&#160;&#160;&#160;&#160;&#160;&#160;&#160;&#160;&#160;&#160;&#160;&#160;&#160;&#160;</text>
<polygon fill="white" stroke="transparent" points="353.49,-516.85 353.49,-535.85 369.49,-535.85 369.49,-516.85 353.49,-516.85"/>
<polyline fill="none" stroke="black" points="369.49,-516.85 369.49,-535.85 "/>
<text text-anchor="start" x="356.49" y="-523.25" font-family="sans-serif" font-size="12.00">D</text>
<polygon fill="white" stroke="transparent" points="369.49,-516.85 369.49,-535.85 399.49,-535.85 399.49,-516.85 369.49,-516.85"/>
<polygon fill="none" stroke="black" points="369.49,-516.85 369.49,-535.85 399.49,-535.85 399.49,-516.85 369.49,-516.85"/>
<text text-anchor="start" x="372.49" y="-523.25" font-family="sans-serif" font-size="12.00">ACL</text>
<polygon fill="white" stroke="transparent" points="458.14,-595.27 458.14,-612.27 472.14,-612.27 472.14,-595.27 458.14,-595.27"/>
<text text-anchor="start" x="460.14" y="-600.67" font-family="sans-serif" font-size="12.00">U</text>
</g>
<!-- Stocking -->
<g id="node4" class="node">
<title>Stocking</title>
<polygon fill="none" stroke="black" stroke-width="2" points="436.87,-219.65 433.36,-221.8 429.7,-223.85 425.91,-225.8 422.01,-227.63 418.01,-229.35 413.93,-230.93 409.78,-232.39 405.57,-233.7 401.32,-234.86 397.04,-235.88 392.75,-236.74 388.45,-237.44 384.17,-237.98 379.91,-238.36 375.69,-238.57 371.51,-238.62 367.4,-238.51 363.35,-238.23 359.37,-237.8 355.48,-237.21 351.68,-236.46 347.99,-235.56 344.4,-234.52 340.92,-233.34 337.57,-232.03 334.34,-230.59 331.24,-229.03 328.27,-227.36 325.44,-225.58 322.75,-223.71 320.2,-221.75 317.8,-219.7 315.54,-217.59 313.44,-215.42 311.49,-213.19 309.69,-210.92 308.06,-208.61 306.57,-206.27 305.25,-203.91 304.09,-201.55 303.08,-199.17 302.25,-196.81 301.57,-194.45 301.06,-192.11 300.72,-189.8 300.55,-187.51 300.55,-185.26 300.72,-183.06 301.06,-180.89 301.57,-178.78 302.27,-176.73 303.13,-174.73 304.18,-172.79 305.4,-170.91 306.8,-169.1 308.38,-167.36 310.14,-165.68 312.07,-164.08 314.18,-162.55 316.47,-161.09 318.94,-159.71 321.57,-158.4 324.37,-157.16 327.34,-156 330.46,-154.92 333.75,-153.92 337.18,-152.99 340.76,-152.13 344.47,-151.36 348.31,-150.66 352.27,-150.04 356.34,-149.5 360.5,-149.04 364.76,-148.67 369.1,-148.37 373.5,-148.16 377.95,-148.03 382.44,-147.99 386.95,-148.03 391.47,-148.17 395.99,-148.39 400.49,-148.71 404.95,-149.12 409.36,-149.62 413.7,-150.22 417.95,-150.92 422.11,-151.71 426.15,-152.61 430.06,-153.61 433.82,-154.7 437.42,-155.9 440.85,-157.2 444.08,-158.6 447.12,-160.1 449.94,-161.69 452.54,-163.39 454.9,-165.17 457.01,-167.05 458.88,-169.02 460.48,-171.07 461.81,-173.2 462.88,-175.4 463.66,-177.68 464.17,-180.02 464.4,-182.41 464.35,-184.86 464.02,-187.35 463.41,-189.88 462.53,-192.43 461.38,-195 459.97,-197.58 458.3,-200.16 456.38,-202.73 454.23,-205.28 451.84,-207.81 449.24,-210.29 446.43,-212.73 443.42,-215.11 440.23,-217.42 436.87,-219.65"/>
<text text-anchor="middle" x="377.48" y="-185.99" font-family="sans-serif" font-size="16.00">Stocking</text>
</g>
<!-- ClientOrders&#45;&gt;Stocking -->
<g id="edge2" class="edge">
<title>ClientOrders&#45;&gt;Stocking</title>
<path fill="none" stroke="black" stroke-width="2" d="M557.94,-582.52C560.02,-504.02 560.77,-336.07 531.48,-287.46 511.6,-254.47 475.7,-230.97 443.55,-215.4"/>
<text text-anchor="middle" x="631.98" y="-403.07" font-family="sans-serif" font-size="12.00"> &#160;&#160;&#160;&#160;&#160;&#160;&#160;&#160;&#160;&#160;&#160;&#160;&#160;&#160;&#160;&#160;&#160;&#160;&#160;&#160;&#160;&#160;&#160;&#160;&#160;&#160;&#160;&#160;&#160;&#160;&#160;&#160;&#160;&#160;&#160;&#160;&#160;&#160;&#160;</text>
<polygon fill="white" stroke="transparent" points="420.55,-205.4 420.55,-224.4 436.55,-224.4 436.55,-205.4 420.55,-205.4"/>
<polyline fill="none" stroke="black" points="436.55,-205.4 436.55,-224.4 "/>
<text text-anchor="start" x="423.55" y="-211.8" font-family="sans-serif" font-size="12.00">D</text>
<polygon fill="white" stroke="transparent" points="436.55,-205.4 436.55,-224.4 466.55,-224.4 466.55,-205.4 436.55,-205.4"/>
<polygon fill="none" stroke="black" points="436.55,-205.4 436.55,-224.4 466.55,-224.4 466.55,-205.4 436.55,-205.4"/>
<text text-anchor="start" x="439.55" y="-211.8" font-family="sans-serif" font-size="12.00">ACL</text>
<polygon fill="white" stroke="transparent" points="550.94,-573.52 550.94,-590.52 564.94,-590.52 564.94,-573.52 550.94,-573.52"/>
<text text-anchor="start" x="552.94" y="-578.92" font-family="sans-serif" font-size="12.00">U</text>
</g>
<!-- MilkPlanning -->
<g id="node6" class="node">
<title>MilkPlanning</title>
<polygon fill="none" stroke="black" stroke-width="2" points="375.58,-5.09 381.87,-4 388.23,-3.04 394.64,-2.2 401.05,-1.48 407.46,-0.9 413.83,-0.45 420.15,-0.14 426.38,0.03 432.51,0.06 438.51,-0.05 444.38,-0.3 450.08,-0.7 455.6,-1.24 460.92,-1.92 466.03,-2.73 470.92,-3.69 475.58,-4.77 479.98,-5.99 484.14,-7.32 488.03,-8.79 491.66,-10.36 495.01,-12.05 498.09,-13.84 500.9,-15.73 503.42,-17.71 505.68,-19.77 507.66,-21.91 509.36,-24.12 510.81,-26.39 511.98,-28.71 512.91,-31.08 513.57,-33.48 514,-35.92 514.18,-38.37 514.14,-40.83 513.87,-43.3 513.38,-45.76 512.67,-48.21 511.77,-50.64 510.67,-53.04 509.37,-55.41 507.89,-57.73 506.24,-60.01 504.4,-62.23 502.4,-64.38 500.24,-66.47 497.92,-68.49 495.43,-70.43 492.8,-72.29 490.02,-74.06 487.09,-75.74 484.01,-77.33 480.8,-78.82 477.44,-80.21 473.94,-81.5 470.31,-82.68 466.54,-83.77 462.64,-84.74 458.61,-85.61 454.45,-86.37 450.17,-87.02 445.76,-87.57 441.24,-88.01 436.6,-88.34 431.86,-88.56 427.01,-88.68 422.07,-88.69 417.05,-88.6 411.95,-88.41 406.78,-88.12 401.55,-87.73 396.28,-87.24 390.97,-86.66 385.65,-85.98 380.32,-85.21 375.01,-84.35 369.72,-83.4 364.47,-82.37 359.29,-81.25 354.19,-80.05 349.19,-78.77 344.3,-77.41 339.56,-75.98 334.98,-74.47 330.57,-72.9 326.36,-71.26 322.37,-69.55 318.62,-67.78 315.12,-65.95 311.9,-64.07 308.97,-62.14 306.34,-60.15 304.04,-58.13 302.07,-56.06 300.46,-53.95 299.2,-51.81 298.31,-49.65 297.81,-47.46 297.68,-45.25 297.95,-43.03 298.61,-40.8 299.66,-38.57 301.1,-36.34 302.94,-34.12 305.15,-31.92 307.74,-29.73 310.7,-27.58 314.02,-25.46 317.68,-23.38 321.67,-21.35 325.98,-19.37 330.58,-17.46 335.46,-15.61 340.6,-13.83 345.97,-12.14 351.56,-10.53 357.34,-9.02 363.29,-7.6 369.37,-6.29 375.58,-5.09"/>
<text text-anchor="middle" x="413.48" y="-42.26" font-family="sans-serif" font-size="16.00">MilkPlanning</text>
</g>
<!-- ClientOrders&#45;&gt;MilkPlanning -->
<g id="edge3" class="edge">
<title>ClientOrders&#45;&gt;MilkPlanning</title>
<path fill="none" stroke="black" stroke-width="2" d="M635.59,-590.42C678.34,-566.7 722.48,-530.02 722.48,-479.68 722.48,-479.68 722.48,-479.68 722.48,-188.79 722.48,-94.36 601.77,-62.6 511.25,-52.07"/>
<text text-anchor="middle" x="797.98" y="-331.46" font-family="sans-serif" font-size="12.00"> &#160;&#160;&#160;&#160;&#160;&#160;&#160;&#160;&#160;&#160;&#160;&#160;&#160;&#160;&#160;&#160;&#160;&#160;&#160;&#160;&#160;&#160;&#160;&#160;&#160;&#160;&#160;&#160;&#160;&#160;&#160;&#160;&#160;&#160;&#160;&#160;&#160;&#160;&#160;</text>
<polygon fill="white" stroke="transparent" points="488.25,-42.07 488.25,-61.07 504.25,-61.07 504.25,-42.07 488.25,-42.07"/>
<polyline fill="none" stroke="black" points="504.25,-42.07 504.25,-61.07 "/>
<text text-anchor="start" x="491.25" y="-48.47" font-family="sans-serif" font-size="12.00">D</text>
<polygon fill="white" stroke="transparent" points="504.25,-42.07 504.25,-61.07 534.25,-61.07 534.25,-42.07 504.25,-42.07"/>
<polygon fill="none" stroke="black" points="504.25,-42.07 504.25,-61.07 534.25,-61.07 534.25,-42.07 504.25,-42.07"/>
<text text-anchor="start" x="507.25" y="-48.47" font-family="sans-serif" font-size="12.00">ACL</text>
<polygon fill="white" stroke="transparent" points="628.59,-581.42 628.59,-598.42 642.59,-598.42 642.59,-581.42 628.59,-581.42"/>
<text text-anchor="start" x="630.59" y="-586.82" font-family="sans-serif" font-size="12.00">U</text>
</g>
<!-- Production -->
<g id="node3" class="node">
<title>Production</title>
<polygon fill="none" stroke="black" stroke-width="2" points="120.38,-327.94 121.2,-325.09 122.26,-322.28 123.57,-319.51 125.12,-316.8 126.89,-314.16 128.9,-311.61 131.14,-309.14 133.58,-306.77 136.24,-304.51 139.1,-302.36 142.16,-300.34 145.4,-298.45 148.82,-296.7 152.41,-295.09 156.15,-293.62 160.04,-292.31 164.07,-291.14 168.23,-290.14 172.5,-289.28 176.87,-288.59 181.33,-288.05 185.88,-287.66 190.49,-287.43 195.15,-287.35 199.86,-287.41 204.6,-287.62 209.36,-287.97 214.12,-288.45 218.88,-289.05 223.61,-289.78 228.32,-290.63 232.97,-291.59 237.57,-292.65 242.1,-293.81 246.55,-295.06 250.91,-296.4 255.16,-297.81 259.29,-299.29 263.3,-300.84 267.17,-302.45 270.89,-304.1 274.45,-305.81 277.84,-307.55 281.05,-309.34 284.08,-311.15 286.91,-312.99 289.54,-314.85 291.96,-316.73 294.17,-318.62 296.15,-320.53 297.9,-322.44 299.41,-324.36 300.69,-326.29 301.73,-328.21 302.52,-330.14 303.07,-332.07 303.36,-333.99 303.4,-335.91 303.19,-337.82 302.73,-339.72 302.02,-341.62 301.06,-343.51 299.85,-345.38 298.4,-347.25 296.7,-349.1 294.77,-350.93 292.61,-352.75 290.23,-354.54 287.62,-356.32 284.8,-358.07 281.78,-359.79 278.56,-361.47 275.15,-363.12 271.57,-364.74 267.81,-366.3 263.9,-367.82 259.84,-369.28 255.64,-370.69 251.32,-372.03 246.88,-373.3 242.34,-374.49 237.72,-375.6 233.02,-376.62 228.26,-377.54 223.46,-378.37 218.62,-379.09 213.75,-379.7 208.88,-380.19 204.02,-380.56 199.18,-380.8 194.37,-380.9 189.61,-380.87 184.92,-380.7 180.29,-380.38 175.76,-379.92 171.32,-379.31 167,-378.55 162.81,-377.64 158.75,-376.58 154.83,-375.37 151.08,-374.02 147.5,-372.51 144.1,-370.87 140.88,-369.09 137.87,-367.17 135.06,-365.13 132.46,-362.97 130.08,-360.69 127.93,-358.31 126.01,-355.83 124.33,-353.27 122.9,-350.62 121.7,-347.91 120.76,-345.14 120.07,-342.32 119.63,-339.47 119.44,-336.59 119.5,-333.71 119.82,-330.82 120.38,-327.94"/>
<text text-anchor="middle" x="211.48" y="-330.76" font-family="sans-serif" font-size="16.00">Production</text>
</g>
<!-- ProductionPlanning&#45;&gt;Production -->
<g id="edge4" class="edge">
<title>ProductionPlanning&#45;&gt;Production</title>
<path fill="none" stroke="black" stroke-width="2" d="M254.94,-449.15C238.22,-440.13 223.13,-428.27 212.48,-412.67 206.14,-403.38 203.85,-391.88 203.64,-380.63"/>
<text text-anchor="middle" x="287.98" y="-403.07" font-family="sans-serif" font-size="12.00"> &#160;&#160;&#160;&#160;&#160;&#160;&#160;&#160;&#160;&#160;&#160;&#160;&#160;&#160;&#160;&#160;&#160;&#160;&#160;&#160;&#160;&#160;&#160;&#160;&#160;&#160;&#160;&#160;&#160;&#160;&#160;&#160;&#160;&#160;&#160;&#160;&#160;&#160;&#160;</text>
<polygon fill="white" stroke="transparent" points="184.64,-370.63 184.64,-389.63 200.64,-389.63 200.64,-370.63 184.64,-370.63"/>
<polyline fill="none" stroke="black" points="200.64,-370.63 200.64,-389.63 "/>
<text text-anchor="start" x="187.64" y="-377.03" font-family="sans-serif" font-size="12.00">D</text>
<polygon fill="white" stroke="transparent" points="200.64,-370.63 200.64,-389.63 222.64,-389.63 222.64,-370.63 200.64,-370.63"/>
<polygon fill="none" stroke="black" points="200.64,-370.63 200.64,-389.63 222.64,-389.63 222.64,-370.63 200.64,-370.63"/>
<text text-anchor="start" x="203.64" y="-377.03" font-family="sans-serif" font-size="12.00">CF</text>
<polygon fill="white" stroke="transparent" points="247.94,-440.15 247.94,-457.15 261.94,-457.15 261.94,-440.15 247.94,-440.15"/>
<text text-anchor="start" x="249.94" y="-445.55" font-family="sans-serif" font-size="12.00">U</text>
</g>
<!-- Production&#45;&gt;Stocking -->
<g id="edge5" class="edge">
<title>Production&#45;&gt;Stocking</title>
<path fill="none" stroke="black" stroke-width="2" d="M203.63,-287.25C203.98,-276.39 206.33,-265.39 212.48,-256.46 233.18,-226.35 270.07,-210.05 303.73,-201.22"/>
<text text-anchor="middle" x="287.98" y="-259.86" font-family="sans-serif" font-size="12.00"> &#160;&#160;&#160;&#160;&#160;&#160;&#160;&#160;&#160;&#160;&#160;&#160;&#160;&#160;&#160;&#160;&#160;&#160;&#160;&#160;&#160;&#160;&#160;&#160;&#160;&#160;&#160;&#160;&#160;&#160;&#160;&#160;&#160;&#160;&#160;&#160;&#160;&#160;&#160;</text>
<polygon fill="white" stroke="transparent" points="284.73,-191.22 284.73,-210.22 300.73,-210.22 300.73,-191.22 284.73,-191.22"/>
<polyline fill="none" stroke="black" points="300.73,-191.22 300.73,-210.22 "/>
<text text-anchor="start" x="287.73" y="-197.62" font-family="sans-serif" font-size="12.00">D</text>
<polygon fill="white" stroke="transparent" points="300.73,-191.22 300.73,-210.22 322.73,-210.22 322.73,-191.22 300.73,-191.22"/>
<polygon fill="none" stroke="black" points="300.73,-191.22 300.73,-210.22 322.73,-210.22 322.73,-191.22 300.73,-191.22"/>
<text text-anchor="start" x="303.73" y="-197.62" font-family="sans-serif" font-size="12.00">CF</text>
<polygon fill="white" stroke="transparent" points="196.63,-278.25 196.63,-295.25 210.63,-295.25 210.63,-278.25 196.63,-278.25"/>
<text text-anchor="start" x="198.63" y="-283.65" font-family="sans-serif" font-size="12.00">U</text>
</g>
<!-- Restocking -->
<g id="node5" class="node">
<title>Restocking</title>
<polygon fill="none" stroke="black" stroke-width="2" points="38.94,-221.52 34.45,-219.58 30.18,-217.56 26.12,-215.47 22.31,-213.32 18.75,-211.11 15.47,-208.87 12.48,-206.59 9.78,-204.28 7.39,-201.95 5.33,-199.61 3.59,-197.26 2.19,-194.92 1.13,-192.59 0.41,-190.27 0.04,-187.97 0.02,-185.7 0.35,-183.47 1.01,-181.27 2.02,-179.12 3.35,-177.02 5.01,-174.97 6.99,-172.98 9.27,-171.05 11.84,-169.18 14.69,-167.38 17.81,-165.65 21.18,-164 24.79,-162.41 28.62,-160.91 32.64,-159.48 36.86,-158.13 41.23,-156.86 45.76,-155.67 50.41,-154.57 55.18,-153.55 60.04,-152.61 64.97,-151.76 69.95,-151 74.98,-150.32 80.02,-149.73 85.07,-149.23 90.11,-148.81 95.12,-148.49 100.09,-148.25 105.01,-148.11 109.86,-148.05 114.63,-148.09 119.31,-148.22 123.88,-148.44 128.35,-148.76 132.7,-149.17 136.93,-149.68 141.02,-150.28 144.98,-150.97 148.79,-151.77 152.45,-152.65 155.97,-153.64 159.33,-154.72 162.53,-155.89 165.58,-157.16 168.46,-158.52 171.19,-159.97 173.75,-161.52 176.14,-163.15 178.38,-164.86 180.45,-166.66 182.35,-168.54 184.08,-170.5 185.65,-172.53 187.05,-174.63 188.29,-176.79 189.35,-179.01 190.24,-181.28 190.95,-183.6 191.49,-185.96 191.85,-188.35 192.04,-190.77 192.03,-193.21 191.85,-195.66 191.47,-198.11 190.91,-200.56 190.14,-203 189.19,-205.41 188.03,-207.8 186.67,-210.14 185.1,-212.44 183.33,-214.69 181.35,-216.87 179.15,-218.97 176.75,-220.99 174.14,-222.93 171.31,-224.77 168.28,-226.5 165.04,-228.12 161.6,-229.63 157.96,-231.01 154.12,-232.26 150.09,-233.38 145.88,-234.35 141.5,-235.19 136.96,-235.88 132.26,-236.41 127.42,-236.8 122.45,-237.04 117.36,-237.12 112.17,-237.05 106.9,-236.83 101.56,-236.45 96.16,-235.93 90.73,-235.26 85.29,-234.45 79.85,-233.5 74.44,-232.41 69.07,-231.2 63.76,-229.86 58.54,-228.4 53.43,-226.83 48.44,-225.16 43.61,-223.39 38.94,-221.52"/>
<text text-anchor="middle" x="103.48" y="-185.99" font-family="sans-serif" font-size="16.00">Restocking</text>
</g>
<!-- Production&#45;&gt;Restocking -->
<g id="edge6" class="edge">
<title>Production&#45;&gt;Restocking</title>
<path fill="none" stroke="black" stroke-width="2" d="M122.42,-321.9C90.55,-312.96 57.78,-297.19 38.48,-269.46 28.16,-254.62 36.38,-239.12 50.01,-225.84"/>
<text text-anchor="middle" x="113.98" y="-259.86" font-family="sans-serif" font-size="12.00"> &#160;&#160;&#160;&#160;&#160;&#160;&#160;&#160;&#160;&#160;&#160;&#160;&#160;&#160;&#160;&#160;&#160;&#160;&#160;&#160;&#160;&#160;&#160;&#160;&#160;&#160;&#160;&#160;&#160;&#160;&#160;&#160;&#160;&#160;&#160;&#160;&#160;&#160;&#160;</text>
<polygon fill="white" stroke="transparent" points="43.01,-216.84 43.01,-233.84 57.01,-233.84 57.01,-216.84 43.01,-216.84"/>
<text text-anchor="start" x="45.01" y="-222.24" font-family="sans-serif" font-size="12.00">D</text>
<polygon fill="white" stroke="transparent" points="87.42,-311.9 87.42,-330.9 103.42,-330.9 103.42,-311.9 87.42,-311.9"/>
<polyline fill="none" stroke="black" points="103.42,-311.9 103.42,-330.9 "/>
<text text-anchor="start" x="90.42" y="-318.3" font-family="sans-serif" font-size="12.00">U</text>
<polygon fill="white" stroke="transparent" points="103.42,-311.9 103.42,-330.9 158.42,-330.9 158.42,-311.9 103.42,-311.9"/>
<polygon fill="none" stroke="black" points="103.42,-311.9 103.42,-330.9 158.42,-330.9 158.42,-311.9 103.42,-311.9"/>
<text text-anchor="start" x="106.42" y="-318.3" font-family="sans-serif" font-size="12.00">OHS, PL</text>
</g>
<!-- Stocking&#45;&gt;ProductionPlanning -->
<g id="edge7" class="edge">
<title>Stocking&#45;&gt;ProductionPlanning</title>
<path fill="none" stroke="black" stroke-width="2" d="M376.64,-238.62C375.68,-294.09 374.1,-384.59 373.19,-436.88"/>
<text text-anchor="middle" x="451.98" y="-331.46" font-family="sans-serif" font-size="12.00"> &#160;&#160;&#160;&#160;&#160;&#160;&#160;&#160;&#160;&#160;&#160;&#160;&#160;&#160;&#160;&#160;&#160;&#160;&#160;&#160;&#160;&#160;&#160;&#160;&#160;&#160;&#160;&#160;&#160;&#160;&#160;&#160;&#160;&#160;&#160;&#160;&#160;&#160;&#160;</text>
<polygon fill="white" stroke="transparent" points="350.19,-426.88 350.19,-445.88 366.19,-445.88 366.19,-426.88 350.19,-426.88"/>
<polyline fill="none" stroke="black" points="366.19,-426.88 366.19,-445.88 "/>
<text text-anchor="start" x="353.19" y="-433.28" font-family="sans-serif" font-size="12.00">D</text>
<polygon fill="white" stroke="transparent" points="366.19,-426.88 366.19,-445.88 396.19,-445.88 396.19,-426.88 366.19,-426.88"/>
<polygon fill="none" stroke="black" points="366.19,-426.88 366.19,-445.88 396.19,-445.88 396.19,-426.88 366.19,-426.88"/>
<text text-anchor="start" x="369.19" y="-433.28" font-family="sans-serif" font-size="12.00">ACL</text>
<polygon fill="white" stroke="transparent" points="369.64,-229.62 369.64,-246.62 383.64,-246.62 383.64,-229.62 369.64,-229.62"/>
<text text-anchor="start" x="371.64" y="-235.02" font-family="sans-serif" font-size="12.00">U</text>
</g>
<!-- Restocking&#45;&gt;MilkPlanning -->
<g id="edge8" class="edge">
<title>Restocking&#45;&gt;MilkPlanning</title>
<path fill="none" stroke="black" stroke-width="2" d="M169.22,-158.73C221.21,-134.96 293.51,-101.91 345.96,-77.93"/>
<text text-anchor="middle" x="343.98" y="-113.52" font-family="sans-serif" font-size="12.00"> &#160;&#160;&#160;&#160;&#160;&#160;&#160;&#160;&#160;&#160;&#160;&#160;&#160;&#160;&#160;&#160;&#160;&#160;&#160;&#160;&#160;&#160;&#160;&#160;&#160;&#160;&#160;&#160;&#160;&#160;&#160;&#160;&#160;&#160;&#160;&#160;&#160;&#160;&#160;</text>
<polygon fill="white" stroke="transparent" points="322.96,-67.93 322.96,-86.93 338.96,-86.93 338.96,-67.93 322.96,-67.93"/>
<polyline fill="none" stroke="black" points="338.96,-67.93 338.96,-86.93 "/>
<text text-anchor="start" x="325.96" y="-74.33" font-family="sans-serif" font-size="12.00">D</text>
<polygon fill="white" stroke="transparent" points="338.96,-67.93 338.96,-86.93 368.96,-86.93 368.96,-67.93 338.96,-67.93"/>
<polygon fill="none" stroke="black" points="338.96,-67.93 338.96,-86.93 368.96,-86.93 368.96,-67.93 338.96,-67.93"/>
<text text-anchor="start" x="341.96" y="-74.33" font-family="sans-serif" font-size="12.00">ACL</text>
<polygon fill="white" stroke="transparent" points="162.22,-149.73 162.22,-166.73 176.22,-166.73 176.22,-149.73 162.22,-149.73"/>
<text text-anchor="start" x="164.22" y="-155.13" font-family="sans-serif" font-size="12.00">U</text>
</g>
</g>
</svg>
