<svg width="2000px" height="2409px"
 viewBox="0.00 0.00 680.33 818.51" xmlns="http://www.w3.org/2000/svg" xmlns:xlink="http://www.w3.org/1999/xlink">
<g id="graph0" class="graph" transform="scale(1.0 1.0) rotate(0) translate(4 814.51)">
<title>ContextMapGraph</title>
<polygon fill="white" stroke="transparent" points="-4,4 -4,-814.51 676.33,-814.51 676.33,4 -4,4"/>
<!-- ClientOrders -->
<g id="node1" class="node">
<title>ClientOrders</title>
<polygon fill="none" stroke="black" stroke-width="2" points="393.67,-727.41 399.37,-728.92 404.88,-730.53 410.17,-732.22 415.24,-734 420.05,-735.85 424.59,-737.76 428.83,-739.74 432.77,-741.77 436.37,-743.85 439.64,-745.97 442.56,-748.12 445.12,-750.3 447.3,-752.51 449.1,-754.73 450.53,-756.96 451.56,-759.19 452.21,-761.42 452.47,-763.64 452.35,-765.85 451.85,-768.04 450.98,-770.2 449.74,-772.34 448.15,-774.45 446.21,-776.52 443.94,-778.54 441.35,-780.53 438.46,-782.46 435.29,-784.34 431.84,-786.17 428.14,-787.94 424.21,-789.65 420.06,-791.29 415.72,-792.86 411.2,-794.37 406.52,-795.8 401.71,-797.16 396.78,-798.44 391.75,-799.64 386.64,-800.76 381.47,-801.79 376.26,-802.74 371.02,-803.6 365.76,-804.37 360.52,-805.05 355.29,-805.63 350.09,-806.12 344.94,-806.51 339.84,-806.8 334.81,-806.99 329.86,-807.08 324.99,-807.07 320.22,-806.95 315.54,-806.73 310.97,-806.39 306.51,-805.96 302.17,-805.41 297.95,-804.76 293.85,-804 289.87,-803.13 286.03,-802.15 282.31,-801.07 278.73,-799.89 275.29,-798.6 271.98,-797.21 268.8,-795.72 265.77,-794.13 262.89,-792.45 260.14,-790.68 257.55,-788.82 255.1,-786.88 252.81,-784.86 250.68,-782.77 248.71,-780.62 246.9,-778.4 245.27,-776.12 243.81,-773.8 242.53,-771.43 241.45,-769.03 240.55,-766.6 239.86,-764.15 239.38,-761.69 239.11,-759.22 239.07,-756.76 239.25,-754.31 239.67,-751.87 240.33,-749.47 241.24,-747.1 242.4,-744.78 243.82,-742.51 245.5,-740.3 247.45,-738.16 249.67,-736.1 252.16,-734.12 254.93,-732.23 257.96,-730.44 261.27,-728.75 264.85,-727.17 268.68,-725.71 272.78,-724.37 277.12,-723.16 281.71,-722.07 286.53,-721.12 291.57,-720.31 296.82,-719.63 302.26,-719.09 307.88,-718.69 313.65,-718.44 319.58,-718.33 325.62,-718.36 331.76,-718.53 337.99,-718.84 344.27,-719.29 350.58,-719.87 356.91,-720.58 363.22,-721.43 369.49,-722.39 375.69,-723.48 381.81,-724.68 387.81,-725.99 393.67,-727.41"/>
<text text-anchor="middle" x="338.33" y="-760.65" font-family="sans-serif" font-size="16.00">ClientOrders</text>
</g>
<!-- Stocking -->
<g id="node2" class="node">
<title>Stocking</title>
<polygon fill="none" stroke="black" stroke-width="2" points="252.22,-615.54 252.97,-618.39 253.5,-621.24 253.79,-624.08 253.86,-626.89 253.7,-629.67 253.3,-632.4 252.67,-635.07 251.8,-637.68 250.71,-640.21 249.39,-642.65 247.84,-645 246.07,-647.25 244.08,-649.39 241.88,-651.41 239.47,-653.32 236.86,-655.1 234.06,-656.75 231.08,-658.27 227.92,-659.65 224.6,-660.9 221.12,-662.01 217.49,-662.98 213.74,-663.81 209.86,-664.5 205.87,-665.06 201.78,-665.49 197.61,-665.79 193.36,-665.95 189.06,-665.99 184.71,-665.92 180.33,-665.72 175.94,-665.41 171.54,-665 167.14,-664.48 162.78,-663.86 158.44,-663.15 154.16,-662.35 149.94,-661.47 145.79,-660.51 141.73,-659.47 137.77,-658.36 133.92,-657.19 130.19,-655.96 126.59,-654.67 123.13,-653.32 119.82,-651.92 116.67,-650.48 113.69,-648.99 110.89,-647.45 108.26,-645.88 105.82,-644.27 103.58,-642.62 101.54,-640.93 99.69,-639.21 98.06,-637.46 96.63,-635.68 95.41,-633.87 94.41,-632.03 93.62,-630.16 93.05,-628.26 92.69,-626.34 92.55,-624.4 92.62,-622.43 92.9,-620.44 93.39,-618.44 94.09,-616.42 94.99,-614.38 96.08,-612.34 97.38,-610.28 98.87,-608.23 100.54,-606.17 102.39,-604.12 104.42,-602.08 106.63,-600.06 108.99,-598.05 111.51,-596.08 114.19,-594.13 117.01,-592.22 119.97,-590.36 123.05,-588.56 126.27,-586.81 129.59,-585.13 133.02,-583.53 136.56,-582.01 140.18,-580.58 143.88,-579.24 147.66,-578.02 151.51,-576.9 155.41,-575.91 159.36,-575.04 163.34,-574.3 167.36,-573.7 171.39,-573.25 175.43,-572.94 179.48,-572.79 183.51,-572.79 187.53,-572.95 191.51,-573.27 195.46,-573.76 199.36,-574.41 203.19,-575.22 206.96,-576.19 210.65,-577.33 214.25,-578.62 217.75,-580.06 221.14,-581.66 224.41,-583.4 227.56,-585.28 230.56,-587.29 233.43,-589.42 236.13,-591.67 238.67,-594.03 241.04,-596.49 243.23,-599.03 245.24,-601.65 247.05,-604.34 248.66,-607.09 250.06,-609.87 251.25,-612.7 252.22,-615.54"/>
<text text-anchor="middle" x="172.33" y="-617.39" font-family="sans-serif" font-size="16.00">Stocking</text>
</g>
<!-- ClientOrders&#45;&gt;Stocking -->
<g id="edge1" class="edge">
<title>ClientOrders&#45;&gt;Stocking</title>
<path fill="none" stroke="black" stroke-width="2" d="M240.96,-747.15C214.77,-737.86 189.3,-723.27 173.33,-700.39 166.11,-690.03 164,-676.88 164.25,-664.33"/>
<text text-anchor="middle" x="248.83" y="-690.79" font-family="sans-serif" font-size="12.00"> &#160;&#160;&#160;&#160;&#160;&#160;&#160;&#160;&#160;&#160;&#160;&#160;&#160;&#160;&#160;&#160;&#160;&#160;&#160;&#160;&#160;&#160;&#160;&#160;&#160;&#160;&#160;&#160;&#160;&#160;&#160;&#160;&#160;&#160;&#160;&#160;&#160;&#160;&#160;</text>
<polygon fill="white" stroke="transparent" points="141.25,-654.33 141.25,-673.33 157.25,-673.33 157.25,-654.33 141.25,-654.33"/>
<polyline fill="none" stroke="black" points="157.25,-654.33 157.25,-673.33 "/>
<text text-anchor="start" x="144.25" y="-660.73" font-family="sans-serif" font-size="12.00">D</text>
<polygon fill="white" stroke="transparent" points="157.25,-654.33 157.25,-673.33 187.25,-673.33 187.25,-654.33 157.25,-654.33"/>
<polygon fill="none" stroke="black" points="157.25,-654.33 157.25,-673.33 187.25,-673.33 187.25,-654.33 157.25,-654.33"/>
<text text-anchor="start" x="160.25" y="-660.73" font-family="sans-serif" font-size="12.00">ACL</text>
<polygon fill="white" stroke="transparent" points="233.96,-738.15 233.96,-755.15 247.96,-755.15 247.96,-738.15 233.96,-738.15"/>
<text text-anchor="start" x="235.96" y="-743.55" font-family="sans-serif" font-size="12.00">U</text>
</g>
<!-- ProductionPlanning -->
<g id="node3" class="node">
<title>ProductionPlanning</title>
<polygon fill="none" stroke="black" stroke-width="2" points="431.68,-444.52 438.61,-446.42 445.23,-448.4 451.51,-450.45 457.43,-452.57 462.96,-454.73 468.08,-456.95 472.77,-459.2 477,-461.48 480.76,-463.78 484.03,-466.1 486.81,-468.42 489.07,-470.75 490.81,-473.07 492.03,-475.37 492.72,-477.66 492.89,-479.92 492.52,-482.15 491.63,-484.35 490.23,-486.5 488.32,-488.61 485.91,-490.67 483.02,-492.67 479.66,-494.61 475.85,-496.5 471.61,-498.31 466.97,-500.06 461.93,-501.74 456.54,-503.35 450.81,-504.89 444.76,-506.34 438.43,-507.72 431.85,-509.03 425.03,-510.25 418.02,-511.39 410.83,-512.44 403.5,-513.41 396.05,-514.3 388.51,-515.11 380.91,-515.82 373.27,-516.45 365.62,-517 357.98,-517.45 350.37,-517.82 342.83,-518.09 335.36,-518.28 327.99,-518.37 320.74,-518.37 313.62,-518.28 306.64,-518.09 299.83,-517.81 293.19,-517.44 286.74,-516.97 280.48,-516.4 274.43,-515.74 268.58,-514.98 262.96,-514.13 257.56,-513.18 252.39,-512.13 247.45,-510.98 242.75,-509.74 238.29,-508.41 234.06,-506.98 230.08,-505.46 226.34,-503.86 222.85,-502.16 219.6,-500.38 216.6,-498.52 213.85,-496.59 211.35,-494.58 209.1,-492.5 207.1,-490.35 205.37,-488.15 203.88,-485.89 202.67,-483.58 201.71,-481.23 201.03,-478.85 200.61,-476.44 200.48,-474.01 200.62,-471.56 201.05,-469.11 201.78,-466.66 202.8,-464.23 204.12,-461.81 205.74,-459.42 207.68,-457.07 209.93,-454.77 212.5,-452.51 215.39,-450.33 218.6,-448.21 222.14,-446.17 226.01,-444.22 230.2,-442.36 234.71,-440.61 239.55,-438.96 244.7,-437.44 250.16,-436.03 255.92,-434.75 261.98,-433.6 268.32,-432.6 274.94,-431.73 281.81,-431 288.93,-430.43 296.27,-430 303.81,-429.73 311.54,-429.6 319.44,-429.63 327.47,-429.81 335.61,-430.14 343.85,-430.62 352.14,-431.24 360.47,-432 368.79,-432.91 377.09,-433.95 385.32,-435.11 393.46,-436.41 401.48,-437.82 409.34,-439.34 417.02,-440.97 424.48,-442.7 431.68,-444.52"/>
<text text-anchor="middle" x="335.33" y="-472.89" font-family="sans-serif" font-size="16.00">ProductionPlanning</text>
</g>
<!-- ClientOrders&#45;&gt;ProductionPlanning -->
<g id="edge2" class="edge">
<title>ClientOrders&#45;&gt;ProductionPlanning</title>
<path fill="none" stroke="black" stroke-width="2" d="M337.87,-718.8C337.29,-663.86 336.32,-571.36 335.76,-518.33"/>
<text text-anchor="middle" x="412.83" y="-618.09" font-family="sans-serif" font-size="12.00"> &#160;&#160;&#160;&#160;&#160;&#160;&#160;&#160;&#160;&#160;&#160;&#160;&#160;&#160;&#160;&#160;&#160;&#160;&#160;&#160;&#160;&#160;&#160;&#160;&#160;&#160;&#160;&#160;&#160;&#160;&#160;&#160;&#160;&#160;&#160;&#160;&#160;&#160;&#160;</text>
<polygon fill="white" stroke="transparent" points="312.76,-508.33 312.76,-527.33 328.76,-527.33 328.76,-508.33 312.76,-508.33"/>
<polyline fill="none" stroke="black" points="328.76,-508.33 328.76,-527.33 "/>
<text text-anchor="start" x="315.76" y="-514.73" font-family="sans-serif" font-size="12.00">D</text>
<polygon fill="white" stroke="transparent" points="328.76,-508.33 328.76,-527.33 358.76,-527.33 358.76,-508.33 328.76,-508.33"/>
<polygon fill="none" stroke="black" points="328.76,-508.33 328.76,-527.33 358.76,-527.33 358.76,-508.33 328.76,-508.33"/>
<text text-anchor="start" x="331.76" y="-514.73" font-family="sans-serif" font-size="12.00">ACL</text>
<polygon fill="white" stroke="transparent" points="330.87,-709.8 330.87,-726.8 344.87,-726.8 344.87,-709.8 330.87,-709.8"/>
<text text-anchor="start" x="332.87" y="-715.2" font-family="sans-serif" font-size="12.00">U</text>
</g>
<!-- MilkPlanning -->
<g id="node6" class="node">
<title>MilkPlanning</title>
<polygon fill="none" stroke="black" stroke-width="2" points="365.58,-17.09 370.37,-15.05 375.33,-13.11 380.45,-11.28 385.69,-9.57 391.05,-7.98 396.5,-6.51 402.03,-5.19 407.61,-4 413.22,-2.96 418.85,-2.07 424.48,-1.34 430.1,-0.76 435.67,-0.35 441.2,-0.09 446.66,-0 452.04,-0.07 457.33,-0.3 462.51,-0.69 467.57,-1.24 472.5,-1.94 477.3,-2.79 481.95,-3.78 486.44,-4.92 490.76,-6.2 494.92,-7.6 498.9,-9.12 502.7,-10.76 506.31,-12.51 509.74,-14.36 512.97,-16.3 516.01,-18.33 518.85,-20.43 521.48,-22.59 523.92,-24.82 526.16,-27.09 528.19,-29.4 530.01,-31.75 531.63,-34.12 533.04,-36.5 534.25,-38.89 535.24,-41.28 536.03,-43.66 536.61,-46.02 536.97,-48.36 537.13,-50.68 537.07,-52.95 536.79,-55.19 536.3,-57.38 535.59,-59.53 534.67,-61.61 533.53,-63.64 532.16,-65.61 530.58,-67.51 528.77,-69.34 526.75,-71.1 524.5,-72.79 522.03,-74.41 519.34,-75.95 516.43,-77.41 513.31,-78.8 509.97,-80.1 506.42,-81.33 502.66,-82.48 498.7,-83.55 494.54,-84.54 490.19,-85.45 485.65,-86.27 480.95,-87.02 476.07,-87.69 471.05,-88.27 465.87,-88.77 460.57,-89.19 455.15,-89.53 449.62,-89.79 444,-89.96 438.31,-90.04 432.57,-90.04 426.79,-89.96 420.98,-89.78 415.18,-89.52 409.39,-89.17 403.64,-88.73 397.95,-88.19 392.34,-87.57 386.83,-86.85 381.44,-86.03 376.19,-85.12 371.1,-84.11 366.19,-83.01 361.48,-81.81 357,-80.52 352.75,-79.13 348.75,-77.64 345.03,-76.06 341.6,-74.4 338.46,-72.64 335.65,-70.79 333.15,-68.86 331,-66.85 329.19,-64.77 327.74,-62.61 326.64,-60.38 325.91,-58.1 325.55,-55.75 325.55,-53.36 325.92,-50.93 326.65,-48.46 327.74,-45.97 329.19,-43.45 330.99,-40.93 333.13,-38.4 335.59,-35.88 338.37,-33.37 341.46,-30.89 344.85,-28.45 348.5,-26.05 352.42,-23.71 356.59,-21.42 360.98,-19.21 365.58,-17.09"/>
<text text-anchor="middle" x="438.33" y="-44.7" font-family="sans-serif" font-size="16.00">MilkPlanning</text>
</g>
<!-- ClientOrders&#45;&gt;MilkPlanning -->
<g id="edge3" class="edge">
<title>ClientOrders&#45;&gt;MilkPlanning</title>
<path fill="none" stroke="black" stroke-width="2" d="M420.2,-735.9C468.93,-713.76 521.33,-677.17 521.33,-622.19 521.33,-622.19 521.33,-622.19 521.33,-188.86 521.33,-155.45 523.34,-144.33 507.33,-115 501.72,-104.7 493.91,-95.08 485.56,-86.55"/>
<text text-anchor="middle" x="596.83" y="-401.8" font-family="sans-serif" font-size="12.00"> &#160;&#160;&#160;&#160;&#160;&#160;&#160;&#160;&#160;&#160;&#160;&#160;&#160;&#160;&#160;&#160;&#160;&#160;&#160;&#160;&#160;&#160;&#160;&#160;&#160;&#160;&#160;&#160;&#160;&#160;&#160;&#160;&#160;&#160;&#160;&#160;&#160;&#160;&#160;</text>
<polygon fill="white" stroke="transparent" points="462.56,-76.55 462.56,-95.55 478.56,-95.55 478.56,-76.55 462.56,-76.55"/>
<polyline fill="none" stroke="black" points="478.56,-76.55 478.56,-95.55 "/>
<text text-anchor="start" x="465.56" y="-82.95" font-family="sans-serif" font-size="12.00">D</text>
<polygon fill="white" stroke="transparent" points="478.56,-76.55 478.56,-95.55 508.56,-95.55 508.56,-76.55 478.56,-76.55"/>
<polygon fill="none" stroke="black" points="478.56,-76.55 478.56,-95.55 508.56,-95.55 508.56,-76.55 478.56,-76.55"/>
<text text-anchor="start" x="481.56" y="-82.95" font-family="sans-serif" font-size="12.00">ACL</text>
<polygon fill="white" stroke="transparent" points="413.2,-726.9 413.2,-743.9 427.2,-743.9 427.2,-726.9 413.2,-726.9"/>
<text text-anchor="start" x="415.2" y="-732.3" font-family="sans-serif" font-size="12.00">U</text>
</g>
<!-- Stocking&#45;&gt;ProductionPlanning -->
<g id="edge4" class="edge">
<title>Stocking&#45;&gt;ProductionPlanning</title>
<path fill="none" stroke="black" stroke-width="2" d="M164.33,-574.04C164.59,-562.75 166.94,-551.27 173.33,-541.99 185.43,-524.42 203.15,-511.65 222.48,-502.37"/>
<text text-anchor="middle" x="248.83" y="-545.39" font-family="sans-serif" font-size="12.00"> &#160;&#160;&#160;&#160;&#160;&#160;&#160;&#160;&#160;&#160;&#160;&#160;&#160;&#160;&#160;&#160;&#160;&#160;&#160;&#160;&#160;&#160;&#160;&#160;&#160;&#160;&#160;&#160;&#160;&#160;&#160;&#160;&#160;&#160;&#160;&#160;&#160;&#160;&#160;</text>
<polygon fill="white" stroke="transparent" points="199.48,-492.37 199.48,-511.37 215.48,-511.37 215.48,-492.37 199.48,-492.37"/>
<polyline fill="none" stroke="black" points="215.48,-492.37 215.48,-511.37 "/>
<text text-anchor="start" x="202.48" y="-498.77" font-family="sans-serif" font-size="12.00">D</text>
<polygon fill="white" stroke="transparent" points="215.48,-492.37 215.48,-511.37 245.48,-511.37 245.48,-492.37 215.48,-492.37"/>
<polygon fill="none" stroke="black" points="215.48,-492.37 215.48,-511.37 245.48,-511.37 245.48,-492.37 215.48,-492.37"/>
<text text-anchor="start" x="218.48" y="-498.77" font-family="sans-serif" font-size="12.00">ACL</text>
<polygon fill="white" stroke="transparent" points="157.33,-565.04 157.33,-582.04 171.33,-582.04 171.33,-565.04 157.33,-565.04"/>
<text text-anchor="start" x="159.33" y="-570.44" font-family="sans-serif" font-size="12.00">U</text>
</g>
<!-- Production -->
<g id="node4" class="node">
<title>Production</title>
<polygon fill="none" stroke="black" stroke-width="2" points="422.57,-317.77 424.55,-320.48 426.27,-323.2 427.73,-325.93 428.92,-328.66 429.84,-331.39 430.48,-334.09 430.84,-336.76 430.91,-339.38 430.69,-341.96 430.18,-344.48 429.38,-346.93 428.28,-349.3 426.91,-351.59 425.25,-353.8 423.31,-355.9 421.09,-357.91 418.62,-359.81 415.88,-361.59 412.89,-363.27 409.66,-364.83 406.21,-366.27 402.53,-367.59 398.65,-368.79 394.58,-369.87 390.34,-370.83 385.93,-371.67 381.37,-372.39 376.68,-372.99 371.88,-373.48 366.98,-373.85 362,-374.12 356.95,-374.27 351.86,-374.33 346.73,-374.28 341.59,-374.13 336.45,-373.89 331.34,-373.55 326.26,-373.13 321.23,-372.62 316.27,-372.03 311.4,-371.37 306.62,-370.62 301.95,-369.81 297.4,-368.92 292.99,-367.97 288.73,-366.95 284.63,-365.87 280.7,-364.73 276.94,-363.53 273.38,-362.26 270.01,-360.95 266.84,-359.57 263.88,-358.14 261.13,-356.66 258.6,-355.12 256.29,-353.53 254.21,-351.89 252.36,-350.2 250.73,-348.47 249.34,-346.68 248.17,-344.84 247.24,-342.96 246.54,-341.04 246.06,-339.08 245.81,-337.07 245.79,-335.03 245.99,-332.95 246.4,-330.85 247.04,-328.71 247.89,-326.56 248.94,-324.38 250.21,-322.19 251.67,-319.99 253.33,-317.79 255.18,-315.59 257.22,-313.4 259.45,-311.23 261.85,-309.08 264.42,-306.96 267.16,-304.88 270.06,-302.85 273.12,-300.87 276.33,-298.95 279.68,-297.1 283.17,-295.33 286.79,-293.65 290.54,-292.06 294.4,-290.58 298.37,-289.2 302.45,-287.95 306.62,-286.81 310.88,-285.82 315.22,-284.95 319.63,-284.24 324.1,-283.67 328.62,-283.25 333.18,-282.99 337.77,-282.89 342.38,-282.95 347,-283.18 351.63,-283.58 356.23,-284.13 360.82,-284.86 365.36,-285.74 369.86,-286.79 374.29,-287.99 378.65,-289.34 382.92,-290.85 387.08,-292.49 391.14,-294.28 395.06,-296.19 398.85,-298.22 402.48,-300.37 405.94,-302.62 409.23,-304.97 412.33,-307.4 415.22,-309.91 417.9,-312.48 420.35,-315.1 422.57,-317.77"/>
<text text-anchor="middle" x="335.33" y="-327.76" font-family="sans-serif" font-size="16.00">Production</text>
</g>
<!-- ProductionPlanning&#45;&gt;Production -->
<g id="edge5" class="edge">
<title>ProductionPlanning&#45;&gt;Production</title>
<path fill="none" stroke="black" stroke-width="2" d="M335.33,-430.01C335.33,-412.01 335.33,-391.49 335.33,-373.94"/>
<text text-anchor="middle" x="410.83" y="-401.8" font-family="sans-serif" font-size="12.00"> &#160;&#160;&#160;&#160;&#160;&#160;&#160;&#160;&#160;&#160;&#160;&#160;&#160;&#160;&#160;&#160;&#160;&#160;&#160;&#160;&#160;&#160;&#160;&#160;&#160;&#160;&#160;&#160;&#160;&#160;&#160;&#160;&#160;&#160;&#160;&#160;&#160;&#160;&#160;</text>
<polygon fill="white" stroke="transparent" points="312.33,-363.94 312.33,-382.94 328.33,-382.94 328.33,-363.94 312.33,-363.94"/>
<polyline fill="none" stroke="black" points="328.33,-363.94 328.33,-382.94 "/>
<text text-anchor="start" x="315.33" y="-370.34" font-family="sans-serif" font-size="12.00">D</text>
<polygon fill="white" stroke="transparent" points="328.33,-363.94 328.33,-382.94 358.33,-382.94 358.33,-363.94 328.33,-363.94"/>
<polygon fill="none" stroke="black" points="328.33,-363.94 328.33,-382.94 358.33,-382.94 358.33,-363.94 328.33,-363.94"/>
<text text-anchor="start" x="331.33" y="-370.34" font-family="sans-serif" font-size="12.00">ACL</text>
<polygon fill="white" stroke="transparent" points="328.33,-421.01 328.33,-438.01 342.33,-438.01 342.33,-421.01 328.33,-421.01"/>
<text text-anchor="start" x="330.33" y="-426.41" font-family="sans-serif" font-size="12.00">U</text>
</g>
<!-- Production&#45;&gt;Stocking -->
<g id="edge7" class="edge">
<title>Production&#45;&gt;Stocking</title>
<path fill="none" stroke="black" stroke-width="2" d="M249.45,-346.95C165.11,-363.04 45.16,-391.84 17.33,-429.4 -7.69,-463.18 -3.1,-487.25 17.33,-523.99 36.81,-559 74.89,-582.9 108.42,-598.12"/>
<text text-anchor="middle" x="92.83" y="-473.59" font-family="sans-serif" font-size="12.00"> &#160;&#160;&#160;&#160;&#160;&#160;&#160;&#160;&#160;&#160;&#160;&#160;&#160;&#160;&#160;&#160;&#160;&#160;&#160;&#160;&#160;&#160;&#160;&#160;&#160;&#160;&#160;&#160;&#160;&#160;&#160;&#160;&#160;&#160;&#160;&#160;&#160;&#160;&#160;</text>
<polygon fill="white" stroke="transparent" points="85.42,-588.12 85.42,-607.12 101.42,-607.12 101.42,-588.12 85.42,-588.12"/>
<polyline fill="none" stroke="black" points="101.42,-588.12 101.42,-607.12 "/>
<text text-anchor="start" x="88.42" y="-594.52" font-family="sans-serif" font-size="12.00">D</text>
<polygon fill="white" stroke="transparent" points="101.42,-588.12 101.42,-607.12 131.42,-607.12 131.42,-588.12 101.42,-588.12"/>
<polygon fill="none" stroke="black" points="101.42,-588.12 101.42,-607.12 131.42,-607.12 131.42,-588.12 101.42,-588.12"/>
<text text-anchor="start" x="104.42" y="-594.52" font-family="sans-serif" font-size="12.00">ACL</text>
<polygon fill="white" stroke="transparent" points="242.45,-337.95 242.45,-354.95 256.45,-354.95 256.45,-337.95 242.45,-337.95"/>
<text text-anchor="start" x="244.45" y="-343.35" font-family="sans-serif" font-size="12.00">U</text>
</g>
<!-- Restocking -->
<g id="node5" class="node">
<title>Restocking</title>
<polygon fill="none" stroke="black" stroke-width="2" points="342.9,-233.27 336.83,-232.93 330.83,-232.48 324.93,-231.9 319.15,-231.22 313.52,-230.42 308.05,-229.51 302.77,-228.49 297.69,-227.37 292.84,-226.14 288.24,-224.82 283.89,-223.4 279.82,-221.89 276.03,-220.3 272.55,-218.62 269.37,-216.87 266.51,-215.04 263.97,-213.15 261.76,-211.19 259.87,-209.18 258.32,-207.11 257.1,-205 256.2,-202.84 255.62,-200.66 255.36,-198.44 255.42,-196.2 255.77,-193.95 256.42,-191.68 257.36,-189.41 258.56,-187.14 260.03,-184.87 261.75,-182.62 263.7,-180.39 265.87,-178.19 268.26,-176.01 270.83,-173.88 273.59,-171.79 276.51,-169.74 279.59,-167.75 282.8,-165.82 286.15,-163.95 289.6,-162.16 293.16,-160.43 296.81,-158.79 300.53,-157.23 304.33,-155.76 308.18,-154.39 312.09,-153.1 316.04,-151.92 320.02,-150.84 324.03,-149.87 328.07,-149 332.12,-148.25 336.19,-147.6 340.26,-147.08 344.33,-146.67 348.41,-146.38 352.49,-146.2 356.56,-146.15 360.62,-146.22 364.68,-146.4 368.72,-146.71 372.74,-147.13 376.75,-147.68 380.73,-148.33 384.69,-149.11 388.62,-149.99 392.52,-150.99 396.37,-152.09 400.19,-153.3 403.95,-154.61 407.66,-156.01 411.3,-157.51 414.86,-159.1 418.35,-160.78 421.74,-162.54 425.04,-164.37 428.21,-166.28 431.27,-168.25 434.19,-170.28 436.96,-172.36 439.58,-174.5 442.01,-176.68 444.27,-178.89 446.32,-181.14 448.16,-183.41 449.77,-185.7 451.15,-188 452.28,-190.3 453.14,-192.61 453.74,-194.9 454.05,-197.19 454.07,-199.45 453.79,-201.69 453.2,-203.89 452.3,-206.05 451.08,-208.17 449.54,-210.24 447.69,-212.25 445.51,-214.2 443.01,-216.08 440.19,-217.88 437.07,-219.61 433.64,-221.26 429.91,-222.82 425.9,-224.28 421.61,-225.65 417.06,-226.93 412.27,-228.09 407.25,-229.16 402.02,-230.11 396.6,-230.95 391.01,-231.68 385.27,-232.3 379.4,-232.79 373.43,-233.17 367.38,-233.43 361.28,-233.57 355.15,-233.59 349.01,-233.49 342.9,-233.27"/>
<text text-anchor="middle" x="355.33" y="-186.06" font-family="sans-serif" font-size="16.00">Restocking</text>
</g>
<!-- Production&#45;&gt;Restocking -->
<g id="edge6" class="edge">
<title>Production&#45;&gt;Restocking</title>
<path fill="none" stroke="black" stroke-width="2" d="M342.16,-282.88C344.45,-266.91 346.98,-249.22 349.21,-233.65"/>
<text text-anchor="middle" x="421.83" y="-255.13" font-family="sans-serif" font-size="12.00"> &#160;&#160;&#160;&#160;&#160;&#160;&#160;&#160;&#160;&#160;&#160;&#160;&#160;&#160;&#160;&#160;&#160;&#160;&#160;&#160;&#160;&#160;&#160;&#160;&#160;&#160;&#160;&#160;&#160;&#160;&#160;&#160;&#160;&#160;&#160;&#160;&#160;&#160;&#160;</text>
<polygon fill="white" stroke="transparent" points="326.21,-223.65 326.21,-242.65 342.21,-242.65 342.21,-223.65 326.21,-223.65"/>
<polyline fill="none" stroke="black" points="342.21,-223.65 342.21,-242.65 "/>
<text text-anchor="start" x="329.21" y="-230.05" font-family="sans-serif" font-size="12.00">D</text>
<polygon fill="white" stroke="transparent" points="342.21,-223.65 342.21,-242.65 372.21,-242.65 372.21,-223.65 342.21,-223.65"/>
<polygon fill="none" stroke="black" points="342.21,-223.65 342.21,-242.65 372.21,-242.65 372.21,-223.65 342.21,-223.65"/>
<text text-anchor="start" x="345.21" y="-230.05" font-family="sans-serif" font-size="12.00">ACL</text>
<polygon fill="white" stroke="transparent" points="335.16,-273.88 335.16,-290.88 349.16,-290.88 349.16,-273.88 335.16,-273.88"/>
<text text-anchor="start" x="337.16" y="-279.28" font-family="sans-serif" font-size="12.00">U</text>
</g>
<!-- Restocking&#45;&gt;MilkPlanning -->
<g id="edge8" class="edge">
<title>Restocking&#45;&gt;MilkPlanning</title>
<path fill="none" stroke="black" stroke-width="2" d="M349.69,-145.97C349.95,-135.42 351.71,-124.44 356.33,-115 361.7,-104.03 369.88,-94.32 379.02,-85.96"/>
<text text-anchor="middle" x="431.83" y="-118.4" font-family="sans-serif" font-size="12.00"> &#160;&#160;&#160;&#160;&#160;&#160;&#160;&#160;&#160;&#160;&#160;&#160;&#160;&#160;&#160;&#160;&#160;&#160;&#160;&#160;&#160;&#160;&#160;&#160;&#160;&#160;&#160;&#160;&#160;&#160;&#160;&#160;&#160;&#160;&#160;&#160;&#160;&#160;&#160;</text>
<polygon fill="white" stroke="transparent" points="356.02,-75.96 356.02,-94.96 372.02,-94.96 372.02,-75.96 356.02,-75.96"/>
<polyline fill="none" stroke="black" points="372.02,-75.96 372.02,-94.96 "/>
<text text-anchor="start" x="359.02" y="-82.36" font-family="sans-serif" font-size="12.00">D</text>
<polygon fill="white" stroke="transparent" points="372.02,-75.96 372.02,-94.96 402.02,-94.96 402.02,-75.96 372.02,-75.96"/>
<polygon fill="none" stroke="black" points="372.02,-75.96 372.02,-94.96 402.02,-94.96 402.02,-75.96 372.02,-75.96"/>
<text text-anchor="start" x="375.02" y="-82.36" font-family="sans-serif" font-size="12.00">ACL</text>
<polygon fill="white" stroke="transparent" points="342.69,-136.97 342.69,-153.97 356.69,-153.97 356.69,-136.97 342.69,-136.97"/>
<text text-anchor="start" x="344.69" y="-142.37" font-family="sans-serif" font-size="12.00">U</text>
</g>
</g>
</svg>
