<svg width="2000px" height="1573px"
 viewBox="0.00 0.00 866.05 681.14" xmlns="http://www.w3.org/2000/svg" xmlns:xlink="http://www.w3.org/1999/xlink">
<g id="graph0" class="graph" transform="scale(1.0 1.0) rotate(0) translate(4 677.14)">
<title>ContextMapGraph</title>
<polygon fill="white" stroke="transparent" points="-4,4 -4,-677.14 862.05,-677.14 862.05,4 -4,4"/>
<!-- ClientOrders -->
<g id="node1" class="node">
<title>ClientOrders</title>
<polygon fill="none" stroke="black" stroke-width="2" points="627.76,-600.97 631.43,-603.38 634.84,-605.84 637.98,-608.34 640.82,-610.86 643.36,-613.41 645.59,-615.97 647.48,-618.54 649.05,-621.09 650.27,-623.63 651.15,-626.15 651.67,-628.63 651.83,-631.07 651.64,-633.47 651.09,-635.81 650.18,-638.09 648.92,-640.3 647.31,-642.44 645.36,-644.5 643.07,-646.48 640.46,-648.38 637.53,-650.18 634.3,-651.9 630.78,-653.52 626.98,-655.05 622.92,-656.47 618.62,-657.8 614.09,-659.03 609.35,-660.16 604.43,-661.2 599.33,-662.13 594.08,-662.96 588.7,-663.7 583.2,-664.34 577.62,-664.89 571.97,-665.34 566.27,-665.7 560.53,-665.96 554.79,-666.14 549.05,-666.23 543.35,-666.23 537.68,-666.14 532.08,-665.97 526.56,-665.72 521.13,-665.38 515.82,-664.96 510.62,-664.46 505.56,-663.88 500.65,-663.22 495.91,-662.49 491.33,-661.67 486.92,-660.77 482.71,-659.8 478.69,-658.75 474.87,-657.62 471.26,-656.41 467.86,-655.13 464.68,-653.77 461.71,-652.34 458.96,-650.83 456.44,-649.25 454.13,-647.59 452.06,-645.87 450.2,-644.07 448.57,-642.21 447.17,-640.28 445.98,-638.3 445.02,-636.25 444.28,-634.14 443.76,-631.99 443.45,-629.79 443.36,-627.54 443.49,-625.26 443.83,-622.94 444.38,-620.6 445.14,-618.24 446.11,-615.87 447.29,-613.49 448.67,-611.12 450.26,-608.75 452.05,-606.41 454.04,-604.08 456.23,-601.8 458.61,-599.55 461.2,-597.36 463.98,-595.23 466.95,-593.17 470.1,-591.19 473.45,-589.29 476.98,-587.49 480.68,-585.79 484.56,-584.21 488.61,-582.74 492.82,-581.39 497.19,-580.18 501.71,-579.11 506.37,-578.18 511.16,-577.4 516.08,-576.77 521.12,-576.3 526.26,-575.98 531.49,-575.83 536.8,-575.84 542.17,-576.01 547.6,-576.35 553.06,-576.85 558.55,-577.51 564.04,-578.33 569.52,-579.3 574.97,-580.42 580.37,-581.69 585.71,-583.1 590.97,-584.65 596.12,-586.32 601.15,-588.12 606.04,-590.03 610.77,-592.04 615.33,-594.15 619.69,-596.35 623.84,-598.63 627.76,-600.97"/>
<text text-anchor="middle" x="541.05" y="-620.74" font-family="sans-serif" font-size="16.00">ClientOrders</text>
</g>
<!-- ProductionPlanning -->
<g id="node2" class="node">
<title>ProductionPlanning</title>
<polygon fill="none" stroke="black" stroke-width="2" points="317.34,-439.43 326.28,-438.63 335.26,-437.95 344.25,-437.4 353.23,-436.98 362.14,-436.68 370.96,-436.52 379.66,-436.49 388.2,-436.59 396.55,-436.83 404.69,-437.21 412.58,-437.72 420.2,-438.36 427.53,-439.13 434.54,-440.04 441.22,-441.07 447.55,-442.23 453.52,-443.51 459.11,-444.9 464.31,-446.41 469.11,-448.02 473.51,-449.74 477.5,-451.56 481.09,-453.46 484.27,-455.46 487.04,-457.53 489.4,-459.67 491.37,-461.87 492.95,-464.13 494.14,-466.44 494.96,-468.79 495.41,-471.17 495.51,-473.58 495.26,-476 494.69,-478.44 493.79,-480.87 492.58,-483.3 491.08,-485.71 489.3,-488.11 487.25,-490.47 484.93,-492.8 482.37,-495.08 479.57,-497.31 476.55,-499.49 473.31,-501.61 469.85,-503.65 466.2,-505.62 462.36,-507.52 458.33,-509.33 454.11,-511.05 449.73,-512.68 445.17,-514.21 440.45,-515.65 435.57,-516.98 430.53,-518.21 425.34,-519.33 419.99,-520.34 414.5,-521.25 408.86,-522.04 403.08,-522.72 397.17,-523.29 391.11,-523.75 384.93,-524.09 378.63,-524.33 372.21,-524.45 365.68,-524.47 359.05,-524.37 352.33,-524.17 345.52,-523.86 338.64,-523.44 331.7,-522.93 324.72,-522.31 317.72,-521.6 310.69,-520.79 303.68,-519.88 296.69,-518.89 289.75,-517.8 282.87,-516.63 276.08,-515.38 269.41,-514.04 262.88,-512.63 256.5,-511.15 250.32,-509.59 244.35,-507.96 238.62,-506.27 233.16,-504.52 227.99,-502.71 223.14,-500.85 218.63,-498.94 214.49,-496.97 210.74,-494.97 207.4,-492.93 204.5,-490.85 202.05,-488.74 200.08,-486.61 198.59,-484.46 197.61,-482.29 197.13,-480.1 197.18,-477.92 197.76,-475.73 198.88,-473.54 200.53,-471.37 202.71,-469.2 205.43,-467.06 208.68,-464.95 212.43,-462.87 216.7,-460.82 221.46,-458.82 226.69,-456.87 232.37,-454.97 238.49,-453.14 245.02,-451.38 251.93,-449.68 259.19,-448.07 266.79,-446.54 274.67,-445.1 282.82,-443.75 291.2,-442.51 299.77,-441.37 308.49,-440.34 317.34,-439.43"/>
<text text-anchor="middle" x="355.05" y="-477.82" font-family="sans-serif" font-size="16.00">ProductionPlanning</text>
</g>
<!-- ClientOrders&#45;&gt;ProductionPlanning -->
<g id="edge1" class="edge">
<title>ClientOrders&#45;&gt;ProductionPlanning</title>
<path fill="none" stroke="black" stroke-width="2" d="M453.16,-605.09C425.16,-595.28 396.25,-580.4 376.05,-557.93 367.79,-548.75 362.75,-536.57 359.69,-524.7"/>
<text text-anchor="middle" x="451.55" y="-548.33" font-family="sans-serif" font-size="12.00"> &#160;&#160;&#160;&#160;&#160;&#160;&#160;&#160;&#160;&#160;&#160;&#160;&#160;&#160;&#160;&#160;&#160;&#160;&#160;&#160;&#160;&#160;&#160;&#160;&#160;&#160;&#160;&#160;&#160;&#160;&#160;&#160;&#160;&#160;&#160;&#160;&#160;&#160;&#160;</text>
<polygon fill="white" stroke="transparent" points="336.69,-514.7 336.69,-533.7 352.69,-533.7 352.69,-514.7 336.69,-514.7"/>
<polyline fill="none" stroke="black" points="352.69,-514.7 352.69,-533.7 "/>
<text text-anchor="start" x="339.69" y="-521.1" font-family="sans-serif" font-size="12.00">D</text>
<polygon fill="white" stroke="transparent" points="352.69,-514.7 352.69,-533.7 382.69,-533.7 382.69,-514.7 352.69,-514.7"/>
<polygon fill="none" stroke="black" points="352.69,-514.7 352.69,-533.7 382.69,-533.7 382.69,-514.7 352.69,-514.7"/>
<text text-anchor="start" x="355.69" y="-521.1" font-family="sans-serif" font-size="12.00">ACL</text>
<polygon fill="white" stroke="transparent" points="446.16,-596.09 446.16,-613.09 460.16,-613.09 460.16,-596.09 446.16,-596.09"/>
<text text-anchor="start" x="448.16" y="-601.49" font-family="sans-serif" font-size="12.00">U</text>
</g>
<!-- MilkPlanning -->
<g id="node6" class="node">
<title>MilkPlanning</title>
<polygon fill="none" stroke="black" stroke-width="2" points="299.78,-37.31 301.29,-34.49 303.07,-31.73 305.11,-29.02 307.41,-26.38 309.96,-23.82 312.75,-21.35 315.77,-18.98 319.02,-16.71 322.48,-14.57 326.15,-12.54 330.01,-10.65 334.05,-8.9 338.27,-7.29 342.64,-5.83 347.16,-4.53 351.81,-3.38 356.59,-2.39 361.48,-1.55 366.47,-0.88 371.54,-0.37 376.68,-0.02 381.88,0.18 387.12,0.22 392.4,0.11 397.69,-0.16 402.99,-0.56 408.28,-1.1 413.54,-1.78 418.78,-2.59 423.96,-3.51 429.09,-4.56 434.14,-5.71 439.1,-6.96 443.97,-8.31 448.72,-9.74 453.35,-11.26 457.85,-12.84 462.2,-14.5 466.4,-16.21 470.42,-17.97 474.27,-19.79 477.93,-21.64 481.39,-23.52 484.65,-25.43 487.68,-27.37 490.5,-29.32 493.08,-31.29 495.42,-33.27 497.51,-35.25 499.34,-37.24 500.92,-39.22 502.24,-41.21 503.28,-43.18 504.05,-45.15 504.55,-47.1 504.76,-49.05 504.69,-50.98 504.35,-52.9 503.72,-54.8 502.8,-56.68 501.61,-58.54 500.14,-60.39 498.39,-62.21 496.37,-64.01 494.08,-65.79 491.53,-67.54 488.72,-69.26 485.66,-70.96 482.36,-72.62 478.82,-74.25 475.06,-75.84 471.09,-77.39 466.91,-78.9 462.53,-80.35 457.98,-81.76 453.25,-83.11 448.38,-84.41 443.36,-85.63 438.21,-86.79 432.95,-87.87 427.59,-88.87 422.16,-89.79 416.65,-90.61 411.1,-91.34 405.51,-91.96 399.91,-92.48 394.31,-92.88 388.72,-93.17 383.16,-93.33 377.66,-93.37 372.22,-93.27 366.87,-93.04 361.61,-92.68 356.46,-92.17 351.45,-91.52 346.58,-90.72 341.87,-89.79 337.32,-88.7 332.97,-87.47 328.81,-86.1 324.86,-84.59 321.14,-82.94 317.64,-81.16 314.39,-79.25 311.38,-77.21 308.64,-75.05 306.16,-72.78 303.95,-70.41 302.02,-67.94 300.37,-65.39 299.01,-62.76 297.93,-60.05 297.15,-57.3 296.66,-54.49 296.46,-51.65 296.55,-48.78 296.93,-45.9 297.59,-43.02 298.55,-40.15 299.78,-37.31"/>
<text text-anchor="middle" x="401.05" y="-43.92" font-family="sans-serif" font-size="16.00">MilkPlanning</text>
</g>
<!-- ClientOrders&#45;&gt;MilkPlanning -->
<g id="edge2" class="edge">
<title>ClientOrders&#45;&gt;MilkPlanning</title>
<path fill="none" stroke="black" stroke-width="2" d="M615.31,-594.07C659.51,-571.13 707.05,-534.41 707.05,-482.62 707.05,-482.62 707.05,-482.62 707.05,-191.82 707.05,-100.03 592.69,-66.99 503.8,-55.17"/>
<text text-anchor="middle" x="782.55" y="-335.65" font-family="sans-serif" font-size="12.00"> &#160;&#160;&#160;&#160;&#160;&#160;&#160;&#160;&#160;&#160;&#160;&#160;&#160;&#160;&#160;&#160;&#160;&#160;&#160;&#160;&#160;&#160;&#160;&#160;&#160;&#160;&#160;&#160;&#160;&#160;&#160;&#160;&#160;&#160;&#160;&#160;&#160;&#160;&#160;</text>
<polygon fill="white" stroke="transparent" points="480.8,-45.17 480.8,-64.17 496.8,-64.17 496.8,-45.17 480.8,-45.17"/>
<polyline fill="none" stroke="black" points="496.8,-45.17 496.8,-64.17 "/>
<text text-anchor="start" x="483.8" y="-51.57" font-family="sans-serif" font-size="12.00">D</text>
<polygon fill="white" stroke="transparent" points="496.8,-45.17 496.8,-64.17 526.8,-64.17 526.8,-45.17 496.8,-45.17"/>
<polygon fill="none" stroke="black" points="496.8,-45.17 496.8,-64.17 526.8,-64.17 526.8,-45.17 496.8,-45.17"/>
<text text-anchor="start" x="499.8" y="-51.57" font-family="sans-serif" font-size="12.00">ACL</text>
<polygon fill="white" stroke="transparent" points="608.31,-585.07 608.31,-602.07 622.31,-602.07 622.31,-585.07 608.31,-585.07"/>
<text text-anchor="start" x="610.31" y="-590.47" font-family="sans-serif" font-size="12.00">U</text>
</g>
<!-- Production -->
<g id="node3" class="node">
<title>Production</title>
<polygon fill="none" stroke="black" stroke-width="2" points="261.69,-369.66 257.52,-371.73 253.19,-373.71 248.72,-375.58 244.14,-377.33 239.45,-378.97 234.67,-380.47 229.82,-381.84 224.92,-383.07 219.98,-384.15 215.02,-385.08 210.06,-385.85 205.1,-386.47 200.17,-386.93 195.28,-387.22 190.45,-387.36 185.68,-387.33 180.98,-387.14 176.38,-386.79 171.87,-386.28 167.47,-385.61 163.19,-384.79 159.04,-383.83 155.02,-382.73 151.13,-381.48 147.4,-380.11 143.81,-378.61 140.39,-377 137.12,-375.27 134.02,-373.45 131.08,-371.53 128.31,-369.53 125.72,-367.44 123.3,-365.3 121.06,-363.09 119,-360.83 117.11,-358.53 115.41,-356.19 113.89,-353.84 112.55,-351.46 111.39,-349.08 110.42,-346.7 109.64,-344.32 109.04,-341.96 108.63,-339.61 108.41,-337.3 108.38,-335.02 108.54,-332.78 108.9,-330.58 109.44,-328.43 110.19,-326.34 111.13,-324.3 112.26,-322.32 113.6,-320.4 115.13,-318.56 116.86,-316.78 118.79,-315.07 120.92,-313.44 123.25,-311.87 125.77,-310.39 128.49,-308.98 131.4,-307.65 134.51,-306.39 137.8,-305.21 141.27,-304.11 144.92,-303.09 148.74,-302.15 152.73,-301.29 156.87,-300.51 161.17,-299.81 165.6,-299.18 170.17,-298.64 174.85,-298.18 179.65,-297.8 184.54,-297.51 189.51,-297.3 194.55,-297.17 199.64,-297.12 204.77,-297.17 209.92,-297.3 215.07,-297.52 220.21,-297.83 225.33,-298.23 230.39,-298.72 235.39,-299.31 240.3,-299.99 245.11,-300.76 249.79,-301.64 254.34,-302.61 258.73,-303.68 262.95,-304.84 266.97,-306.1 270.79,-307.46 274.38,-308.92 277.74,-310.47 280.84,-312.12 283.68,-313.85 286.25,-315.68 288.53,-317.59 290.51,-319.59 292.19,-321.66 293.56,-323.81 294.61,-326.03 295.34,-328.32 295.75,-330.66 295.84,-333.05 295.6,-335.49 295.04,-337.97 294.16,-340.47 292.97,-343 291.47,-345.54 289.67,-348.09 287.58,-350.63 285.2,-353.15 282.56,-355.66 279.65,-358.13 276.49,-360.56 273.11,-362.93 269.5,-365.25 265.69,-367.49 261.69,-369.66"/>
<text text-anchor="middle" x="196.05" y="-334.95" font-family="sans-serif" font-size="16.00">Production</text>
</g>
<!-- ProductionPlanning&#45;&gt;Production -->
<g id="edge3" class="edge">
<title>ProductionPlanning&#45;&gt;Production</title>
<path fill="none" stroke="black" stroke-width="2" d="M237.86,-453.21C221.82,-444.58 207.35,-433.23 197.05,-418.3 190.85,-409.32 188.43,-398.28 188.03,-387.35"/>
<text text-anchor="middle" x="272.55" y="-408.7" font-family="sans-serif" font-size="12.00"> &#160;&#160;&#160;&#160;&#160;&#160;&#160;&#160;&#160;&#160;&#160;&#160;&#160;&#160;&#160;&#160;&#160;&#160;&#160;&#160;&#160;&#160;&#160;&#160;&#160;&#160;&#160;&#160;&#160;&#160;&#160;&#160;&#160;&#160;&#160;&#160;&#160;&#160;&#160;</text>
<polygon fill="white" stroke="transparent" points="169.03,-377.35 169.03,-396.35 185.03,-396.35 185.03,-377.35 169.03,-377.35"/>
<polyline fill="none" stroke="black" points="185.03,-377.35 185.03,-396.35 "/>
<text text-anchor="start" x="172.03" y="-383.75" font-family="sans-serif" font-size="12.00">D</text>
<polygon fill="white" stroke="transparent" points="185.03,-377.35 185.03,-396.35 207.03,-396.35 207.03,-377.35 185.03,-377.35"/>
<polygon fill="none" stroke="black" points="185.03,-377.35 185.03,-396.35 207.03,-396.35 207.03,-377.35 185.03,-377.35"/>
<text text-anchor="start" x="188.03" y="-383.75" font-family="sans-serif" font-size="12.00">CF</text>
<polygon fill="white" stroke="transparent" points="230.86,-444.21 230.86,-461.21 244.86,-461.21 244.86,-444.21 230.86,-444.21"/>
<text text-anchor="start" x="232.86" y="-449.61" font-family="sans-serif" font-size="12.00">U</text>
</g>
<!-- Stocking -->
<g id="node4" class="node">
<title>Stocking</title>
<polygon fill="none" stroke="black" stroke-width="2" points="281.67,-187.75 282.2,-184.91 282.96,-182.09 283.92,-179.32 285.11,-176.61 286.5,-173.96 288.1,-171.38 289.9,-168.89 291.9,-166.5 294.09,-164.21 296.46,-162.03 299.01,-159.97 301.74,-158.04 304.63,-156.24 307.67,-154.58 310.86,-153.07 314.19,-151.69 317.66,-150.47 321.24,-149.4 324.93,-148.49 328.72,-147.72 332.61,-147.11 336.57,-146.66 340.6,-146.35 344.69,-146.19 348.83,-146.18 353.01,-146.3 357.2,-146.57 361.42,-146.96 365.63,-147.49 369.83,-148.14 374.01,-148.9 378.16,-149.78 382.27,-150.75 386.32,-151.83 390.31,-153 394.21,-154.25 398.04,-155.58 401.76,-156.99 405.37,-158.46 408.87,-159.99 412.24,-161.58 415.48,-163.21 418.57,-164.89 421.5,-166.61 424.28,-168.36 426.88,-170.14 429.31,-171.94 431.55,-173.77 433.61,-175.61 435.47,-177.47 437.13,-179.35 438.59,-181.23 439.83,-183.12 440.87,-185.02 441.68,-186.92 442.28,-188.82 442.66,-190.72 442.82,-192.63 442.76,-194.53 442.48,-196.43 441.98,-198.32 441.25,-200.22 440.31,-202.1 439.16,-203.98 437.79,-205.84 436.22,-207.7 434.44,-209.54 432.46,-211.36 430.28,-213.16 427.92,-214.95 425.38,-216.71 422.66,-218.44 419.78,-220.13 416.73,-221.79 413.54,-223.41 410.2,-224.98 406.73,-226.5 403.13,-227.97 399.42,-229.37 395.61,-230.7 391.71,-231.96 387.72,-233.14 383.66,-234.23 379.54,-235.23 375.38,-236.13 371.17,-236.93 366.94,-237.61 362.7,-238.18 358.46,-238.63 354.22,-238.94 350.01,-239.13 345.83,-239.18 341.7,-239.09 337.62,-238.85 333.61,-238.47 329.68,-237.93 325.83,-237.25 322.09,-236.42 318.46,-235.43 314.95,-234.29 311.57,-233.01 308.33,-231.58 305.24,-230 302.3,-228.28 299.53,-226.43 296.93,-224.45 294.51,-222.34 292.28,-220.12 290.24,-217.79 288.4,-215.36 286.76,-212.84 285.33,-210.24 284.11,-207.56 283.1,-204.82 282.31,-202.04 281.74,-199.21 281.39,-196.36 281.26,-193.49 281.36,-190.62 281.67,-187.75"/>
<text text-anchor="middle" x="362.05" y="-189.02" font-family="sans-serif" font-size="16.00">Stocking</text>
</g>
<!-- Production&#45;&gt;Stocking -->
<g id="edge4" class="edge">
<title>Production&#45;&gt;Stocking</title>
<path fill="none" stroke="black" stroke-width="2" d="M188.04,-297.09C187.59,-284.01 189.55,-270.09 197.05,-259.2 216.71,-230.65 250.96,-214.57 283.17,-205.5"/>
<text text-anchor="middle" x="272.55" y="-262.6" font-family="sans-serif" font-size="12.00"> &#160;&#160;&#160;&#160;&#160;&#160;&#160;&#160;&#160;&#160;&#160;&#160;&#160;&#160;&#160;&#160;&#160;&#160;&#160;&#160;&#160;&#160;&#160;&#160;&#160;&#160;&#160;&#160;&#160;&#160;&#160;&#160;&#160;&#160;&#160;&#160;&#160;&#160;&#160;</text>
<polygon fill="white" stroke="transparent" points="264.17,-195.5 264.17,-214.5 280.17,-214.5 280.17,-195.5 264.17,-195.5"/>
<polyline fill="none" stroke="black" points="280.17,-195.5 280.17,-214.5 "/>
<text text-anchor="start" x="267.17" y="-201.9" font-family="sans-serif" font-size="12.00">D</text>
<polygon fill="white" stroke="transparent" points="280.17,-195.5 280.17,-214.5 302.17,-214.5 302.17,-195.5 280.17,-195.5"/>
<polygon fill="none" stroke="black" points="280.17,-195.5 280.17,-214.5 302.17,-214.5 302.17,-195.5 280.17,-195.5"/>
<text text-anchor="start" x="283.17" y="-201.9" font-family="sans-serif" font-size="12.00">CF</text>
<polygon fill="white" stroke="transparent" points="181.04,-288.09 181.04,-305.09 195.04,-305.09 195.04,-288.09 181.04,-288.09"/>
<text text-anchor="start" x="183.04" y="-293.49" font-family="sans-serif" font-size="12.00">U</text>
</g>
<!-- Restocking -->
<g id="node5" class="node">
<title>Restocking</title>
<polygon fill="none" stroke="black" stroke-width="2" points="182.63,-208.27 180.56,-210.96 178.26,-213.6 175.74,-216.16 173.01,-218.65 170.07,-221.04 166.94,-223.33 163.64,-225.51 160.16,-227.58 156.52,-229.52 152.72,-231.32 148.8,-232.99 144.74,-234.51 140.57,-235.88 136.29,-237.09 131.93,-238.15 127.48,-239.04 122.96,-239.77 118.39,-240.34 113.77,-240.75 109.12,-241 104.45,-241.08 99.76,-241.01 95.08,-240.78 90.41,-240.39 85.76,-239.87 81.14,-239.2 76.56,-238.39 72.04,-237.45 67.59,-236.39 63.21,-235.21 58.91,-233.92 54.71,-232.53 50.6,-231.04 46.62,-229.46 42.75,-227.8 39.01,-226.07 35.41,-224.28 31.96,-222.43 28.66,-220.52 25.53,-218.58 22.57,-216.59 19.79,-214.58 17.19,-212.55 14.78,-210.49 12.57,-208.43 10.57,-206.36 8.78,-204.29 7.21,-202.22 5.86,-200.16 4.73,-198.11 3.84,-196.07 3.18,-194.05 2.76,-192.05 2.58,-190.07 2.64,-188.12 2.96,-186.19 3.51,-184.29 4.32,-182.42 5.37,-180.58 6.67,-178.77 8.22,-176.99 10.01,-175.25 12.04,-173.54 14.3,-171.87 16.8,-170.24 19.53,-168.64 22.48,-167.09 25.64,-165.57 29.02,-164.1 32.59,-162.68 36.35,-161.31 40.29,-159.98 44.41,-158.71 48.69,-157.5 53.11,-156.34 57.67,-155.25 62.35,-154.23 67.14,-153.28 72.03,-152.4 76.99,-151.6 82.03,-150.89 87.11,-150.27 92.23,-149.74 97.37,-149.31 102.51,-148.98 107.64,-148.76 112.74,-148.65 117.79,-148.65 122.78,-148.77 127.7,-149.02 132.52,-149.39 137.24,-149.89 141.83,-150.52 146.28,-151.29 150.58,-152.19 154.72,-153.22 158.68,-154.39 162.44,-155.69 166.01,-157.12 169.36,-158.68 172.49,-160.38 175.38,-162.19 178.04,-164.13 180.45,-166.18 182.6,-168.34 184.49,-170.61 186.11,-172.97 187.47,-175.42 188.55,-177.95 189.36,-180.56 189.89,-183.22 190.15,-185.94 190.14,-188.7 189.85,-191.49 189.3,-194.3 188.48,-197.12 187.39,-199.94 186.05,-202.75 184.46,-205.52 182.63,-208.27"/>
<text text-anchor="middle" x="95.05" y="-189.02" font-family="sans-serif" font-size="16.00">Restocking</text>
</g>
<!-- Production&#45;&gt;Restocking -->
<g id="edge5" class="edge">
<title>Production&#45;&gt;Restocking</title>
<path fill="none" stroke="black" stroke-width="2" d="M110.11,-326.23C77.26,-317.17 42.94,-301.01 23.05,-272.2 11.82,-255.93 22.55,-239.57 38.85,-226.03"/>
<text text-anchor="middle" x="98.55" y="-262.6" font-family="sans-serif" font-size="12.00"> &#160;&#160;&#160;&#160;&#160;&#160;&#160;&#160;&#160;&#160;&#160;&#160;&#160;&#160;&#160;&#160;&#160;&#160;&#160;&#160;&#160;&#160;&#160;&#160;&#160;&#160;&#160;&#160;&#160;&#160;&#160;&#160;&#160;&#160;&#160;&#160;&#160;&#160;&#160;</text>
<polygon fill="white" stroke="transparent" points="31.85,-217.03 31.85,-234.03 45.85,-234.03 45.85,-217.03 31.85,-217.03"/>
<text text-anchor="start" x="33.85" y="-222.43" font-family="sans-serif" font-size="12.00">D</text>
<polygon fill="white" stroke="transparent" points="75.11,-316.23 75.11,-335.23 91.11,-335.23 91.11,-316.23 75.11,-316.23"/>
<polyline fill="none" stroke="black" points="91.11,-316.23 91.11,-335.23 "/>
<text text-anchor="start" x="78.11" y="-322.63" font-family="sans-serif" font-size="12.00">U</text>
<polygon fill="white" stroke="transparent" points="91.11,-316.23 91.11,-335.23 146.11,-335.23 146.11,-316.23 91.11,-316.23"/>
<polygon fill="none" stroke="black" points="91.11,-316.23 91.11,-335.23 146.11,-335.23 146.11,-316.23 91.11,-316.23"/>
<text text-anchor="start" x="94.11" y="-322.63" font-family="sans-serif" font-size="12.00">OHS, PL</text>
</g>
<!-- Stocking&#45;&gt;ClientOrders -->
<g id="edge7" class="edge">
<title>Stocking&#45;&gt;ClientOrders</title>
<path fill="none" stroke="black" stroke-width="2" d="M424.92,-217.13C457.52,-232.65 494.69,-256.47 515.05,-290.2 543.33,-337.03 544.06,-495.62 542.48,-576"/>
<text text-anchor="middle" x="615.55" y="-408.7" font-family="sans-serif" font-size="12.00"> &#160;&#160;&#160;&#160;&#160;&#160;&#160;&#160;&#160;&#160;&#160;&#160;&#160;&#160;&#160;&#160;&#160;&#160;&#160;&#160;&#160;&#160;&#160;&#160;&#160;&#160;&#160;&#160;&#160;&#160;&#160;&#160;&#160;&#160;&#160;&#160;&#160;&#160;&#160;</text>
<polygon fill="white" stroke="transparent" points="535.48,-567 535.48,-584 549.48,-584 549.48,-567 535.48,-567"/>
<text text-anchor="start" x="537.48" y="-572.4" font-family="sans-serif" font-size="12.00">D</text>
<polygon fill="white" stroke="transparent" points="389.92,-207.13 389.92,-226.13 405.92,-226.13 405.92,-207.13 389.92,-207.13"/>
<polyline fill="none" stroke="black" points="405.92,-207.13 405.92,-226.13 "/>
<text text-anchor="start" x="392.92" y="-213.53" font-family="sans-serif" font-size="12.00">U</text>
<polygon fill="white" stroke="transparent" points="405.92,-207.13 405.92,-226.13 460.92,-226.13 460.92,-207.13 405.92,-207.13"/>
<polygon fill="none" stroke="black" points="405.92,-207.13 405.92,-226.13 460.92,-226.13 460.92,-207.13 405.92,-207.13"/>
<text text-anchor="start" x="408.92" y="-213.53" font-family="sans-serif" font-size="12.00">OHS, PL</text>
</g>
<!-- Stocking&#45;&gt;ProductionPlanning -->
<g id="edge6" class="edge">
<title>Stocking&#45;&gt;ProductionPlanning</title>
<path fill="none" stroke="black" stroke-width="2" d="M360.96,-238.63C359.64,-292.72 357.43,-383.08 356.12,-436.75"/>
<text text-anchor="middle" x="435.55" y="-335.65" font-family="sans-serif" font-size="12.00"> &#160;&#160;&#160;&#160;&#160;&#160;&#160;&#160;&#160;&#160;&#160;&#160;&#160;&#160;&#160;&#160;&#160;&#160;&#160;&#160;&#160;&#160;&#160;&#160;&#160;&#160;&#160;&#160;&#160;&#160;&#160;&#160;&#160;&#160;&#160;&#160;&#160;&#160;&#160;</text>
<polygon fill="white" stroke="transparent" points="333.12,-426.75 333.12,-445.75 349.12,-445.75 349.12,-426.75 333.12,-426.75"/>
<polyline fill="none" stroke="black" points="349.12,-426.75 349.12,-445.75 "/>
<text text-anchor="start" x="336.12" y="-433.15" font-family="sans-serif" font-size="12.00">D</text>
<polygon fill="white" stroke="transparent" points="349.12,-426.75 349.12,-445.75 379.12,-445.75 379.12,-426.75 349.12,-426.75"/>
<polygon fill="none" stroke="black" points="349.12,-426.75 349.12,-445.75 379.12,-445.75 379.12,-426.75 349.12,-426.75"/>
<text text-anchor="start" x="352.12" y="-433.15" font-family="sans-serif" font-size="12.00">ACL</text>
<polygon fill="white" stroke="transparent" points="353.96,-229.63 353.96,-246.63 367.96,-246.63 367.96,-229.63 353.96,-229.63"/>
<text text-anchor="start" x="355.96" y="-235.03" font-family="sans-serif" font-size="12.00">U</text>
</g>
<!-- Restocking&#45;&gt;MilkPlanning -->
<g id="edge8" class="edge">
<title>Restocking&#45;&gt;MilkPlanning</title>
<path fill="none" stroke="black" stroke-width="2" d="M167.96,-157.72C215.16,-135.65 276.52,-106.95 324.43,-84.55"/>
<text text-anchor="middle" x="333.55" y="-116.83" font-family="sans-serif" font-size="12.00"> &#160;&#160;&#160;&#160;&#160;&#160;&#160;&#160;&#160;&#160;&#160;&#160;&#160;&#160;&#160;&#160;&#160;&#160;&#160;&#160;&#160;&#160;&#160;&#160;&#160;&#160;&#160;&#160;&#160;&#160;&#160;&#160;&#160;&#160;&#160;&#160;&#160;&#160;&#160;</text>
<polygon fill="white" stroke="transparent" points="301.43,-74.55 301.43,-93.55 317.43,-93.55 317.43,-74.55 301.43,-74.55"/>
<polyline fill="none" stroke="black" points="317.43,-74.55 317.43,-93.55 "/>
<text text-anchor="start" x="304.43" y="-80.95" font-family="sans-serif" font-size="12.00">D</text>
<polygon fill="white" stroke="transparent" points="317.43,-74.55 317.43,-93.55 347.43,-93.55 347.43,-74.55 317.43,-74.55"/>
<polygon fill="none" stroke="black" points="317.43,-74.55 317.43,-93.55 347.43,-93.55 347.43,-74.55 317.43,-74.55"/>
<text text-anchor="start" x="320.43" y="-80.95" font-family="sans-serif" font-size="12.00">ACL</text>
<polygon fill="white" stroke="transparent" points="160.96,-148.72 160.96,-165.72 174.96,-165.72 174.96,-148.72 160.96,-148.72"/>
<text text-anchor="start" x="162.96" y="-154.12" font-family="sans-serif" font-size="12.00">U</text>
</g>
</g>
</svg>
