<svg width="2000px" height="1590px"
 viewBox="0.00 0.00 853.00 677.93" xmlns="http://www.w3.org/2000/svg" xmlns:xlink="http://www.w3.org/1999/xlink">
<g id="graph0" class="graph" transform="scale(1.0 1.0) rotate(0) translate(4 673.93)">
<title>ContextMapGraph</title>
<polygon fill="white" stroke="transparent" points="-4,4 -4,-673.93 849,-673.93 849,4 -4,4"/>
<!-- ClientOrders -->
<g id="node1" class="node">
<title>ClientOrders</title>
<polygon fill="none" stroke="black" stroke-width="2" points="77.1,-626.68 76.26,-623.83 75.71,-620.98 75.45,-618.14 75.47,-615.33 75.8,-612.56 76.41,-609.84 77.32,-607.18 78.53,-604.59 80.02,-602.07 81.81,-599.65 83.87,-597.32 86.22,-595.09 88.84,-592.97 91.72,-590.97 94.86,-589.09 98.25,-587.34 101.88,-585.72 105.74,-584.23 109.81,-582.88 114.1,-581.67 118.57,-580.59 123.22,-579.66 128.04,-578.86 133,-578.21 138.1,-577.69 143.32,-577.3 148.65,-577.04 154.05,-576.92 159.53,-576.92 165.06,-577.04 170.63,-577.28 176.21,-577.62 181.79,-578.08 187.36,-578.64 192.9,-579.3 198.38,-580.05 203.8,-580.89 209.14,-581.81 214.38,-582.81 219.5,-583.88 224.5,-585.02 229.35,-586.23 234.05,-587.5 238.58,-588.82 242.93,-590.2 247.08,-591.63 251.03,-593.1 254.76,-594.62 258.27,-596.17 261.55,-597.77 264.58,-599.4 267.37,-601.07 269.91,-602.77 272.18,-604.51 274.19,-606.27 275.94,-608.06 277.41,-609.88 278.61,-611.73 279.54,-613.6 280.19,-615.5 280.57,-617.42 280.67,-619.36 280.5,-621.33 280.07,-623.31 279.36,-625.31 278.39,-627.32 277.17,-629.34 275.68,-631.37 273.95,-633.41 271.98,-635.45 269.77,-637.48 267.32,-639.51 264.65,-641.53 261.77,-643.53 258.68,-645.51 255.39,-647.46 251.9,-649.37 248.24,-651.25 244.4,-653.08 240.4,-654.85 236.24,-656.57 231.94,-658.21 227.5,-659.78 222.95,-661.26 218.28,-662.66 213.51,-663.95 208.65,-665.14 203.71,-666.22 198.71,-667.17 193.65,-668 188.54,-668.7 183.41,-669.26 178.26,-669.67 173.1,-669.94 167.95,-670.06 162.81,-670.02 157.71,-669.82 152.65,-669.46 147.65,-668.93 142.71,-668.25 137.86,-667.4 133.11,-666.39 128.46,-665.23 123.93,-663.9 119.53,-662.43 115.28,-660.8 111.19,-659.03 107.26,-657.13 103.52,-655.09 99.96,-652.94 96.61,-650.66 93.47,-648.28 90.55,-645.81 87.87,-643.25 85.42,-640.61 83.23,-637.91 81.3,-635.16 79.62,-632.36 78.23,-629.53 77.1,-626.68"/>
<text text-anchor="middle" x="179" y="-618.01" font-family="sans-serif" font-size="16.00">ClientOrders</text>
</g>
<!-- ProductionPlanning -->
<g id="node2" class="node">
<title>ProductionPlanning</title>
<polygon fill="none" stroke="black" stroke-width="2" points="414.17,-437.12 422.91,-438.1 431.47,-439.18 439.8,-440.37 447.86,-441.65 455.63,-443.03 463.08,-444.51 470.16,-446.07 476.87,-447.7 483.16,-449.42 489.02,-451.2 494.43,-453.06 499.36,-454.97 503.81,-456.93 507.75,-458.94 511.18,-461 514.08,-463.09 516.46,-465.22 518.31,-467.38 519.64,-469.55 520.43,-471.74 520.7,-473.94 520.46,-476.15 519.71,-478.35 518.48,-480.56 516.76,-482.75 514.58,-484.92 511.96,-487.07 508.92,-489.2 505.47,-491.3 501.64,-493.37 497.45,-495.39 492.93,-497.37 488.09,-499.3 482.97,-501.18 477.59,-503 471.98,-504.76 466.15,-506.46 460.13,-508.08 453.96,-509.63 447.64,-511.11 441.2,-512.5 434.67,-513.82 428.06,-515.04 421.4,-516.17 414.7,-517.21 407.97,-518.16 401.25,-519 394.53,-519.74 387.83,-520.38 381.17,-520.91 374.56,-521.33 368,-521.64 361.51,-521.84 355.08,-521.92 348.74,-521.89 342.48,-521.74 336.31,-521.48 330.24,-521.1 324.26,-520.6 318.39,-519.99 312.62,-519.26 306.97,-518.42 301.42,-517.47 296,-516.4 290.69,-515.22 285.51,-513.94 280.46,-512.55 275.55,-511.06 270.78,-509.47 266.16,-507.79 261.69,-506.01 257.39,-504.16 253.27,-502.22 249.33,-500.2 245.58,-498.12 242.04,-495.97 238.72,-493.77 235.63,-491.51 232.78,-489.21 230.2,-486.87 227.89,-484.5 225.86,-482.11 224.14,-479.7 222.74,-477.28 221.67,-474.86 220.95,-472.44 220.59,-470.04 220.61,-467.66 221.01,-465.31 221.81,-462.99 223.01,-460.72 224.64,-458.5 226.69,-456.34 229.17,-454.24 232.08,-452.21 235.44,-450.27 239.22,-448.4 243.45,-446.63 248.1,-444.95 253.18,-443.37 258.68,-441.9 264.57,-440.53 270.86,-439.28 277.53,-438.15 284.55,-437.14 291.9,-436.25 299.57,-435.48 307.53,-434.84 315.75,-434.33 324.2,-433.95 332.85,-433.7 341.68,-433.58 350.64,-433.58 359.7,-433.72 368.83,-433.98 377.98,-434.37 387.13,-434.88 396.24,-435.51 405.26,-436.26 414.17,-437.12"/>
<text text-anchor="middle" x="364" y="-474.57" font-family="sans-serif" font-size="16.00">ProductionPlanning</text>
</g>
<!-- ClientOrders&#45;&gt;ProductionPlanning -->
<g id="edge1" class="edge">
<title>ClientOrders&#45;&gt;ProductionPlanning</title>
<path fill="none" stroke="black" stroke-width="2" d="M225.68,-585.12C251.91,-565.07 284.71,-539.99 311.78,-519.29"/>
<text text-anchor="middle" x="352.5" y="-546.08" font-family="sans-serif" font-size="12.00"> &#160;&#160;&#160;&#160;&#160;&#160;&#160;&#160;&#160;&#160;&#160;&#160;&#160;&#160;&#160;&#160;&#160;&#160;&#160;&#160;&#160;&#160;&#160;&#160;&#160;&#160;&#160;&#160;&#160;&#160;&#160;&#160;&#160;&#160;&#160;&#160;&#160;&#160;&#160;</text>
<polygon fill="white" stroke="transparent" points="288.78,-509.29 288.78,-528.29 304.78,-528.29 304.78,-509.29 288.78,-509.29"/>
<polyline fill="none" stroke="black" points="304.78,-509.29 304.78,-528.29 "/>
<text text-anchor="start" x="291.78" y="-515.69" font-family="sans-serif" font-size="12.00">D</text>
<polygon fill="white" stroke="transparent" points="304.78,-509.29 304.78,-528.29 334.78,-528.29 334.78,-509.29 304.78,-509.29"/>
<polygon fill="none" stroke="black" points="304.78,-509.29 304.78,-528.29 334.78,-528.29 334.78,-509.29 304.78,-509.29"/>
<text text-anchor="start" x="307.78" y="-515.69" font-family="sans-serif" font-size="12.00">ACL</text>
<polygon fill="white" stroke="transparent" points="218.68,-576.12 218.68,-593.12 232.68,-593.12 232.68,-576.12 218.68,-576.12"/>
<text text-anchor="start" x="220.68" y="-581.52" font-family="sans-serif" font-size="12.00">U</text>
</g>
<!-- MilkPlanning -->
<g id="node5" class="node">
<title>MilkPlanning</title>
<polygon fill="none" stroke="black" stroke-width="2" points="271.73,-78.8 266.81,-76.81 262.13,-74.75 257.69,-72.62 253.53,-70.43 249.66,-68.2 246.09,-65.92 242.85,-63.61 239.94,-61.28 237.37,-58.92 235.17,-56.56 233.33,-54.19 231.87,-51.83 230.78,-49.49 230.08,-47.16 229.76,-44.85 229.83,-42.58 230.29,-40.34 231.12,-38.15 232.33,-36 233.9,-33.91 235.84,-31.87 238.12,-29.89 240.75,-27.97 243.69,-26.12 246.95,-24.34 250.5,-22.63 254.33,-21 258.41,-19.44 262.74,-17.96 267.29,-16.57 272.04,-15.25 276.97,-14.01 282.07,-12.86 287.3,-11.79 292.66,-10.81 298.11,-9.91 303.64,-9.1 309.24,-8.37 314.87,-7.74 320.51,-7.19 326.17,-6.72 331.8,-6.35 337.4,-6.07 342.95,-5.87 348.44,-5.77 353.85,-5.75 359.16,-5.83 364.37,-6 369.47,-6.26 374.44,-6.61 379.27,-7.06 383.96,-7.6 388.5,-8.24 392.88,-8.97 397.09,-9.79 401.14,-10.71 405.02,-11.73 408.72,-12.83 412.24,-14.04 415.59,-15.33 418.75,-16.72 421.72,-18.2 424.51,-19.77 427.12,-21.42 429.54,-23.16 431.77,-24.98 433.81,-26.88 435.67,-28.85 437.33,-30.9 438.81,-33.01 440.09,-35.19 441.18,-37.42 442.08,-39.71 442.78,-42.04 443.28,-44.4 443.59,-46.81 443.69,-49.23 443.59,-51.68 443.28,-54.13 442.76,-56.59 442.02,-59.04 441.07,-61.47 439.9,-63.88 438.51,-66.26 436.9,-68.6 435.06,-70.89 432.99,-73.13 430.69,-75.29 428.16,-77.39 425.4,-79.39 422.4,-81.31 419.18,-83.13 415.72,-84.84 412.05,-86.44 408.14,-87.92 404.03,-89.28 399.7,-90.5 395.16,-91.58 390.43,-92.53 385.51,-93.33 380.41,-93.98 375.15,-94.48 369.74,-94.83 364.19,-95.03 358.51,-95.07 352.73,-94.95 346.86,-94.69 340.92,-94.27 334.93,-93.7 328.9,-92.99 322.87,-92.13 316.85,-91.13 310.85,-90 304.92,-88.74 299.06,-87.35 293.3,-85.85 287.67,-84.24 282.18,-82.52 276.86,-80.7 271.73,-78.8"/>
<text text-anchor="middle" x="345" y="-43.72" font-family="sans-serif" font-size="16.00">MilkPlanning</text>
</g>
<!-- ClientOrders&#45;&gt;MilkPlanning -->
<g id="edge2" class="edge">
<title>ClientOrders&#45;&gt;MilkPlanning</title>
<path fill="none" stroke="black" stroke-width="2" d="M93.17,-589.94C47.23,-567.35 0,-531.45 0,-479.37 0,-479.37 0,-479.37 0,-190.57 0,-136.4 147.26,-92.38 249.36,-68.37"/>
<text text-anchor="middle" x="75.5" y="-332.47" font-family="sans-serif" font-size="12.00"> &#160;&#160;&#160;&#160;&#160;&#160;&#160;&#160;&#160;&#160;&#160;&#160;&#160;&#160;&#160;&#160;&#160;&#160;&#160;&#160;&#160;&#160;&#160;&#160;&#160;&#160;&#160;&#160;&#160;&#160;&#160;&#160;&#160;&#160;&#160;&#160;&#160;&#160;&#160;</text>
<polygon fill="white" stroke="transparent" points="226.36,-58.37 226.36,-77.37 242.36,-77.37 242.36,-58.37 226.36,-58.37"/>
<polyline fill="none" stroke="black" points="242.36,-58.37 242.36,-77.37 "/>
<text text-anchor="start" x="229.36" y="-64.77" font-family="sans-serif" font-size="12.00">D</text>
<polygon fill="white" stroke="transparent" points="242.36,-58.37 242.36,-77.37 272.36,-77.37 272.36,-58.37 242.36,-58.37"/>
<polygon fill="none" stroke="black" points="242.36,-58.37 242.36,-77.37 272.36,-77.37 272.36,-58.37 242.36,-58.37"/>
<text text-anchor="start" x="245.36" y="-64.77" font-family="sans-serif" font-size="12.00">ACL</text>
<polygon fill="white" stroke="transparent" points="86.17,-580.94 86.17,-597.94 100.17,-597.94 100.17,-580.94 86.17,-580.94"/>
<text text-anchor="start" x="88.17" y="-586.34" font-family="sans-serif" font-size="12.00">U</text>
</g>
<!-- Production -->
<g id="node3" class="node">
<title>Production</title>
<polygon fill="none" stroke="black" stroke-width="2" points="513.64,-335.84 513.51,-332.98 513.64,-330.12 514.03,-327.3 514.67,-324.52 515.56,-321.79 516.71,-319.11 518.11,-316.52 519.76,-314 521.65,-311.57 523.78,-309.25 526.14,-307.03 528.73,-304.92 531.54,-302.94 534.56,-301.09 537.79,-299.37 541.21,-297.78 544.82,-296.33 548.6,-295.03 552.55,-293.88 556.65,-292.86 560.89,-292 565.26,-291.28 569.75,-290.71 574.35,-290.28 579.03,-289.99 583.79,-289.84 588.62,-289.83 593.49,-289.95 598.4,-290.19 603.32,-290.56 608.26,-291.04 613.18,-291.64 618.09,-292.34 622.95,-293.14 627.77,-294.04 632.52,-295.03 637.19,-296.11 641.77,-297.26 646.24,-298.49 650.6,-299.78 654.82,-301.14 658.91,-302.55 662.84,-304.02 666.61,-305.53 670.2,-307.09 673.61,-308.69 676.82,-310.33 679.84,-312 682.64,-313.7 685.22,-315.43 687.59,-317.19 689.72,-318.97 691.62,-320.77 693.28,-322.59 694.69,-324.43 695.86,-326.28 696.78,-328.16 697.45,-330.04 697.87,-331.94 698.04,-333.85 697.96,-335.77 697.63,-337.7 697.04,-339.64 696.22,-341.59 695.15,-343.54 693.84,-345.49 692.3,-347.44 690.53,-349.38 688.53,-351.33 686.31,-353.26 683.88,-355.18 681.25,-357.08 678.42,-358.96 675.39,-360.82 672.19,-362.64 668.81,-364.43 665.27,-366.17 661.58,-367.87 657.74,-369.51 653.76,-371.09 649.66,-372.6 645.45,-374.04 641.13,-375.4 636.72,-376.66 632.24,-377.84 627.68,-378.91 623.06,-379.87 618.4,-380.71 613.71,-381.44 609,-382.03 604.27,-382.5 599.55,-382.82 594.84,-383 590.16,-383.04 585.52,-382.92 580.93,-382.65 576.4,-382.22 571.95,-381.64 567.58,-380.9 563.31,-380 559.15,-378.94 555.11,-377.73 551.2,-376.36 547.44,-374.85 543.82,-373.19 540.37,-371.39 537.09,-369.45 533.99,-367.38 531.08,-365.2 528.37,-362.9 525.86,-360.5 523.57,-358 521.5,-355.41 519.65,-352.75 518.04,-350.03 516.67,-347.25 515.54,-344.44 514.66,-341.59 514.02,-338.72 513.64,-335.84"/>
<text text-anchor="middle" x="606" y="-331.77" font-family="sans-serif" font-size="16.00">Production</text>
</g>
<!-- ProductionPlanning&#45;&gt;Production -->
<g id="edge3" class="edge">
<title>ProductionPlanning&#45;&gt;Production</title>
<path fill="none" stroke="black" stroke-width="2" d="M389.9,-435.04C399.49,-422.43 411.4,-409.7 425,-401.05 453.93,-382.67 467.51,-393.98 500,-383.05 512,-379.02 524.51,-374.16 536.56,-369.11"/>
<text text-anchor="middle" x="500.5" y="-404.45" font-family="sans-serif" font-size="12.00"> &#160;&#160;&#160;&#160;&#160;&#160;&#160;&#160;&#160;&#160;&#160;&#160;&#160;&#160;&#160;&#160;&#160;&#160;&#160;&#160;&#160;&#160;&#160;&#160;&#160;&#160;&#160;&#160;&#160;&#160;&#160;&#160;&#160;&#160;&#160;&#160;&#160;&#160;&#160;</text>
<polygon fill="white" stroke="transparent" points="517.56,-359.11 517.56,-378.11 533.56,-378.11 533.56,-359.11 517.56,-359.11"/>
<polyline fill="none" stroke="black" points="533.56,-359.11 533.56,-378.11 "/>
<text text-anchor="start" x="520.56" y="-365.51" font-family="sans-serif" font-size="12.00">D</text>
<polygon fill="white" stroke="transparent" points="533.56,-359.11 533.56,-378.11 555.56,-378.11 555.56,-359.11 533.56,-359.11"/>
<polygon fill="none" stroke="black" points="533.56,-359.11 533.56,-378.11 555.56,-378.11 555.56,-359.11 533.56,-359.11"/>
<text text-anchor="start" x="536.56" y="-365.51" font-family="sans-serif" font-size="12.00">CF</text>
<polygon fill="white" stroke="transparent" points="382.9,-426.04 382.9,-443.04 396.9,-443.04 396.9,-426.04 382.9,-426.04"/>
<text text-anchor="start" x="384.9" y="-431.44" font-family="sans-serif" font-size="12.00">U</text>
</g>
<!-- Stocking -->
<g id="node4" class="node">
<title>Stocking</title>
<polygon fill="none" stroke="black" stroke-width="2" points="300.69,-154.85 305.05,-153.24 309.5,-151.74 314.03,-150.35 318.61,-149.09 323.24,-147.96 327.9,-146.96 332.56,-146.1 337.22,-145.39 341.85,-144.82 346.44,-144.4 350.98,-144.14 355.44,-144.02 359.83,-144.06 364.12,-144.26 368.3,-144.61 372.37,-145.11 376.31,-145.76 380.11,-146.56 383.76,-147.5 387.27,-148.59 390.61,-149.81 393.8,-151.17 396.81,-152.65 399.65,-154.24 402.32,-155.96 404.81,-157.78 407.13,-159.69 409.26,-161.7 411.22,-163.79 413,-165.96 414.59,-168.19 416.02,-170.49 417.27,-172.83 418.34,-175.21 419.24,-177.62 419.98,-180.05 420.54,-182.5 420.95,-184.96 421.18,-187.41 421.26,-189.86 421.19,-192.28 420.95,-194.68 420.56,-197.05 420.02,-199.38 419.33,-201.67 418.48,-203.9 417.49,-206.07 416.35,-208.19 415.06,-210.23 413.63,-212.21 412.05,-214.11 410.33,-215.93 408.46,-217.67 406.45,-219.32 404.29,-220.89 401.99,-222.37 399.55,-223.76 396.96,-225.05 394.24,-226.25 391.38,-227.36 388.38,-228.38 385.26,-229.3 382,-230.12 378.61,-230.85 375.11,-231.49 371.48,-232.03 367.75,-232.48 363.91,-232.83 359.97,-233.09 355.94,-233.26 351.84,-233.34 347.66,-233.32 343.42,-233.22 339.13,-233.02 334.8,-232.74 330.45,-232.36 326.08,-231.9 321.71,-231.35 317.36,-230.71 313.04,-229.99 308.77,-229.18 304.55,-228.28 300.41,-227.3 296.37,-226.23 292.43,-225.08 288.62,-223.84 284.95,-222.52 281.43,-221.12 278.09,-219.65 274.93,-218.09 271.97,-216.46 269.23,-214.75 266.71,-212.97 264.44,-211.12 262.41,-209.2 260.64,-207.22 259.15,-205.18 257.93,-203.09 257,-200.94 256.35,-198.75 256,-196.51 255.95,-194.24 256.19,-191.93 256.73,-189.6 257.57,-187.25 258.7,-184.89 260.13,-182.53 261.83,-180.17 263.81,-177.81 266.06,-175.48 268.57,-173.17 271.32,-170.89 274.32,-168.66 277.53,-166.47 280.96,-164.34 284.58,-162.28 288.38,-160.29 292.34,-158.39 296.45,-156.57 300.69,-154.85"/>
<text text-anchor="middle" x="345" y="-187.77" font-family="sans-serif" font-size="16.00">Stocking</text>
</g>
<!-- Production&#45;&gt;Stocking -->
<g id="edge4" class="edge">
<title>Production&#45;&gt;Stocking</title>
<path fill="none" stroke="black" stroke-width="2" d="M539.46,-298.37C496.72,-275.12 441.82,-245.24 401.26,-223.17"/>
<text text-anchor="middle" x="558.5" y="-260.49" font-family="sans-serif" font-size="12.00"> &#160;&#160;&#160;&#160;&#160;&#160;&#160;&#160;&#160;&#160;&#160;&#160;&#160;&#160;&#160;&#160;&#160;&#160;&#160;&#160;&#160;&#160;&#160;&#160;&#160;&#160;&#160;&#160;&#160;&#160;&#160;&#160;&#160;&#160;&#160;&#160;&#160;&#160;&#160;</text>
<polygon fill="white" stroke="transparent" points="382.26,-213.17 382.26,-232.17 398.26,-232.17 398.26,-213.17 382.26,-213.17"/>
<polyline fill="none" stroke="black" points="398.26,-213.17 398.26,-232.17 "/>
<text text-anchor="start" x="385.26" y="-219.57" font-family="sans-serif" font-size="12.00">D</text>
<polygon fill="white" stroke="transparent" points="398.26,-213.17 398.26,-232.17 420.26,-232.17 420.26,-213.17 398.26,-213.17"/>
<polygon fill="none" stroke="black" points="398.26,-213.17 398.26,-232.17 420.26,-232.17 420.26,-213.17 398.26,-213.17"/>
<text text-anchor="start" x="401.26" y="-219.57" font-family="sans-serif" font-size="12.00">CF</text>
<polygon fill="white" stroke="transparent" points="532.46,-289.37 532.46,-306.37 546.46,-306.37 546.46,-289.37 532.46,-289.37"/>
<text text-anchor="start" x="534.46" y="-294.77" font-family="sans-serif" font-size="12.00">U</text>
</g>
<!-- Stocking&#45;&gt;ClientOrders -->
<g id="edge6" class="edge">
<title>Stocking&#45;&gt;ClientOrders</title>
<path fill="none" stroke="black" stroke-width="2" d="M310.33,-229.49C275.81,-268.73 224.51,-334.2 200,-401.05 178.62,-459.35 175.89,-531.86 176.77,-577.26"/>
<text text-anchor="middle" x="275.5" y="-404.45" font-family="sans-serif" font-size="12.00"> &#160;&#160;&#160;&#160;&#160;&#160;&#160;&#160;&#160;&#160;&#160;&#160;&#160;&#160;&#160;&#160;&#160;&#160;&#160;&#160;&#160;&#160;&#160;&#160;&#160;&#160;&#160;&#160;&#160;&#160;&#160;&#160;&#160;&#160;&#160;&#160;&#160;&#160;&#160;</text>
<polygon fill="white" stroke="transparent" points="169.77,-568.26 169.77,-585.26 183.77,-585.26 183.77,-568.26 169.77,-568.26"/>
<text text-anchor="start" x="171.77" y="-573.66" font-family="sans-serif" font-size="12.00">D</text>
<polygon fill="white" stroke="transparent" points="275.33,-219.49 275.33,-238.49 291.33,-238.49 291.33,-219.49 275.33,-219.49"/>
<polyline fill="none" stroke="black" points="291.33,-219.49 291.33,-238.49 "/>
<text text-anchor="start" x="278.33" y="-225.89" font-family="sans-serif" font-size="12.00">U</text>
<polygon fill="white" stroke="transparent" points="291.33,-219.49 291.33,-238.49 346.33,-238.49 346.33,-219.49 291.33,-219.49"/>
<polygon fill="none" stroke="black" points="291.33,-219.49 291.33,-238.49 346.33,-238.49 346.33,-219.49 291.33,-219.49"/>
<text text-anchor="start" x="294.33" y="-225.89" font-family="sans-serif" font-size="12.00">OHS, PL</text>
</g>
<!-- Stocking&#45;&gt;ProductionPlanning -->
<g id="edge5" class="edge">
<title>Stocking&#45;&gt;ProductionPlanning</title>
<path fill="none" stroke="black" stroke-width="2" d="M346.24,-233.48C347.58,-272.09 350.06,-331.56 354,-383.05 355.26,-399.47 357.06,-417.45 358.79,-433.27"/>
<text text-anchor="middle" x="429.5" y="-332.47" font-family="sans-serif" font-size="12.00"> &#160;&#160;&#160;&#160;&#160;&#160;&#160;&#160;&#160;&#160;&#160;&#160;&#160;&#160;&#160;&#160;&#160;&#160;&#160;&#160;&#160;&#160;&#160;&#160;&#160;&#160;&#160;&#160;&#160;&#160;&#160;&#160;&#160;&#160;&#160;&#160;&#160;&#160;&#160;</text>
<polygon fill="white" stroke="transparent" points="335.79,-423.27 335.79,-442.27 351.79,-442.27 351.79,-423.27 335.79,-423.27"/>
<polyline fill="none" stroke="black" points="351.79,-423.27 351.79,-442.27 "/>
<text text-anchor="start" x="338.79" y="-429.67" font-family="sans-serif" font-size="12.00">D</text>
<polygon fill="white" stroke="transparent" points="351.79,-423.27 351.79,-442.27 381.79,-442.27 381.79,-423.27 351.79,-423.27"/>
<polygon fill="none" stroke="black" points="351.79,-423.27 351.79,-442.27 381.79,-442.27 381.79,-423.27 351.79,-423.27"/>
<text text-anchor="start" x="354.79" y="-429.67" font-family="sans-serif" font-size="12.00">ACL</text>
<polygon fill="white" stroke="transparent" points="339.24,-224.48 339.24,-241.48 353.24,-241.48 353.24,-224.48 339.24,-224.48"/>
<text text-anchor="start" x="341.24" y="-229.88" font-family="sans-serif" font-size="12.00">U</text>
</g>
<!-- Stocking&#45;&gt;MilkPlanning -->
<g id="edge7" class="edge">
<title>Stocking&#45;&gt;MilkPlanning</title>
<path fill="none" stroke="black" stroke-width="2" d="M345,-144.45C345,-128.57 345,-110.79 345,-94.89"/>
<text text-anchor="middle" x="420.5" y="-116.44" font-family="sans-serif" font-size="12.00"> &#160;&#160;&#160;&#160;&#160;&#160;&#160;&#160;&#160;&#160;&#160;&#160;&#160;&#160;&#160;&#160;&#160;&#160;&#160;&#160;&#160;&#160;&#160;&#160;&#160;&#160;&#160;&#160;&#160;&#160;&#160;&#160;&#160;&#160;&#160;&#160;&#160;&#160;&#160;</text>
<polygon fill="white" stroke="transparent" points="322,-84.89 322,-103.89 338,-103.89 338,-84.89 322,-84.89"/>
<polyline fill="none" stroke="black" points="338,-84.89 338,-103.89 "/>
<text text-anchor="start" x="325" y="-91.29" font-family="sans-serif" font-size="12.00">D</text>
<polygon fill="white" stroke="transparent" points="338,-84.89 338,-103.89 368,-103.89 368,-84.89 338,-84.89"/>
<polygon fill="none" stroke="black" points="338,-84.89 338,-103.89 368,-103.89 368,-84.89 338,-84.89"/>
<text text-anchor="start" x="341" y="-91.29" font-family="sans-serif" font-size="12.00">ACL</text>
<polygon fill="white" stroke="transparent" points="338,-135.45 338,-152.45 352,-152.45 352,-135.45 338,-135.45"/>
<text text-anchor="start" x="340" y="-140.85" font-family="sans-serif" font-size="12.00">U</text>
</g>
<!-- Restocking -->
<g id="node6" class="node">
<title>Restocking</title>
<polygon fill="none" stroke="black" stroke-width="2" points="630.79,-514.37 625.71,-512.78 620.81,-511.1 616.1,-509.33 611.62,-507.49 607.37,-505.59 603.37,-503.61 599.65,-501.58 596.21,-499.51 593.08,-497.39 590.25,-495.23 587.75,-493.05 585.59,-490.84 583.76,-488.62 582.28,-486.38 581.15,-484.15 580.37,-481.91 579.94,-479.69 579.87,-477.48 580.14,-475.28 580.76,-473.11 581.72,-470.97 583,-468.87 584.61,-466.8 586.53,-464.77 588.75,-462.79 591.26,-460.85 594.04,-458.97 597.08,-457.15 600.35,-455.38 603.86,-453.68 607.57,-452.04 611.48,-450.47 615.55,-448.97 619.79,-447.54 624.16,-446.19 628.64,-444.91 633.24,-443.71 637.91,-442.59 642.65,-441.56 647.44,-440.61 652.27,-439.74 657.11,-438.96 661.95,-438.28 666.79,-437.68 671.6,-437.18 676.37,-436.77 681.1,-436.46 685.77,-436.24 690.37,-436.13 694.89,-436.11 699.33,-436.2 703.68,-436.39 707.92,-436.68 712.06,-437.08 716.1,-437.58 720.02,-438.19 723.82,-438.9 727.5,-439.72 731.06,-440.64 734.49,-441.67 737.8,-442.8 740.98,-444.03 744.02,-445.36 746.94,-446.79 749.72,-448.32 752.37,-449.94 754.87,-451.66 757.24,-453.46 759.47,-455.34 761.56,-457.31 763.5,-459.35 765.29,-461.46 766.92,-463.63 768.41,-465.86 769.73,-468.15 770.88,-470.48 771.87,-472.85 772.68,-475.26 773.32,-477.68 773.77,-480.13 774.02,-482.58 774.08,-485.04 773.94,-487.49 773.59,-489.93 773.03,-492.34 772.25,-494.72 771.25,-497.06 770.02,-499.35 768.55,-501.59 766.85,-503.76 764.92,-505.86 762.74,-507.87 760.32,-509.8 757.66,-511.64 754.76,-513.37 751.62,-515 748.24,-516.52 744.63,-517.91 740.8,-519.18 736.75,-520.32 732.48,-521.33 728.02,-522.21 723.36,-522.95 718.53,-523.54 713.53,-523.99 708.38,-524.31 703.09,-524.47 697.68,-524.49 692.17,-524.37 686.58,-524.11 680.93,-523.71 675.24,-523.17 669.52,-522.5 663.81,-521.7 658.12,-520.76 652.47,-519.71 646.89,-518.54 641.41,-517.25 636.03,-515.86 630.79,-514.37"/>
<text text-anchor="middle" x="684" y="-474.57" font-family="sans-serif" font-size="16.00">Restocking</text>
</g>
<!-- Restocking&#45;&gt;Production -->
<g id="edge9" class="edge">
<title>Restocking&#45;&gt;Production</title>
<path fill="none" stroke="black" stroke-width="2" d="M617.15,-448.3C603.87,-439.31 591.68,-428.01 584,-414.05 578.74,-404.5 578.73,-393.57 581.25,-383"/>
<text text-anchor="middle" x="659.5" y="-404.45" font-family="sans-serif" font-size="12.00"> &#160;&#160;&#160;&#160;&#160;&#160;&#160;&#160;&#160;&#160;&#160;&#160;&#160;&#160;&#160;&#160;&#160;&#160;&#160;&#160;&#160;&#160;&#160;&#160;&#160;&#160;&#160;&#160;&#160;&#160;&#160;&#160;&#160;&#160;&#160;&#160;&#160;&#160;&#160;</text>
<polygon fill="white" stroke="transparent" points="558.25,-373 558.25,-392 574.25,-392 574.25,-373 558.25,-373"/>
<polyline fill="none" stroke="black" points="574.25,-373 574.25,-392 "/>
<text text-anchor="start" x="561.25" y="-379.4" font-family="sans-serif" font-size="12.00">D</text>
<polygon fill="white" stroke="transparent" points="574.25,-373 574.25,-392 604.25,-392 604.25,-373 574.25,-373"/>
<polygon fill="none" stroke="black" points="574.25,-373 574.25,-392 604.25,-392 604.25,-373 574.25,-373"/>
<text text-anchor="start" x="577.25" y="-379.4" font-family="sans-serif" font-size="12.00">ACL</text>
<polygon fill="white" stroke="transparent" points="610.15,-439.3 610.15,-456.3 624.15,-456.3 624.15,-439.3 610.15,-439.3"/>
<text text-anchor="start" x="612.15" y="-444.7" font-family="sans-serif" font-size="12.00">U</text>
</g>
<!-- Restocking&#45;&gt;MilkPlanning -->
<g id="edge8" class="edge">
<title>Restocking&#45;&gt;MilkPlanning</title>
<path fill="none" stroke="black" stroke-width="2" d="M721.96,-438.32C727.31,-430.79 732,-422.57 735,-414.05 748.18,-376.69 786.24,-415.64 707,-288.09 643.42,-185.75 602.83,-175.83 500,-113.04 477.74,-99.45 452.09,-87.47 428.16,-77.65"/>
<text text-anchor="middle" x="769.5" y="-260.49" font-family="sans-serif" font-size="12.00"> &#160;&#160;&#160;&#160;&#160;&#160;&#160;&#160;&#160;&#160;&#160;&#160;&#160;&#160;&#160;&#160;&#160;&#160;&#160;&#160;&#160;&#160;&#160;&#160;&#160;&#160;&#160;&#160;&#160;&#160;&#160;&#160;&#160;&#160;&#160;&#160;&#160;&#160;&#160;</text>
<polygon fill="white" stroke="transparent" points="405.16,-67.65 405.16,-86.65 421.16,-86.65 421.16,-67.65 405.16,-67.65"/>
<polyline fill="none" stroke="black" points="421.16,-67.65 421.16,-86.65 "/>
<text text-anchor="start" x="408.16" y="-74.05" font-family="sans-serif" font-size="12.00">D</text>
<polygon fill="white" stroke="transparent" points="421.16,-67.65 421.16,-86.65 451.16,-86.65 451.16,-67.65 421.16,-67.65"/>
<polygon fill="none" stroke="black" points="421.16,-67.65 421.16,-86.65 451.16,-86.65 451.16,-67.65 421.16,-67.65"/>
<text text-anchor="start" x="424.16" y="-74.05" font-family="sans-serif" font-size="12.00">ACL</text>
<polygon fill="white" stroke="transparent" points="714.96,-429.32 714.96,-446.32 728.96,-446.32 728.96,-429.32 714.96,-429.32"/>
<text text-anchor="start" x="716.96" y="-434.72" font-family="sans-serif" font-size="12.00">U</text>
</g>
</g>
</svg>
