<svg width="2000px" height="1824px"
 viewBox="0.00 0.00 751.00 684.58" xmlns="http://www.w3.org/2000/svg" xmlns:xlink="http://www.w3.org/1999/xlink">
<g id="graph0" class="graph" transform="scale(1.0 1.0) rotate(0) translate(4 680.58)">
<title>ContextMapGraph</title>
<polygon fill="white" stroke="transparent" points="-4,4 -4,-680.58 747,-680.58 747,4 -4,4"/>
<!-- ClientOrders -->
<g id="node1" class="node">
<title>ClientOrders</title>
<polygon fill="none" stroke="black" stroke-width="2" points="426.55,-598.53 431.22,-600.6 435.66,-602.74 439.84,-604.94 443.75,-607.19 447.38,-609.49 450.7,-611.83 453.7,-614.2 456.37,-616.59 458.7,-618.99 460.67,-621.39 462.29,-623.79 463.53,-626.18 464.41,-628.56 464.91,-630.91 465.03,-633.22 464.78,-635.5 464.15,-637.74 463.15,-639.93 461.79,-642.07 460.07,-644.15 458,-646.17 455.6,-648.12 452.86,-650.01 449.82,-651.82 446.47,-653.56 442.84,-655.22 438.95,-656.8 434.81,-658.31 430.43,-659.73 425.85,-661.06 421.07,-662.32 416.12,-663.48 411.02,-664.57 405.79,-665.56 400.45,-666.47 395.02,-667.29 389.51,-668.02 383.96,-668.67 378.38,-669.22 372.78,-669.69 367.19,-670.07 361.62,-670.37 356.09,-670.57 350.62,-670.68 345.22,-670.71 339.91,-670.64 334.69,-670.49 329.58,-670.24 324.6,-669.9 319.74,-669.47 315.03,-668.95 310.46,-668.34 306.06,-667.64 301.81,-666.84 297.73,-665.95 293.83,-664.96 290.1,-663.89 286.56,-662.72 283.19,-661.46 280.01,-660.11 277.02,-658.67 274.21,-657.14 271.6,-655.53 269.17,-653.83 266.94,-652.05 264.89,-650.19 263.04,-648.25 261.38,-646.24 259.91,-644.16 258.63,-642.02 257.55,-639.82 256.66,-637.56 255.96,-635.25 255.46,-632.9 255.16,-630.52 255.06,-628.1 255.15,-625.67 255.45,-623.21 255.96,-620.76 256.67,-618.3 257.59,-615.85 258.72,-613.42 260.06,-611.01 261.62,-608.65 263.4,-606.32 265.4,-604.05 267.61,-601.84 270.05,-599.7 272.71,-597.63 275.59,-595.66 278.68,-593.78 282,-592 285.53,-590.33 289.28,-588.78 293.23,-587.35 297.39,-586.05 301.75,-584.89 306.29,-583.87 311.02,-582.99 315.92,-582.26 320.98,-581.68 326.19,-581.25 331.54,-580.98 337.01,-580.87 342.59,-580.91 348.26,-581.11 354.01,-581.47 359.81,-581.97 365.66,-582.63 371.52,-583.44 377.38,-584.39 383.22,-585.48 389.02,-586.7 394.75,-588.06 400.39,-589.54 405.93,-591.13 411.33,-592.83 416.59,-594.64 421.67,-596.54 426.55,-598.53"/>
<text text-anchor="middle" x="352" y="-625.04" font-family="sans-serif" font-size="16.00">ClientOrders</text>
</g>
<!-- MilkPlanning -->
<g id="node2" class="node">
<title>MilkPlanning</title>
<polygon fill="none" stroke="black" stroke-width="2" points="208.1,-77.22 203.74,-79.42 199.19,-81.52 194.47,-83.52 189.59,-85.41 184.57,-87.18 179.43,-88.83 174.19,-90.35 168.87,-91.73 163.48,-92.97 158.04,-94.05 152.58,-94.98 147.09,-95.76 141.61,-96.38 136.15,-96.83 130.72,-97.12 125.34,-97.25 120.01,-97.22 114.76,-97.02 109.6,-96.67 104.53,-96.15 99.57,-95.48 94.73,-94.67 90.01,-93.7 85.43,-92.6 80.99,-91.36 76.7,-89.99 72.57,-88.51 68.6,-86.91 64.8,-85.2 61.18,-83.39 57.73,-81.5 54.46,-79.52 51.38,-77.47 48.49,-75.36 45.79,-73.18 43.28,-70.97 40.97,-68.71 38.87,-66.42 36.97,-64.11 35.27,-61.79 33.78,-59.46 32.51,-57.13 31.44,-54.8 30.59,-52.5 29.96,-50.21 29.55,-47.95 29.36,-45.72 29.4,-43.53 29.66,-41.38 30.15,-39.28 30.87,-37.23 31.83,-35.23 33.01,-33.29 34.44,-31.4 36.09,-29.58 37.99,-27.83 40.12,-26.14 42.48,-24.51 45.08,-22.95 47.92,-21.47 50.98,-20.05 54.27,-18.7 57.78,-17.43 61.51,-16.22 65.46,-15.09 69.61,-14.03 73.96,-13.04 78.51,-12.13 83.23,-11.29 88.13,-10.53 93.19,-9.84 98.4,-9.23 103.74,-8.7 109.2,-8.24 114.77,-7.87 120.43,-7.57 126.16,-7.36 131.95,-7.24 137.78,-7.2 143.63,-7.24 149.47,-7.38 155.3,-7.61 161.09,-7.93 166.82,-8.35 172.47,-8.86 178.02,-9.47 183.45,-10.18 188.73,-10.99 193.86,-11.9 198.81,-12.92 203.55,-14.04 208.08,-15.26 212.37,-16.59 216.41,-18.01 220.19,-19.54 223.68,-21.17 226.87,-22.9 229.75,-24.72 232.32,-26.63 234.55,-28.63 236.45,-30.72 238.01,-32.88 239.21,-35.12 240.06,-37.43 240.55,-39.8 240.68,-42.23 240.46,-44.7 239.89,-47.21 238.96,-49.76 237.69,-52.33 236.08,-54.91 234.14,-57.5 231.88,-60.08 229.31,-62.65 226.45,-65.2 223.29,-67.71 219.86,-70.18 216.18,-72.59 212.25,-74.94 208.1,-77.22"/>
<text text-anchor="middle" x="129" y="-44.95" font-family="sans-serif" font-size="16.00">MilkPlanning</text>
</g>
<!-- ClientOrders&#45;&gt;MilkPlanning -->
<g id="edge1" class="edge">
<title>ClientOrders&#45;&gt;MilkPlanning</title>
<path fill="none" stroke="black" stroke-width="2" d="M260.89,-609.49C156.6,-585.82 0,-540.88 0,-484.55 0,-484.55 0,-484.55 0,-194.05 0,-149.53 34.56,-112.44 67.9,-87.01"/>
<text text-anchor="middle" x="75.5" y="-336.2" font-family="sans-serif" font-size="12.00"> &#160;&#160;&#160;&#160;&#160;&#160;&#160;&#160;&#160;&#160;&#160;&#160;&#160;&#160;&#160;&#160;&#160;&#160;&#160;&#160;&#160;&#160;&#160;&#160;&#160;&#160;&#160;&#160;&#160;&#160;&#160;&#160;&#160;&#160;&#160;&#160;&#160;&#160;&#160;</text>
<polygon fill="white" stroke="transparent" points="44.9,-77.01 44.9,-96.01 60.9,-96.01 60.9,-77.01 44.9,-77.01"/>
<polyline fill="none" stroke="black" points="60.9,-77.01 60.9,-96.01 "/>
<text text-anchor="start" x="47.9" y="-83.41" font-family="sans-serif" font-size="12.00">D</text>
<polygon fill="white" stroke="transparent" points="60.9,-77.01 60.9,-96.01 90.9,-96.01 90.9,-77.01 60.9,-77.01"/>
<polygon fill="none" stroke="black" points="60.9,-77.01 60.9,-96.01 90.9,-96.01 90.9,-77.01 60.9,-77.01"/>
<text text-anchor="start" x="63.9" y="-83.41" font-family="sans-serif" font-size="12.00">ACL</text>
<polygon fill="white" stroke="transparent" points="253.89,-600.49 253.89,-617.49 267.89,-617.49 267.89,-600.49 253.89,-600.49"/>
<text text-anchor="start" x="255.89" y="-605.89" font-family="sans-serif" font-size="12.00">U</text>
</g>
<!-- ProductionPlanning -->
<g id="node3" class="node">
<title>ProductionPlanning</title>
<polygon fill="none" stroke="black" stroke-width="2" points="453.38,-514.46 446.94,-516.53 440.25,-518.51 433.36,-520.38 426.27,-522.13 419.03,-523.77 411.65,-525.27 404.16,-526.64 396.59,-527.87 388.96,-528.95 381.3,-529.88 373.63,-530.65 365.98,-531.27 358.37,-531.73 350.82,-532.03 343.35,-532.16 335.98,-532.13 328.73,-531.94 321.61,-531.59 314.65,-531.08 307.86,-530.41 301.25,-529.6 294.83,-528.63 288.62,-527.53 282.62,-526.28 276.85,-524.91 271.32,-523.41 266.02,-521.8 260.98,-520.08 256.18,-518.25 251.65,-516.33 247.38,-514.33 243.37,-512.25 239.64,-510.1 236.17,-507.89 232.99,-505.63 230.08,-503.33 227.44,-501 225.09,-498.64 223.02,-496.26 221.24,-493.88 219.74,-491.5 218.53,-489.12 217.61,-486.76 216.97,-484.42 216.63,-482.1 216.59,-479.82 216.84,-477.58 217.38,-475.38 218.23,-473.23 219.38,-471.14 220.83,-469.1 222.58,-467.12 224.64,-465.21 227.01,-463.36 229.69,-461.58 232.67,-459.87 235.96,-458.24 239.55,-456.68 243.45,-455.19 247.65,-453.78 252.15,-452.45 256.94,-451.19 262.02,-450.01 267.38,-448.92 273.02,-447.9 278.92,-446.95 285.08,-446.09 291.48,-445.31 298.12,-444.61 304.97,-443.99 312.02,-443.44 319.26,-442.98 326.66,-442.61 334.21,-442.31 341.89,-442.1 349.68,-441.97 357.54,-441.93 365.46,-441.97 373.42,-442.1 381.38,-442.32 389.32,-442.63 397.22,-443.03 405.04,-443.52 412.75,-444.11 420.34,-444.79 427.77,-445.57 435.01,-446.44 442.03,-447.41 448.81,-448.48 455.32,-449.64 461.54,-450.9 467.44,-452.26 472.99,-453.72 478.17,-455.27 482.97,-456.92 487.36,-458.66 491.32,-460.48 494.84,-462.39 497.9,-464.39 500.49,-466.47 502.61,-468.61 504.23,-470.83 505.36,-473.12 505.99,-475.46 506.13,-477.85 505.76,-480.29 504.9,-482.77 503.54,-485.27 501.7,-487.8 499.38,-490.34 496.6,-492.89 493.37,-495.43 489.7,-497.96 485.61,-500.46 481.12,-502.93 476.25,-505.36 471.02,-507.74 465.44,-510.05 459.56,-512.29 453.38,-514.46"/>
<text text-anchor="middle" x="352" y="-479.75" font-family="sans-serif" font-size="16.00">ProductionPlanning</text>
</g>
<!-- ClientOrders&#45;&gt;ProductionPlanning -->
<g id="edge2" class="edge">
<title>ClientOrders&#45;&gt;ProductionPlanning</title>
<path fill="none" stroke="black" stroke-width="2" d="M352,-581.32C352,-565.63 352,-548.1 352,-532.32"/>
<text text-anchor="middle" x="427.5" y="-553.51" font-family="sans-serif" font-size="12.00"> &#160;&#160;&#160;&#160;&#160;&#160;&#160;&#160;&#160;&#160;&#160;&#160;&#160;&#160;&#160;&#160;&#160;&#160;&#160;&#160;&#160;&#160;&#160;&#160;&#160;&#160;&#160;&#160;&#160;&#160;&#160;&#160;&#160;&#160;&#160;&#160;&#160;&#160;&#160;</text>
<polygon fill="white" stroke="transparent" points="329,-522.32 329,-541.32 345,-541.32 345,-522.32 329,-522.32"/>
<polyline fill="none" stroke="black" points="345,-522.32 345,-541.32 "/>
<text text-anchor="start" x="332" y="-528.72" font-family="sans-serif" font-size="12.00">D</text>
<polygon fill="white" stroke="transparent" points="345,-522.32 345,-541.32 375,-541.32 375,-522.32 345,-522.32"/>
<polygon fill="none" stroke="black" points="345,-522.32 345,-541.32 375,-541.32 375,-522.32 345,-522.32"/>
<text text-anchor="start" x="348" y="-528.72" font-family="sans-serif" font-size="12.00">ACL</text>
<polygon fill="white" stroke="transparent" points="345,-572.32 345,-589.32 359,-589.32 359,-572.32 345,-572.32"/>
<text text-anchor="start" x="347" y="-577.72" font-family="sans-serif" font-size="12.00">U</text>
</g>
<!-- Stocking -->
<g id="node5" class="node">
<title>Stocking</title>
<polygon fill="none" stroke="black" stroke-width="2" points="320.29,-220.44 317.18,-218.13 314.27,-215.76 311.58,-213.34 309.11,-210.89 306.87,-208.41 304.88,-205.91 303.15,-203.41 301.68,-200.9 300.47,-198.4 299.55,-195.91 298.9,-193.45 298.54,-191.03 298.46,-188.64 298.67,-186.3 299.16,-184.01 299.94,-181.78 300.99,-179.62 302.33,-177.52 303.93,-175.5 305.8,-173.55 307.92,-171.69 310.29,-169.91 312.89,-168.22 315.72,-166.62 318.77,-165.11 322.01,-163.69 325.44,-162.36 329.05,-161.13 332.81,-159.99 336.72,-158.95 340.75,-158 344.9,-157.15 349.15,-156.39 353.47,-155.72 357.86,-155.14 362.29,-154.66 366.76,-154.27 371.25,-153.96 375.73,-153.75 380.21,-153.62 384.65,-153.58 389.06,-153.62 393.41,-153.75 397.7,-153.96 401.91,-154.26 406.03,-154.64 410.05,-155.11 413.96,-155.65 417.75,-156.28 421.42,-156.99 424.96,-157.79 428.35,-158.66 431.6,-159.62 434.7,-160.65 437.65,-161.77 440.44,-162.97 443.07,-164.25 445.53,-165.61 447.83,-167.05 449.96,-168.57 451.92,-170.17 453.72,-171.84 455.34,-173.58 456.8,-175.4 458.08,-177.28 459.2,-179.24 460.15,-181.25 460.93,-183.33 461.55,-185.46 462,-187.65 462.28,-189.88 462.4,-192.15 462.36,-194.46 462.15,-196.81 461.78,-199.17 461.25,-201.55 460.55,-203.94 459.7,-206.34 458.68,-208.73 457.5,-211.11 456.16,-213.46 454.67,-215.78 453.01,-218.07 451.19,-220.31 449.22,-222.49 447.09,-224.61 444.8,-226.65 442.37,-228.61 439.77,-230.48 437.03,-232.26 434.14,-233.92 431.11,-235.48 427.94,-236.91 424.63,-238.21 421.19,-239.38 417.63,-240.41 413.94,-241.29 410.14,-242.03 406.24,-242.61 402.25,-243.04 398.16,-243.31 394,-243.42 389.77,-243.36 385.48,-243.15 381.15,-242.78 376.79,-242.24 372.41,-241.55 368.02,-240.71 363.64,-239.71 359.28,-238.57 354.96,-237.28 350.69,-235.86 346.5,-234.31 342.38,-232.64 338.36,-230.85 334.46,-228.95 330.69,-226.95 327.06,-224.86 323.59,-222.69 320.29,-220.44"/>
<text text-anchor="middle" x="386" y="-191.25" font-family="sans-serif" font-size="16.00">Stocking</text>
</g>
<!-- ClientOrders&#45;&gt;Stocking -->
<g id="edge3" class="edge">
<title>ClientOrders&#45;&gt;Stocking</title>
<path fill="none" stroke="black" stroke-width="2" d="M438.78,-604.06C462.95,-594.32 487.8,-581 507,-563.11 571.43,-503.03 575.67,-471.72 596,-386 605.58,-345.61 618.4,-327.55 596,-292.61 565.96,-245.73 506.79,-221.31 458.9,-208.76"/>
<text text-anchor="middle" x="667.5" y="-407.4" font-family="sans-serif" font-size="12.00"> &#160;&#160;&#160;&#160;&#160;&#160;&#160;&#160;&#160;&#160;&#160;&#160;&#160;&#160;&#160;&#160;&#160;&#160;&#160;&#160;&#160;&#160;&#160;&#160;&#160;&#160;&#160;&#160;&#160;&#160;&#160;&#160;&#160;&#160;&#160;&#160;&#160;&#160;&#160;</text>
<polygon fill="white" stroke="transparent" points="435.9,-198.76 435.9,-217.76 451.9,-217.76 451.9,-198.76 435.9,-198.76"/>
<polyline fill="none" stroke="black" points="451.9,-198.76 451.9,-217.76 "/>
<text text-anchor="start" x="438.9" y="-205.16" font-family="sans-serif" font-size="12.00">D</text>
<polygon fill="white" stroke="transparent" points="451.9,-198.76 451.9,-217.76 481.9,-217.76 481.9,-198.76 451.9,-198.76"/>
<polygon fill="none" stroke="black" points="451.9,-198.76 451.9,-217.76 481.9,-217.76 481.9,-198.76 451.9,-198.76"/>
<text text-anchor="start" x="454.9" y="-205.16" font-family="sans-serif" font-size="12.00">ACL</text>
<polygon fill="white" stroke="transparent" points="431.78,-595.06 431.78,-612.06 445.78,-612.06 445.78,-595.06 431.78,-595.06"/>
<text text-anchor="start" x="433.78" y="-600.46" font-family="sans-serif" font-size="12.00">U</text>
</g>
<!-- Production -->
<g id="node4" class="node">
<title>Production</title>
<polygon fill="none" stroke="black" stroke-width="2" points="230.13,-299.77 235.48,-298.45 240.91,-297.25 246.4,-296.18 251.92,-295.22 257.46,-294.41 262.99,-293.72 268.5,-293.18 273.96,-292.78 279.36,-292.52 284.67,-292.41 289.88,-292.45 294.98,-292.63 299.94,-292.97 304.75,-293.45 309.41,-294.07 313.89,-294.85 318.19,-295.76 322.29,-296.81 326.2,-297.99 329.89,-299.31 333.37,-300.75 336.64,-302.31 339.68,-303.99 342.49,-305.77 345.08,-307.65 347.44,-309.63 349.58,-311.7 351.48,-313.84 353.17,-316.05 354.63,-318.33 355.87,-320.66 356.9,-323.04 357.72,-325.45 358.33,-327.9 358.74,-330.36 358.95,-332.84 358.97,-335.31 358.8,-337.79 358.44,-340.25 357.91,-342.69 357.2,-345.1 356.32,-347.48 355.27,-349.81 354.06,-352.1 352.7,-354.33 351.17,-356.49 349.49,-358.59 347.66,-360.62 345.68,-362.58 343.55,-364.45 341.27,-366.24 338.85,-367.93 336.29,-369.54 333.58,-371.06 330.74,-372.47 327.75,-373.79 324.63,-375.01 321.37,-376.13 317.98,-377.15 314.45,-378.06 310.8,-378.87 307.01,-379.58 303.11,-380.18 299.08,-380.69 294.95,-381.08 290.7,-381.38 286.35,-381.58 281.91,-381.68 277.38,-381.67 272.77,-381.57 268.09,-381.37 263.36,-381.08 258.58,-380.69 253.76,-380.21 248.93,-379.64 244.09,-378.98 239.25,-378.23 234.44,-377.39 229.67,-376.46 224.96,-375.45 220.32,-374.36 215.77,-373.18 211.33,-371.92 207.01,-370.59 202.84,-369.18 198.84,-367.69 195.01,-366.14 191.38,-364.51 187.97,-362.81 184.78,-361.05 181.85,-359.23 179.17,-357.34 176.77,-355.4 174.66,-353.41 172.86,-351.36 171.36,-349.27 170.18,-347.14 169.34,-344.97 168.83,-342.77 168.66,-340.54 168.83,-338.29 169.35,-336.02 170.21,-333.74 171.42,-331.46 172.97,-329.17 174.86,-326.9 177.07,-324.64 179.61,-322.4 182.46,-320.18 185.6,-318.01 189.04,-315.87 192.74,-313.79 196.7,-311.76 200.91,-309.8 205.33,-307.91 209.97,-306.1 214.78,-304.37 219.76,-302.74 224.89,-301.2 230.13,-299.77"/>
<text text-anchor="middle" x="271" y="-335.5" font-family="sans-serif" font-size="16.00">Production</text>
</g>
<!-- ProductionPlanning&#45;&gt;Production -->
<g id="edge4" class="edge">
<title>ProductionPlanning&#45;&gt;Production</title>
<path fill="none" stroke="black" stroke-width="2" d="M293.31,-445.09C284.71,-436.92 277.06,-427.52 272,-417 266.74,-406.08 265.1,-393.23 265.16,-381.21"/>
<text text-anchor="middle" x="347.5" y="-407.4" font-family="sans-serif" font-size="12.00"> &#160;&#160;&#160;&#160;&#160;&#160;&#160;&#160;&#160;&#160;&#160;&#160;&#160;&#160;&#160;&#160;&#160;&#160;&#160;&#160;&#160;&#160;&#160;&#160;&#160;&#160;&#160;&#160;&#160;&#160;&#160;&#160;&#160;&#160;&#160;&#160;&#160;&#160;&#160;</text>
<polygon fill="white" stroke="transparent" points="246.16,-371.21 246.16,-390.21 262.16,-390.21 262.16,-371.21 246.16,-371.21"/>
<polyline fill="none" stroke="black" points="262.16,-371.21 262.16,-390.21 "/>
<text text-anchor="start" x="249.16" y="-377.61" font-family="sans-serif" font-size="12.00">D</text>
<polygon fill="white" stroke="transparent" points="262.16,-371.21 262.16,-390.21 284.16,-390.21 284.16,-371.21 262.16,-371.21"/>
<polygon fill="none" stroke="black" points="262.16,-371.21 262.16,-390.21 284.16,-390.21 284.16,-371.21 262.16,-371.21"/>
<text text-anchor="start" x="265.16" y="-377.61" font-family="sans-serif" font-size="12.00">CF</text>
<polygon fill="white" stroke="transparent" points="286.31,-436.09 286.31,-453.09 300.31,-453.09 300.31,-436.09 286.31,-436.09"/>
<text text-anchor="start" x="288.31" y="-441.49" font-family="sans-serif" font-size="12.00">U</text>
</g>
<!-- Production&#45;&gt;Stocking -->
<g id="edge5" class="edge">
<title>Production&#45;&gt;Stocking</title>
<path fill="none" stroke="black" stroke-width="2" d="M264.09,-293.22C264.38,-282.28 266.47,-271.02 272,-261.61 282.69,-243.4 300.54,-229.79 318.98,-219.83"/>
<text text-anchor="middle" x="347.5" y="-265.01" font-family="sans-serif" font-size="12.00"> &#160;&#160;&#160;&#160;&#160;&#160;&#160;&#160;&#160;&#160;&#160;&#160;&#160;&#160;&#160;&#160;&#160;&#160;&#160;&#160;&#160;&#160;&#160;&#160;&#160;&#160;&#160;&#160;&#160;&#160;&#160;&#160;&#160;&#160;&#160;&#160;&#160;&#160;&#160;</text>
<polygon fill="white" stroke="transparent" points="299.98,-209.83 299.98,-228.83 315.98,-228.83 315.98,-209.83 299.98,-209.83"/>
<polyline fill="none" stroke="black" points="315.98,-209.83 315.98,-228.83 "/>
<text text-anchor="start" x="302.98" y="-216.23" font-family="sans-serif" font-size="12.00">D</text>
<polygon fill="white" stroke="transparent" points="315.98,-209.83 315.98,-228.83 337.98,-228.83 337.98,-209.83 315.98,-209.83"/>
<polygon fill="none" stroke="black" points="315.98,-209.83 315.98,-228.83 337.98,-228.83 337.98,-209.83 315.98,-209.83"/>
<text text-anchor="start" x="318.98" y="-216.23" font-family="sans-serif" font-size="12.00">CF</text>
<polygon fill="white" stroke="transparent" points="257.09,-284.22 257.09,-301.22 271.09,-301.22 271.09,-284.22 257.09,-284.22"/>
<text text-anchor="start" x="259.09" y="-289.62" font-family="sans-serif" font-size="12.00">U</text>
</g>
<!-- Restocking -->
<g id="node6" class="node">
<title>Restocking</title>
<polygon fill="none" stroke="black" stroke-width="2" points="207.26,-170.87 210.7,-173.25 213.91,-175.68 216.86,-178.15 219.55,-180.65 221.96,-183.18 224.09,-185.72 225.92,-188.27 227.44,-190.81 228.65,-193.33 229.54,-195.84 230.11,-198.32 230.35,-200.76 230.27,-203.15 229.85,-205.49 229.11,-207.77 228.04,-209.99 226.65,-212.14 224.94,-214.22 222.93,-216.21 220.61,-218.13 218.01,-219.95 215.12,-221.69 211.97,-223.33 208.56,-224.89 204.91,-226.34 201.03,-227.7 196.94,-228.97 192.66,-230.13 188.2,-231.2 183.58,-232.17 178.82,-233.04 173.94,-233.82 168.95,-234.5 163.88,-235.09 158.73,-235.58 153.54,-235.98 148.32,-236.29 143.08,-236.51 137.85,-236.64 132.64,-236.68 127.47,-236.64 122.35,-236.51 117.3,-236.3 112.34,-236 107.47,-235.62 102.71,-235.16 98.07,-234.62 93.57,-234 89.21,-233.3 85,-232.52 80.95,-231.65 77.06,-230.71 73.36,-229.69 69.83,-228.59 66.49,-227.42 63.34,-226.16 60.38,-224.83 57.62,-223.42 55.05,-221.93 52.69,-220.37 50.53,-218.74 48.57,-217.03 46.81,-215.25 45.25,-213.4 43.9,-211.49 42.74,-209.51 41.79,-207.47 41.03,-205.37 40.48,-203.23 40.12,-201.03 39.95,-198.79 39.98,-196.51 40.21,-194.19 40.62,-191.85 41.23,-189.49 42.03,-187.11 43.01,-184.73 44.19,-182.34 45.55,-179.97 47.09,-177.61 48.82,-175.28 50.74,-172.98 52.83,-170.72 55.11,-168.51 57.57,-166.36 60.2,-164.28 63.01,-162.28 65.99,-160.36 69.14,-158.53 72.46,-156.81 75.94,-155.19 79.58,-153.7 83.38,-152.32 87.32,-151.08 91.4,-149.97 95.62,-149.01 99.97,-148.19 104.44,-147.53 109.02,-147.02 113.69,-146.67 118.46,-146.48 123.31,-146.45 128.22,-146.58 133.19,-146.88 138.19,-147.33 143.22,-147.95 148.27,-148.73 153.3,-149.66 158.32,-150.74 163.3,-151.97 168.22,-153.34 173.08,-154.84 177.84,-156.47 182.5,-158.23 187.03,-160.1 191.43,-162.07 195.67,-164.15 199.73,-166.31 203.6,-168.56 207.26,-170.87"/>
<text text-anchor="middle" x="129" y="-191.25" font-family="sans-serif" font-size="16.00">Restocking</text>
</g>
<!-- Production&#45;&gt;Restocking -->
<g id="edge6" class="edge">
<title>Production&#45;&gt;Restocking</title>
<path fill="none" stroke="black" stroke-width="2" d="M199.86,-310.12C158.25,-293.56 113.7,-275.65 113,-274.61 105.37,-263.3 105.92,-249.14 109.52,-235.97"/>
<text text-anchor="middle" x="188.5" y="-265.01" font-family="sans-serif" font-size="12.00"> &#160;&#160;&#160;&#160;&#160;&#160;&#160;&#160;&#160;&#160;&#160;&#160;&#160;&#160;&#160;&#160;&#160;&#160;&#160;&#160;&#160;&#160;&#160;&#160;&#160;&#160;&#160;&#160;&#160;&#160;&#160;&#160;&#160;&#160;&#160;&#160;&#160;&#160;&#160;</text>
<polygon fill="white" stroke="transparent" points="102.52,-226.97 102.52,-243.97 116.52,-243.97 116.52,-226.97 102.52,-226.97"/>
<text text-anchor="start" x="104.52" y="-232.37" font-family="sans-serif" font-size="12.00">D</text>
<polygon fill="white" stroke="transparent" points="164.86,-300.12 164.86,-319.12 180.86,-319.12 180.86,-300.12 164.86,-300.12"/>
<polyline fill="none" stroke="black" points="180.86,-300.12 180.86,-319.12 "/>
<text text-anchor="start" x="167.86" y="-306.52" font-family="sans-serif" font-size="12.00">U</text>
<polygon fill="white" stroke="transparent" points="180.86,-300.12 180.86,-319.12 235.86,-319.12 235.86,-300.12 180.86,-300.12"/>
<polygon fill="none" stroke="black" points="180.86,-300.12 180.86,-319.12 235.86,-319.12 235.86,-300.12 180.86,-300.12"/>
<text text-anchor="start" x="183.86" y="-306.52" font-family="sans-serif" font-size="12.00">OHS, PL</text>
</g>
<!-- Stocking&#45;&gt;MilkPlanning -->
<g id="edge7" class="edge">
<title>Stocking&#45;&gt;MilkPlanning</title>
<path fill="none" stroke="black" stroke-width="2" d="M343.05,-157.06C325.46,-142.97 304.46,-127.45 284,-115.5 259.77,-101.35 231.92,-88.56 206.56,-78.11"/>
<text text-anchor="middle" x="377.5" y="-118.9" font-family="sans-serif" font-size="12.00"> &#160;&#160;&#160;&#160;&#160;&#160;&#160;&#160;&#160;&#160;&#160;&#160;&#160;&#160;&#160;&#160;&#160;&#160;&#160;&#160;&#160;&#160;&#160;&#160;&#160;&#160;&#160;&#160;&#160;&#160;&#160;&#160;&#160;&#160;&#160;&#160;&#160;&#160;&#160;</text>
<polygon fill="white" stroke="transparent" points="183.56,-68.11 183.56,-87.11 199.56,-87.11 199.56,-68.11 183.56,-68.11"/>
<polyline fill="none" stroke="black" points="199.56,-68.11 199.56,-87.11 "/>
<text text-anchor="start" x="186.56" y="-74.51" font-family="sans-serif" font-size="12.00">D</text>
<polygon fill="white" stroke="transparent" points="199.56,-68.11 199.56,-87.11 229.56,-87.11 229.56,-68.11 199.56,-68.11"/>
<polygon fill="none" stroke="black" points="199.56,-68.11 199.56,-87.11 229.56,-87.11 229.56,-68.11 199.56,-68.11"/>
<text text-anchor="start" x="202.56" y="-74.51" font-family="sans-serif" font-size="12.00">ACL</text>
<polygon fill="white" stroke="transparent" points="336.05,-148.06 336.05,-165.06 350.05,-165.06 350.05,-148.06 336.05,-148.06"/>
<text text-anchor="start" x="338.05" y="-153.46" font-family="sans-serif" font-size="12.00">U</text>
</g>
<!-- Stocking&#45;&gt;ProductionPlanning -->
<g id="edge8" class="edge">
<title>Stocking&#45;&gt;ProductionPlanning</title>
<path fill="none" stroke="black" stroke-width="2" d="M415.41,-241.34C418.52,-247.92 421.21,-254.78 423,-261.61 440.55,-328.4 450.7,-353.73 423,-417 418.76,-426.68 412.31,-435.57 404.99,-443.46"/>
<text text-anchor="middle" x="516.5" y="-336.2" font-family="sans-serif" font-size="12.00"> &#160;&#160;&#160;&#160;&#160;&#160;&#160;&#160;&#160;&#160;&#160;&#160;&#160;&#160;&#160;&#160;&#160;&#160;&#160;&#160;&#160;&#160;&#160;&#160;&#160;&#160;&#160;&#160;&#160;&#160;&#160;&#160;&#160;&#160;&#160;&#160;&#160;&#160;&#160;</text>
<polygon fill="white" stroke="transparent" points="381.99,-433.46 381.99,-452.46 397.99,-452.46 397.99,-433.46 381.99,-433.46"/>
<polyline fill="none" stroke="black" points="397.99,-433.46 397.99,-452.46 "/>
<text text-anchor="start" x="384.99" y="-439.86" font-family="sans-serif" font-size="12.00">D</text>
<polygon fill="white" stroke="transparent" points="397.99,-433.46 397.99,-452.46 427.99,-452.46 427.99,-433.46 397.99,-433.46"/>
<polygon fill="none" stroke="black" points="397.99,-433.46 397.99,-452.46 427.99,-452.46 427.99,-433.46 397.99,-433.46"/>
<text text-anchor="start" x="400.99" y="-439.86" font-family="sans-serif" font-size="12.00">ACL</text>
<polygon fill="white" stroke="transparent" points="408.41,-232.34 408.41,-249.34 422.41,-249.34 422.41,-232.34 408.41,-232.34"/>
<text text-anchor="start" x="410.41" y="-237.74" font-family="sans-serif" font-size="12.00">U</text>
</g>
<!-- Restocking&#45;&gt;MilkPlanning -->
<g id="edge9" class="edge">
<title>Restocking&#45;&gt;MilkPlanning</title>
<path fill="none" stroke="black" stroke-width="2" d="M129,-146.4C129,-130.64 129,-113.11 129,-97.35"/>
<text text-anchor="middle" x="204.5" y="-118.9" font-family="sans-serif" font-size="12.00"> &#160;&#160;&#160;&#160;&#160;&#160;&#160;&#160;&#160;&#160;&#160;&#160;&#160;&#160;&#160;&#160;&#160;&#160;&#160;&#160;&#160;&#160;&#160;&#160;&#160;&#160;&#160;&#160;&#160;&#160;&#160;&#160;&#160;&#160;&#160;&#160;&#160;&#160;&#160;</text>
<polygon fill="white" stroke="transparent" points="106,-87.35 106,-106.35 122,-106.35 122,-87.35 106,-87.35"/>
<polyline fill="none" stroke="black" points="122,-87.35 122,-106.35 "/>
<text text-anchor="start" x="109" y="-93.75" font-family="sans-serif" font-size="12.00">D</text>
<polygon fill="white" stroke="transparent" points="122,-87.35 122,-106.35 152,-106.35 152,-87.35 122,-87.35"/>
<polygon fill="none" stroke="black" points="122,-87.35 122,-106.35 152,-106.35 152,-87.35 122,-87.35"/>
<text text-anchor="start" x="125" y="-93.75" font-family="sans-serif" font-size="12.00">ACL</text>
<polygon fill="white" stroke="transparent" points="122,-137.4 122,-154.4 136,-154.4 136,-137.4 122,-137.4"/>
<text text-anchor="start" x="124" y="-142.8" font-family="sans-serif" font-size="12.00">U</text>
</g>
</g>
</svg>
