<svg width="2000px" height="1550px"
 viewBox="0.00 0.00 866.01 671.30" xmlns="http://www.w3.org/2000/svg" xmlns:xlink="http://www.w3.org/1999/xlink">
<g id="graph0" class="graph" transform="scale(1.0 1.0) rotate(0) translate(4 667.3)">
<title>ContextMapGraph</title>
<polygon fill="white" stroke="transparent" points="-4,4 -4,-667.3 862.01,-667.3 862.01,4 -4,4"/>
<!-- ClientOrders -->
<g id="node1" class="node">
<title>ClientOrders</title>
<polygon fill="none" stroke="black" stroke-width="2" points="563.51,-616.45 563.54,-619.31 563.28,-622.15 562.74,-624.96 561.91,-627.73 560.81,-630.45 559.42,-633.1 557.76,-635.68 555.83,-638.18 553.64,-640.58 551.18,-642.88 548.47,-645.07 545.51,-647.15 542.31,-649.1 538.88,-650.93 535.23,-652.62 531.37,-654.17 527.3,-655.58 523.05,-656.85 518.63,-657.97 514.03,-658.94 509.29,-659.77 504.41,-660.45 499.4,-660.98 494.29,-661.37 489.08,-661.62 483.79,-661.73 478.44,-661.71 473.03,-661.55 467.6,-661.26 462.14,-660.86 456.69,-660.33 451.25,-659.7 445.83,-658.96 440.47,-658.12 435.16,-657.18 429.93,-656.15 424.79,-655.04 419.75,-653.86 414.84,-652.6 410.06,-651.27 405.42,-649.88 400.95,-648.44 396.64,-646.94 392.53,-645.4 388.6,-643.82 384.89,-642.19 381.38,-640.53 378.11,-638.84 375.07,-637.12 372.27,-635.38 369.72,-633.61 367.42,-631.82 365.39,-630.01 363.63,-628.18 362.13,-626.33 360.91,-624.47 359.96,-622.6 359.29,-620.71 358.91,-618.82 358.8,-616.91 358.97,-614.99 359.41,-613.07 360.14,-611.14 361.13,-609.21 362.4,-607.28 363.93,-605.34 365.72,-603.41 367.77,-601.48 370.06,-599.56 372.6,-597.66 375.38,-595.76 378.38,-593.89 381.6,-592.04 385.03,-590.21 388.66,-588.42 392.48,-586.67 396.48,-584.96 400.65,-583.3 404.97,-581.69 409.45,-580.15 414.06,-578.67 418.8,-577.28 423.64,-575.96 428.58,-574.73 433.61,-573.6 438.71,-572.57 443.87,-571.65 449.08,-570.84 454.32,-570.16 459.57,-569.61 464.84,-569.18 470.09,-568.9 475.32,-568.76 480.52,-568.76 485.66,-568.92 490.75,-569.22 495.75,-569.69 500.67,-570.3 505.49,-571.08 510.19,-572.01 514.76,-573.1 519.2,-574.34 523.48,-575.74 527.6,-577.28 531.54,-578.97 535.3,-580.79 538.86,-582.75 542.22,-584.83 545.36,-587.04 548.27,-589.35 550.96,-591.77 553.4,-594.28 555.59,-596.87 557.53,-599.54 559.21,-602.27 560.62,-605.05 561.76,-607.87 562.62,-610.71 563.21,-613.58 563.51,-616.45"/>
<text text-anchor="middle" x="461.01" y="-612.16" font-family="sans-serif" font-size="16.00">ClientOrders</text>
</g>
<!-- MilkPlanning -->
<g id="node2" class="node">
<title>MilkPlanning</title>
<polygon fill="none" stroke="black" stroke-width="2" points="74.9,-85.28 68.58,-84.22 62.41,-83.05 56.42,-81.78 50.62,-80.42 45.05,-78.96 39.73,-77.42 34.67,-75.79 29.9,-74.09 25.44,-72.32 21.3,-70.49 17.49,-68.59 14.04,-66.64 10.95,-64.64 8.23,-62.6 5.89,-60.52 3.94,-58.41 2.37,-56.27 1.2,-54.12 0.41,-51.94 0.01,-49.76 -0.01,-47.57 0.35,-45.38 1.08,-43.2 2.17,-41.03 3.6,-38.87 5.37,-36.73 7.47,-34.62 9.87,-32.54 12.57,-30.5 15.54,-28.49 18.77,-26.52 22.25,-24.6 25.94,-22.74 29.84,-20.93 33.93,-19.18 38.18,-17.49 42.59,-15.87 47.12,-14.32 51.77,-12.84 56.52,-11.45 61.34,-10.13 66.23,-8.9 71.16,-7.75 76.13,-6.7 81.12,-5.74 86.12,-4.88 91.11,-4.11 96.08,-3.45 101.04,-2.89 105.95,-2.43 110.83,-2.09 115.65,-1.85 120.42,-1.72 125.12,-1.71 129.76,-1.81 134.33,-2.02 138.82,-2.35 143.23,-2.79 147.56,-3.34 151.81,-4.01 155.97,-4.8 160.04,-5.7 164.02,-6.71 167.9,-7.82 171.68,-9.05 175.37,-10.38 178.94,-11.81 182.42,-13.35 185.77,-14.98 189.02,-16.7 192.14,-18.5 195.13,-20.4 197.99,-22.36 200.71,-24.41 203.28,-26.51 205.69,-28.68 207.94,-30.91 210.01,-33.18 211.9,-35.5 213.6,-37.85 215.1,-40.23 216.38,-42.63 217.44,-45.04 218.27,-47.46 218.85,-49.87 219.18,-52.28 219.24,-54.67 219.04,-57.03 218.55,-59.36 217.77,-61.65 216.7,-63.9 215.33,-66.08 213.65,-68.21 211.66,-70.27 209.36,-72.25 206.75,-74.15 203.83,-75.96 200.59,-77.67 197.04,-79.29 193.2,-80.8 189.06,-82.21 184.63,-83.5 179.93,-84.67 174.96,-85.72 169.74,-86.66 164.28,-87.46 158.61,-88.14 152.73,-88.69 146.68,-89.1 140.46,-89.39 134.11,-89.55 127.64,-89.58 121.09,-89.47 114.47,-89.24 107.81,-88.88 101.15,-88.4 94.49,-87.8 87.88,-87.07 81.34,-86.23 74.9,-85.28"/>
<text text-anchor="middle" x="115.01" y="-41.06" font-family="sans-serif" font-size="16.00">MilkPlanning</text>
</g>
<!-- ClientOrders&#45;&gt;MilkPlanning -->
<g id="edge1" class="edge">
<title>ClientOrders&#45;&gt;MilkPlanning</title>
<path fill="none" stroke="black" stroke-width="2" d="M371.52,-598.35C264.33,-575.85 99.01,-531.69 99.01,-473.31 99.01,-473.31 99.01,-473.31 99.01,-186.55 99.01,-153.73 103.36,-116.88 107.52,-89.13"/>
<text text-anchor="middle" x="174.51" y="-327.6" font-family="sans-serif" font-size="12.00"> &#160;&#160;&#160;&#160;&#160;&#160;&#160;&#160;&#160;&#160;&#160;&#160;&#160;&#160;&#160;&#160;&#160;&#160;&#160;&#160;&#160;&#160;&#160;&#160;&#160;&#160;&#160;&#160;&#160;&#160;&#160;&#160;&#160;&#160;&#160;&#160;&#160;&#160;&#160;</text>
<polygon fill="white" stroke="transparent" points="84.52,-79.13 84.52,-98.13 100.52,-98.13 100.52,-79.13 84.52,-79.13"/>
<polyline fill="none" stroke="black" points="100.52,-79.13 100.52,-98.13 "/>
<text text-anchor="start" x="87.52" y="-85.53" font-family="sans-serif" font-size="12.00">D</text>
<polygon fill="white" stroke="transparent" points="100.52,-79.13 100.52,-98.13 130.52,-98.13 130.52,-79.13 100.52,-79.13"/>
<polygon fill="none" stroke="black" points="100.52,-79.13 100.52,-98.13 130.52,-98.13 130.52,-79.13 100.52,-79.13"/>
<text text-anchor="start" x="103.52" y="-85.53" font-family="sans-serif" font-size="12.00">ACL</text>
<polygon fill="white" stroke="transparent" points="364.52,-589.35 364.52,-606.35 378.52,-606.35 378.52,-589.35 364.52,-589.35"/>
<text text-anchor="start" x="366.52" y="-594.75" font-family="sans-serif" font-size="12.00">U</text>
</g>
<!-- ProductionPlanning -->
<g id="node3" class="node">
<title>ProductionPlanning</title>
<polygon fill="none" stroke="black" stroke-width="2" points="364.66,-504.49 357.73,-502.58 351.11,-500.6 344.83,-498.55 338.91,-496.44 333.38,-494.27 328.26,-492.06 323.57,-489.81 319.34,-487.53 315.58,-485.23 312.31,-482.91 309.54,-480.58 307.27,-478.26 305.53,-475.94 304.31,-473.63 303.62,-471.34 303.46,-469.08 303.82,-466.85 304.71,-464.66 306.11,-462.5 308.03,-460.39 310.43,-458.34 313.33,-456.34 316.68,-454.39 320.49,-452.51 324.73,-450.69 329.37,-448.94 334.41,-447.26 339.8,-445.65 345.53,-444.12 351.58,-442.66 357.91,-441.28 364.49,-439.98 371.31,-438.76 378.32,-437.62 385.51,-436.56 392.84,-435.59 400.29,-434.7 407.83,-433.9 415.44,-433.18 423.07,-432.55 430.73,-432.01 438.36,-431.56 445.97,-431.19 453.51,-430.91 460.98,-430.73 468.35,-430.64 475.6,-430.64 482.73,-430.73 489.7,-430.91 496.51,-431.19 503.15,-431.57 509.6,-432.04 515.86,-432.6 521.92,-433.26 527.76,-434.02 533.38,-434.88 538.78,-435.83 543.95,-436.88 548.89,-438.02 553.59,-439.26 558.06,-440.6 562.28,-442.02 566.26,-443.54 570,-445.15 573.49,-446.84 576.74,-448.62 579.74,-450.48 582.49,-452.42 584.99,-454.43 587.24,-456.51 589.24,-458.65 590.98,-460.86 592.46,-463.12 593.68,-465.42 594.63,-467.77 595.32,-470.16 595.73,-472.57 595.87,-475 595.72,-477.44 595.29,-479.89 594.57,-482.34 593.55,-484.78 592.23,-487.19 590.6,-489.58 588.66,-491.93 586.41,-494.24 583.84,-496.49 580.95,-498.68 577.74,-500.8 574.2,-502.84 570.33,-504.79 566.14,-506.64 561.63,-508.4 556.8,-510.04 551.65,-511.57 546.18,-512.98 540.42,-514.26 534.36,-515.4 528.02,-516.41 521.4,-517.28 514.53,-518 507.41,-518.58 500.08,-519 492.53,-519.28 484.8,-519.4 476.91,-519.37 468.87,-519.19 460.73,-518.87 452.49,-518.39 444.2,-517.77 435.88,-517 427.55,-516.1 419.26,-515.06 411.02,-513.89 402.88,-512.6 394.86,-511.19 387,-509.67 379.32,-508.04 371.87,-506.31 364.66,-504.49"/>
<text text-anchor="middle" x="461.01" y="-468.51" font-family="sans-serif" font-size="16.00">ProductionPlanning</text>
</g>
<!-- ClientOrders&#45;&gt;ProductionPlanning -->
<g id="edge2" class="edge">
<title>ClientOrders&#45;&gt;ProductionPlanning</title>
<path fill="none" stroke="black" stroke-width="2" d="M461.01,-569.36C461.01,-553.35 461.01,-535.35 461.01,-519.31"/>
<text text-anchor="middle" x="536.51" y="-541.01" font-family="sans-serif" font-size="12.00"> &#160;&#160;&#160;&#160;&#160;&#160;&#160;&#160;&#160;&#160;&#160;&#160;&#160;&#160;&#160;&#160;&#160;&#160;&#160;&#160;&#160;&#160;&#160;&#160;&#160;&#160;&#160;&#160;&#160;&#160;&#160;&#160;&#160;&#160;&#160;&#160;&#160;&#160;&#160;</text>
<polygon fill="white" stroke="transparent" points="438.01,-509.31 438.01,-528.31 454.01,-528.31 454.01,-509.31 438.01,-509.31"/>
<polyline fill="none" stroke="black" points="454.01,-509.31 454.01,-528.31 "/>
<text text-anchor="start" x="441.01" y="-515.71" font-family="sans-serif" font-size="12.00">D</text>
<polygon fill="white" stroke="transparent" points="454.01,-509.31 454.01,-528.31 484.01,-528.31 484.01,-509.31 454.01,-509.31"/>
<polygon fill="none" stroke="black" points="454.01,-509.31 454.01,-528.31 484.01,-528.31 484.01,-509.31 454.01,-509.31"/>
<text text-anchor="start" x="457.01" y="-515.71" font-family="sans-serif" font-size="12.00">ACL</text>
<polygon fill="white" stroke="transparent" points="454.01,-560.36 454.01,-577.36 468.01,-577.36 468.01,-560.36 454.01,-560.36"/>
<text text-anchor="start" x="456.01" y="-565.76" font-family="sans-serif" font-size="12.00">U</text>
</g>
<!-- Production -->
<g id="node4" class="node">
<title>Production</title>
<polygon fill="none" stroke="black" stroke-width="2" points="423.38,-291.59 428.81,-292.84 434.09,-294.18 439.2,-295.62 444.12,-297.15 448.83,-298.77 453.31,-300.46 457.54,-302.23 461.5,-304.06 465.18,-305.95 468.57,-307.91 471.65,-309.91 474.42,-311.95 476.85,-314.03 478.95,-316.15 480.72,-318.29 482.13,-320.45 483.2,-322.63 483.92,-324.81 484.3,-327 484.33,-329.19 484.03,-331.37 483.39,-333.54 482.42,-335.7 481.14,-337.83 479.56,-339.94 477.68,-342.01 475.52,-344.05 473.09,-346.06 470.41,-348.02 467.48,-349.93 464.34,-351.8 460.99,-353.61 457.45,-355.36 453.74,-357.05 449.87,-358.67 445.86,-360.23 441.73,-361.72 437.5,-363.13 433.17,-364.46 428.78,-365.72 424.32,-366.89 419.82,-367.97 415.29,-368.97 410.75,-369.87 406.2,-370.68 401.66,-371.4 397.13,-372.01 392.64,-372.53 388.18,-372.94 383.77,-373.25 379.42,-373.45 375.12,-373.55 370.89,-373.54 366.73,-373.41 362.64,-373.18 358.64,-372.83 354.72,-372.38 350.88,-371.81 347.14,-371.12 343.49,-370.33 339.93,-369.43 336.46,-368.41 333.1,-367.29 329.83,-366.06 326.67,-364.73 323.61,-363.3 320.66,-361.76 317.82,-360.13 315.09,-358.41 312.48,-356.6 309.98,-354.71 307.62,-352.74 305.38,-350.69 303.28,-348.58 301.32,-346.4 299.51,-344.17 297.85,-341.88 296.35,-339.55 295.02,-337.19 293.86,-334.8 292.89,-332.38 292.11,-329.96 291.53,-327.52 291.15,-325.09 290.99,-322.66 291.06,-320.25 291.35,-317.87 291.88,-315.52 292.65,-313.21 293.68,-310.95 294.95,-308.75 296.49,-306.61 298.28,-304.54 300.34,-302.55 302.66,-300.64 305.25,-298.83 308.1,-297.11 311.21,-295.49 314.58,-293.98 318.2,-292.59 322.07,-291.31 326.17,-290.15 330.5,-289.12 335.04,-288.22 339.79,-287.44 344.73,-286.8 349.84,-286.29 355.12,-285.92 360.53,-285.68 366.06,-285.57 371.7,-285.6 377.41,-285.77 383.19,-286.06 389,-286.49 394.83,-287.04 400.65,-287.71 406.44,-288.51 412.17,-289.43 417.83,-290.46 423.38,-291.59"/>
<text text-anchor="middle" x="382.01" y="-326.9" font-family="sans-serif" font-size="16.00">Production</text>
</g>
<!-- ProductionPlanning&#45;&gt;Production -->
<g id="edge3" class="edge">
<title>ProductionPlanning&#45;&gt;Production</title>
<path fill="none" stroke="black" stroke-width="2" d="M403.39,-434.15C395.17,-426.23 387.87,-417.14 383.01,-407.02 378.14,-396.88 376.43,-385.05 376.31,-373.82"/>
<text text-anchor="middle" x="458.51" y="-397.42" font-family="sans-serif" font-size="12.00"> &#160;&#160;&#160;&#160;&#160;&#160;&#160;&#160;&#160;&#160;&#160;&#160;&#160;&#160;&#160;&#160;&#160;&#160;&#160;&#160;&#160;&#160;&#160;&#160;&#160;&#160;&#160;&#160;&#160;&#160;&#160;&#160;&#160;&#160;&#160;&#160;&#160;&#160;&#160;</text>
<polygon fill="white" stroke="transparent" points="357.31,-363.82 357.31,-382.82 373.31,-382.82 373.31,-363.82 357.31,-363.82"/>
<polyline fill="none" stroke="black" points="373.31,-363.82 373.31,-382.82 "/>
<text text-anchor="start" x="360.31" y="-370.22" font-family="sans-serif" font-size="12.00">D</text>
<polygon fill="white" stroke="transparent" points="373.31,-363.82 373.31,-382.82 395.31,-382.82 395.31,-363.82 373.31,-363.82"/>
<polygon fill="none" stroke="black" points="373.31,-363.82 373.31,-382.82 395.31,-382.82 395.31,-363.82 373.31,-363.82"/>
<text text-anchor="start" x="376.31" y="-370.22" font-family="sans-serif" font-size="12.00">CF</text>
<polygon fill="white" stroke="transparent" points="396.39,-425.15 396.39,-442.15 410.39,-442.15 410.39,-425.15 396.39,-425.15"/>
<text text-anchor="start" x="398.39" y="-430.55" font-family="sans-serif" font-size="12.00">U</text>
</g>
<!-- Restocking -->
<g id="node5" class="node">
<title>Restocking</title>
<polygon fill="none" stroke="black" stroke-width="2" points="312.22,-194.95 311.28,-197.8 310.1,-200.61 308.67,-203.38 307,-206.08 305.1,-208.71 302.97,-211.26 300.61,-213.72 298.04,-216.07 295.25,-218.32 292.27,-220.44 289.09,-222.44 285.73,-224.31 282.2,-226.04 278.5,-227.62 274.64,-229.06 270.64,-230.35 266.51,-231.48 262.26,-232.45 257.89,-233.27 253.43,-233.93 248.88,-234.44 244.25,-234.79 239.56,-234.98 234.82,-235.02 230.05,-234.92 225.24,-234.67 220.43,-234.29 215.61,-233.76 210.81,-233.12 206.03,-232.34 201.29,-231.45 196.6,-230.46 191.97,-229.35 187.41,-228.15 182.94,-226.86 178.57,-225.49 174.31,-224.04 170.17,-222.51 166.16,-220.93 162.29,-219.29 158.58,-217.59 155.03,-215.85 151.65,-214.07 148.46,-212.26 145.45,-210.42 142.64,-208.55 140.04,-206.66 137.66,-204.76 135.49,-202.84 133.55,-200.91 131.84,-198.98 130.37,-197.04 129.15,-195.1 128.17,-193.16 127.44,-191.22 126.96,-189.29 126.73,-187.36 126.76,-185.44 127.04,-183.52 127.58,-181.62 128.37,-179.72 129.42,-177.84 130.71,-175.97 132.26,-174.11 134.04,-172.27 136.07,-170.44 138.33,-168.64 140.82,-166.86 143.53,-165.1 146.45,-163.37 149.59,-161.68 152.92,-160.01 156.44,-158.38 160.14,-156.8 164.01,-155.26 168.03,-153.77 172.21,-152.34 176.52,-150.96 180.96,-149.66 185.51,-148.42 190.16,-147.27 194.89,-146.19 199.7,-145.21 204.56,-144.32 209.47,-143.53 214.41,-142.85 219.37,-142.28 224.33,-141.83 229.28,-141.5 234.2,-141.3 239.08,-141.24 243.91,-141.31 248.68,-141.52 253.36,-141.87 257.94,-142.37 262.42,-143.02 266.78,-143.82 271,-144.77 275.09,-145.86 279.01,-147.11 282.77,-148.5 286.35,-150.04 289.74,-151.71 292.94,-153.53 295.93,-155.47 298.71,-157.54 301.26,-159.73 303.59,-162.03 305.68,-164.44 307.54,-166.94 309.15,-169.53 310.51,-172.19 311.62,-174.92 312.47,-177.71 313.07,-180.54 313.42,-183.4 313.5,-186.29 313.33,-189.18 312.9,-192.07 312.22,-194.95"/>
<text text-anchor="middle" x="220.01" y="-183.75" font-family="sans-serif" font-size="16.00">Restocking</text>
</g>
<!-- Production&#45;&gt;Restocking -->
<g id="edge4" class="edge">
<title>Production&#45;&gt;Restocking</title>
<path fill="none" stroke="black" stroke-width="2" d="M301.13,-301.7C256.82,-286.17 210.53,-269.55 209.01,-267.39 201.86,-257.21 201.09,-244.45 203.11,-232.17"/>
<text text-anchor="middle" x="284.51" y="-257.79" font-family="sans-serif" font-size="12.00"> &#160;&#160;&#160;&#160;&#160;&#160;&#160;&#160;&#160;&#160;&#160;&#160;&#160;&#160;&#160;&#160;&#160;&#160;&#160;&#160;&#160;&#160;&#160;&#160;&#160;&#160;&#160;&#160;&#160;&#160;&#160;&#160;&#160;&#160;&#160;&#160;&#160;&#160;&#160;</text>
<polygon fill="white" stroke="transparent" points="196.11,-223.17 196.11,-240.17 210.11,-240.17 210.11,-223.17 196.11,-223.17"/>
<text text-anchor="start" x="198.11" y="-228.57" font-family="sans-serif" font-size="12.00">D</text>
<polygon fill="white" stroke="transparent" points="294.13,-292.7 294.13,-309.7 308.13,-309.7 308.13,-292.7 294.13,-292.7"/>
<text text-anchor="start" x="296.13" y="-298.1" font-family="sans-serif" font-size="12.00">U</text>
</g>
<!-- Stocking -->
<g id="node6" class="node">
<title>Stocking</title>
<polygon fill="none" stroke="black" stroke-width="2" points="471.34,-201.34 469.6,-198.64 468.09,-195.92 466.81,-193.18 465.76,-190.45 464.95,-187.73 464.39,-185.03 464.07,-182.36 464.01,-179.73 464.21,-177.15 464.66,-174.64 465.36,-172.19 466.32,-169.81 467.53,-167.52 468.99,-165.32 470.69,-163.21 472.64,-161.21 474.82,-159.31 477.22,-157.52 479.85,-155.85 482.68,-154.29 485.72,-152.85 488.95,-151.52 492.36,-150.32 495.94,-149.24 499.67,-148.28 503.54,-147.45 507.55,-146.73 511.67,-146.12 515.89,-145.64 520.2,-145.26 524.57,-145 529.01,-144.84 533.49,-144.79 537.99,-144.84 542.51,-144.99 547.02,-145.23 551.52,-145.56 555.98,-145.99 560.4,-146.49 564.76,-147.08 569.05,-147.75 573.25,-148.49 577.35,-149.31 581.35,-150.19 585.22,-151.14 588.96,-152.16 592.57,-153.24 596.03,-154.39 599.32,-155.59 602.46,-156.85 605.42,-158.17 608.21,-159.55 610.81,-160.97 613.22,-162.46 615.44,-163.99 617.47,-165.58 619.3,-167.22 620.93,-168.91 622.36,-170.65 623.59,-172.44 624.61,-174.27 625.43,-176.15 626.05,-178.07 626.47,-180.04 626.69,-182.04 626.71,-184.09 626.53,-186.16 626.16,-188.27 625.61,-190.4 624.86,-192.56 623.93,-194.73 622.82,-196.92 621.54,-199.12 620.08,-201.32 618.45,-203.52 616.65,-205.71 614.7,-207.88 612.59,-210.03 610.33,-212.15 607.92,-214.23 605.37,-216.27 602.68,-218.25 599.86,-220.17 596.92,-222.02 593.85,-223.78 590.67,-225.47 587.38,-227.05 583.98,-228.54 580.49,-229.91 576.91,-231.17 573.24,-232.3 569.5,-233.3 565.69,-234.16 561.81,-234.88 557.88,-235.45 553.91,-235.87 549.9,-236.13 545.87,-236.23 541.81,-236.16 537.75,-235.93 533.69,-235.54 529.64,-234.98 525.61,-234.26 521.62,-233.38 517.67,-232.33 513.77,-231.13 509.94,-229.77 506.19,-228.27 502.53,-226.62 498.96,-224.84 495.51,-222.93 492.19,-220.89 489,-218.75 485.95,-216.49 483.06,-214.15 480.34,-211.72 477.8,-209.21 475.45,-206.64 473.29,-204.01 471.34,-201.34"/>
<text text-anchor="middle" x="548.01" y="-183.75" font-family="sans-serif" font-size="16.00">Stocking</text>
</g>
<!-- Production&#45;&gt;Stocking -->
<g id="edge5" class="edge">
<title>Production&#45;&gt;Stocking</title>
<path fill="none" stroke="black" stroke-width="2" d="M374.33,-285.65C374.54,-274.66 376.78,-263.44 383.01,-254.39 402.92,-225.41 437.82,-209.19 470.41,-200.11"/>
<text text-anchor="middle" x="458.51" y="-257.79" font-family="sans-serif" font-size="12.00"> &#160;&#160;&#160;&#160;&#160;&#160;&#160;&#160;&#160;&#160;&#160;&#160;&#160;&#160;&#160;&#160;&#160;&#160;&#160;&#160;&#160;&#160;&#160;&#160;&#160;&#160;&#160;&#160;&#160;&#160;&#160;&#160;&#160;&#160;&#160;&#160;&#160;&#160;&#160;</text>
<polygon fill="white" stroke="transparent" points="451.41,-190.11 451.41,-209.11 467.41,-209.11 467.41,-190.11 451.41,-190.11"/>
<polyline fill="none" stroke="black" points="467.41,-190.11 467.41,-209.11 "/>
<text text-anchor="start" x="454.41" y="-196.51" font-family="sans-serif" font-size="12.00">D</text>
<polygon fill="white" stroke="transparent" points="467.41,-190.11 467.41,-209.11 489.41,-209.11 489.41,-190.11 467.41,-190.11"/>
<polygon fill="none" stroke="black" points="467.41,-190.11 467.41,-209.11 489.41,-209.11 489.41,-190.11 467.41,-190.11"/>
<text text-anchor="start" x="470.41" y="-196.51" font-family="sans-serif" font-size="12.00">CF</text>
<polygon fill="white" stroke="transparent" points="367.33,-276.65 367.33,-293.65 381.33,-293.65 381.33,-276.65 367.33,-276.65"/>
<text text-anchor="start" x="369.33" y="-282.05" font-family="sans-serif" font-size="12.00">U</text>
</g>
<!-- Restocking&#45;&gt;MilkPlanning -->
<g id="edge6" class="edge">
<title>Restocking&#45;&gt;MilkPlanning</title>
<path fill="none" stroke="black" stroke-width="2" d="M190.48,-146.99C177.01,-128.94 161.04,-107.53 147.26,-89.07"/>
<text text-anchor="middle" x="246.51" y="-111.12" font-family="sans-serif" font-size="12.00"> &#160;&#160;&#160;&#160;&#160;&#160;&#160;&#160;&#160;&#160;&#160;&#160;&#160;&#160;&#160;&#160;&#160;&#160;&#160;&#160;&#160;&#160;&#160;&#160;&#160;&#160;&#160;&#160;&#160;&#160;&#160;&#160;&#160;&#160;&#160;&#160;&#160;&#160;&#160;</text>
<polygon fill="white" stroke="transparent" points="124.26,-79.07 124.26,-98.07 140.26,-98.07 140.26,-79.07 124.26,-79.07"/>
<polyline fill="none" stroke="black" points="140.26,-79.07 140.26,-98.07 "/>
<text text-anchor="start" x="127.26" y="-85.47" font-family="sans-serif" font-size="12.00">D</text>
<polygon fill="white" stroke="transparent" points="140.26,-79.07 140.26,-98.07 170.26,-98.07 170.26,-79.07 140.26,-79.07"/>
<polygon fill="none" stroke="black" points="140.26,-79.07 140.26,-98.07 170.26,-98.07 170.26,-79.07 140.26,-79.07"/>
<text text-anchor="start" x="143.26" y="-85.47" font-family="sans-serif" font-size="12.00">ACL</text>
<polygon fill="white" stroke="transparent" points="183.48,-137.99 183.48,-154.99 197.48,-154.99 197.48,-137.99 183.48,-137.99"/>
<text text-anchor="start" x="185.48" y="-143.39" font-family="sans-serif" font-size="12.00">U</text>
</g>
<!-- Stocking&#45;&gt;ClientOrders -->
<g id="edge7" class="edge">
<title>Stocking&#45;&gt;ClientOrders</title>
<path fill="none" stroke="black" stroke-width="2" d="M613.85,-209.23C649.7,-224.23 690.94,-248.49 712.01,-285.39 731.98,-320.37 722.03,-337 712.01,-376.02 689.98,-461.79 681.95,-491.5 616.01,-550.61 597.02,-567.62 572.91,-580.52 549.39,-590.14"/>
<text text-anchor="middle" x="782.51" y="-397.42" font-family="sans-serif" font-size="12.00"> &#160;&#160;&#160;&#160;&#160;&#160;&#160;&#160;&#160;&#160;&#160;&#160;&#160;&#160;&#160;&#160;&#160;&#160;&#160;&#160;&#160;&#160;&#160;&#160;&#160;&#160;&#160;&#160;&#160;&#160;&#160;&#160;&#160;&#160;&#160;&#160;&#160;&#160;&#160;</text>
<polygon fill="white" stroke="transparent" points="542.39,-581.14 542.39,-598.14 556.39,-598.14 556.39,-581.14 542.39,-581.14"/>
<text text-anchor="start" x="544.39" y="-586.54" font-family="sans-serif" font-size="12.00">D</text>
<polygon fill="white" stroke="transparent" points="578.85,-199.23 578.85,-218.23 594.85,-218.23 594.85,-199.23 578.85,-199.23"/>
<polyline fill="none" stroke="black" points="594.85,-199.23 594.85,-218.23 "/>
<text text-anchor="start" x="581.85" y="-205.63" font-family="sans-serif" font-size="12.00">U</text>
<polygon fill="white" stroke="transparent" points="594.85,-199.23 594.85,-218.23 649.85,-218.23 649.85,-199.23 594.85,-199.23"/>
<polygon fill="none" stroke="black" points="594.85,-199.23 594.85,-218.23 649.85,-218.23 649.85,-199.23 594.85,-199.23"/>
<text text-anchor="start" x="597.85" y="-205.63" font-family="sans-serif" font-size="12.00">OHS, PL</text>
</g>
<!-- Stocking&#45;&gt;ProductionPlanning -->
<g id="edge8" class="edge">
<title>Stocking&#45;&gt;ProductionPlanning</title>
<path fill="none" stroke="black" stroke-width="2" d="M555.01,-235.95C559.59,-282.08 560.55,-352.94 534.01,-407.02 529.47,-416.26 522.95,-424.76 515.65,-432.33"/>
<text text-anchor="middle" x="632.51" y="-327.6" font-family="sans-serif" font-size="12.00"> &#160;&#160;&#160;&#160;&#160;&#160;&#160;&#160;&#160;&#160;&#160;&#160;&#160;&#160;&#160;&#160;&#160;&#160;&#160;&#160;&#160;&#160;&#160;&#160;&#160;&#160;&#160;&#160;&#160;&#160;&#160;&#160;&#160;&#160;&#160;&#160;&#160;&#160;&#160;</text>
<polygon fill="white" stroke="transparent" points="492.65,-422.33 492.65,-441.33 508.65,-441.33 508.65,-422.33 492.65,-422.33"/>
<polyline fill="none" stroke="black" points="508.65,-422.33 508.65,-441.33 "/>
<text text-anchor="start" x="495.65" y="-428.73" font-family="sans-serif" font-size="12.00">D</text>
<polygon fill="white" stroke="transparent" points="508.65,-422.33 508.65,-441.33 538.65,-441.33 538.65,-422.33 508.65,-422.33"/>
<polygon fill="none" stroke="black" points="508.65,-422.33 508.65,-441.33 538.65,-441.33 538.65,-422.33 508.65,-422.33"/>
<text text-anchor="start" x="511.65" y="-428.73" font-family="sans-serif" font-size="12.00">ACL</text>
<polygon fill="white" stroke="transparent" points="548.01,-226.95 548.01,-243.95 562.01,-243.95 562.01,-226.95 548.01,-226.95"/>
<text text-anchor="start" x="550.01" y="-232.35" font-family="sans-serif" font-size="12.00">U</text>
</g>
</g>
</svg>
