<svg width="2000px" height="1848px"
 viewBox="0.00 0.00 882.97 816.48" xmlns="http://www.w3.org/2000/svg" xmlns:xlink="http://www.w3.org/1999/xlink">
<g id="graph0" class="graph" transform="scale(1.0 1.0) rotate(0) translate(4 812.48)">
<title>ContextMapGraph</title>
<polygon fill="white" stroke="transparent" points="-4,4 -4,-812.48 878.97,-812.48 878.97,4 -4,4"/>
<!-- ClientOrders -->
<g id="node1" class="node">
<title>ClientOrders</title>
<polygon fill="none" stroke="black" stroke-width="2" points="485.74,-655.17 480.89,-653.18 476.27,-651.12 471.9,-648.99 467.8,-646.8 463.98,-644.57 460.47,-642.29 457.27,-639.98 454.4,-637.65 451.87,-635.29 449.7,-632.93 447.88,-630.57 446.44,-628.2 445.37,-625.86 444.68,-623.53 444.37,-621.22 444.44,-618.95 444.88,-616.71 445.71,-614.52 446.9,-612.37 448.45,-610.28 450.36,-608.24 452.61,-606.26 455.2,-604.34 458.1,-602.49 461.31,-600.71 464.81,-599 468.58,-597.37 472.61,-595.81 476.88,-594.34 481.36,-592.94 486.05,-591.62 490.91,-590.38 495.93,-589.23 501.09,-588.16 506.37,-587.18 511.75,-586.28 517.2,-585.47 522.72,-584.74 528.27,-584.11 533.83,-583.56 539.41,-583.09 544.96,-582.72 550.48,-582.44 555.95,-582.24 561.36,-582.14 566.69,-582.12 571.93,-582.2 577.07,-582.37 582.09,-582.63 586.99,-582.98 591.76,-583.43 596.38,-583.97 600.85,-584.61 605.17,-585.34 609.33,-586.16 613.32,-587.08 617.14,-588.1 620.79,-589.2 624.26,-590.41 627.56,-591.7 630.67,-593.09 633.61,-594.57 636.36,-596.14 638.93,-597.79 641.31,-599.53 643.51,-601.35 645.53,-603.25 647.35,-605.22 649,-607.27 650.45,-609.38 651.72,-611.56 652.79,-613.79 653.68,-616.08 654.37,-618.41 654.86,-620.77 655.16,-623.18 655.26,-625.6 655.16,-628.05 654.86,-630.5 654.34,-632.96 653.62,-635.41 652.69,-637.84 651.53,-640.25 650.16,-642.63 648.57,-644.97 646.76,-647.26 644.72,-649.5 642.45,-651.66 639.95,-653.76 637.23,-655.77 634.28,-657.68 631.1,-659.5 627.7,-661.21 624.07,-662.81 620.22,-664.29 616.16,-665.65 611.89,-666.87 607.42,-667.95 602.76,-668.9 597.91,-669.7 592.89,-670.35 587.7,-670.85 582.36,-671.2 576.89,-671.4 571.3,-671.44 565.6,-671.32 559.81,-671.06 553.95,-670.64 548.04,-670.07 542.11,-669.36 536.16,-668.5 530.22,-667.5 524.31,-666.37 518.46,-665.11 512.68,-663.72 507.01,-662.22 501.45,-660.61 496.04,-658.89 490.8,-657.07 485.74,-655.17"/>
<text text-anchor="middle" x="557.97" y="-620.09" font-family="sans-serif" font-size="16.00">ClientOrders</text>
</g>
<!-- ProductionPlanning -->
<g id="node2" class="node">
<title>ProductionPlanning</title>
<polygon fill="none" stroke="black" stroke-width="2" points="236.63,-477.62 237.08,-474.75 237.93,-471.91 239.16,-469.11 240.78,-466.36 242.78,-463.66 245.15,-461.04 247.9,-458.49 251,-456.04 254.47,-453.68 258.27,-451.43 262.41,-449.3 266.88,-447.29 271.66,-445.4 276.73,-443.65 282.09,-442.04 287.72,-440.58 293.61,-439.25 299.73,-438.08 306.07,-437.06 312.62,-436.19 319.35,-435.46 326.25,-434.89 333.3,-434.47 340.47,-434.2 347.75,-434.06 355.12,-434.07 362.55,-434.22 370.03,-434.5 377.54,-434.9 385.05,-435.43 392.54,-436.08 399.99,-436.84 407.39,-437.7 414.7,-438.66 421.91,-439.72 429.01,-440.87 435.96,-442.09 442.75,-443.39 449.37,-444.76 455.79,-446.2 461.99,-447.69 467.96,-449.24 473.69,-450.83 479.15,-452.46 484.33,-454.14 489.21,-455.85 493.8,-457.59 498.06,-459.35 501.99,-461.14 505.58,-462.95 508.82,-464.78 511.71,-466.63 514.22,-468.49 516.37,-470.36 518.13,-472.24 519.51,-474.13 520.51,-476.02 521.11,-477.92 521.33,-479.83 521.15,-481.74 520.59,-483.66 519.64,-485.57 518.31,-487.48 516.6,-489.4 514.51,-491.3 512.05,-493.21 509.23,-495.1 506.06,-496.98 502.54,-498.85 498.69,-500.71 494.51,-502.54 490.02,-504.35 485.24,-506.13 480.16,-507.88 474.81,-509.59 469.2,-511.26 463.35,-512.88 457.28,-514.45 450.99,-515.96 444.51,-517.41 437.85,-518.78 431.03,-520.07 424.07,-521.28 417,-522.4 409.82,-523.42 402.55,-524.34 395.23,-525.14 387.86,-525.83 380.46,-526.4 373.06,-526.84 365.68,-527.14 358.33,-527.31 351.04,-527.33 343.82,-527.21 336.7,-526.94 329.68,-526.52 322.81,-525.95 316.08,-525.22 309.52,-524.33 303.14,-523.29 296.97,-522.1 291.03,-520.76 285.31,-519.27 279.85,-517.63 274.66,-515.85 269.75,-513.94 265.13,-511.9 260.83,-509.74 256.84,-507.47 253.18,-505.08 249.87,-502.6 246.9,-500.04 244.3,-497.39 242.06,-494.68 240.19,-491.91 238.71,-489.09 237.61,-486.25 236.89,-483.38 236.56,-480.5 236.63,-477.62"/>
<text text-anchor="middle" x="378.97" y="-476.61" font-family="sans-serif" font-size="16.00">ProductionPlanning</text>
</g>
<!-- ClientOrders&#45;&gt;ProductionPlanning -->
<g id="edge1" class="edge">
<title>ClientOrders&#45;&gt;ProductionPlanning</title>
<path fill="none" stroke="black" stroke-width="2" d="M458.14,-602.17C433.65,-592.61 409.69,-578.67 392.97,-558.37 385.63,-549.46 381.63,-537.98 379.54,-526.62"/>
<text text-anchor="middle" x="468.47" y="-548.77" font-family="sans-serif" font-size="12.00"> &#160;&#160;&#160;&#160;&#160;&#160;&#160;&#160;&#160;&#160;&#160;&#160;&#160;&#160;&#160;&#160;&#160;&#160;&#160;&#160;&#160;&#160;&#160;&#160;&#160;&#160;&#160;&#160;&#160;&#160;&#160;&#160;&#160;&#160;&#160;&#160;&#160;&#160;&#160;</text>
<polygon fill="white" stroke="transparent" points="356.54,-516.62 356.54,-535.62 372.54,-535.62 372.54,-516.62 356.54,-516.62"/>
<polyline fill="none" stroke="black" points="372.54,-516.62 372.54,-535.62 "/>
<text text-anchor="start" x="359.54" y="-523.02" font-family="sans-serif" font-size="12.00">D</text>
<polygon fill="white" stroke="transparent" points="372.54,-516.62 372.54,-535.62 402.54,-535.62 402.54,-516.62 372.54,-516.62"/>
<polygon fill="none" stroke="black" points="372.54,-516.62 372.54,-535.62 402.54,-535.62 402.54,-516.62 372.54,-516.62"/>
<text text-anchor="start" x="375.54" y="-523.02" font-family="sans-serif" font-size="12.00">ACL</text>
<polygon fill="white" stroke="transparent" points="451.14,-593.17 451.14,-610.17 465.14,-610.17 465.14,-593.17 451.14,-593.17"/>
<text text-anchor="start" x="453.14" y="-598.57" font-family="sans-serif" font-size="12.00">U</text>
</g>
<!-- MilkPlanning -->
<g id="node5" class="node">
<title>MilkPlanning</title>
<polygon fill="none" stroke="black" stroke-width="2" points="327.87,-8.72 333.76,-7.27 339.75,-5.94 345.82,-4.73 351.95,-3.65 358.11,-2.69 364.28,-1.88 370.44,-1.2 376.57,-0.66 382.64,-0.27 388.63,-0.03 394.53,0.07 400.32,0.01 405.97,-0.2 411.47,-0.56 416.81,-1.06 421.98,-1.72 426.95,-2.52 431.72,-3.46 436.29,-4.55 440.63,-5.76 444.75,-7.11 448.63,-8.58 452.27,-10.18 455.68,-11.88 458.84,-13.69 461.75,-15.6 464.42,-17.61 466.85,-19.69 469.02,-21.86 470.96,-24.09 472.65,-26.38 474.11,-28.72 475.33,-31.11 476.33,-33.52 477.09,-35.97 477.64,-38.43 477.96,-40.89 478.08,-43.36 477.98,-45.82 477.68,-48.26 477.17,-50.68 476.47,-53.07 475.58,-55.42 474.49,-57.73 473.22,-59.98 471.76,-62.18 470.12,-64.31 468.3,-66.38 466.3,-68.37 464.13,-70.29 461.78,-72.13 459.25,-73.88 456.55,-75.55 453.68,-77.12 450.64,-78.6 447.42,-79.99 444.04,-81.28 440.49,-82.48 436.78,-83.58 432.91,-84.58 428.87,-85.47 424.68,-86.27 420.34,-86.97 415.85,-87.57 411.22,-88.07 406.45,-88.48 401.56,-88.78 396.55,-88.99 391.42,-89.1 386.2,-89.11 380.89,-89.04 375.49,-88.86 370.04,-88.6 364.54,-88.24 359,-87.79 353.44,-87.25 347.88,-86.62 342.34,-85.91 336.83,-85.1 331.37,-84.21 325.99,-83.24 320.7,-82.18 315.52,-81.04 310.48,-79.82 305.59,-78.52 300.87,-77.14 296.35,-75.69 292.05,-74.16 287.98,-72.55 284.16,-70.88 280.61,-69.14 277.35,-67.33 274.4,-65.45 271.77,-63.52 269.47,-61.53 267.52,-59.49 265.93,-57.39 264.7,-55.25 263.85,-53.07 263.38,-50.86 263.3,-48.61 263.61,-46.34 264.3,-44.05 265.39,-41.74 266.86,-39.43 268.71,-37.12 270.94,-34.81 273.53,-32.52 276.47,-30.24 279.76,-27.99 283.38,-25.78 287.31,-23.62 291.54,-21.5 296.06,-19.44 300.83,-17.44 305.84,-15.52 311.07,-13.68 316.51,-11.93 322.11,-10.28 327.87,-8.72"/>
<text text-anchor="middle" x="378.97" y="-43.27" font-family="sans-serif" font-size="16.00">MilkPlanning</text>
</g>
<!-- ClientOrders&#45;&gt;MilkPlanning -->
<g id="edge3" class="edge">
<title>ClientOrders&#45;&gt;MilkPlanning</title>
<path fill="none" stroke="black" stroke-width="2" d="M631.75,-593.48C676.08,-570.43 723.97,-533.47 723.97,-481.41 723.97,-481.41 723.97,-481.41 723.97,-189.43 723.97,-134.25 570.94,-89.86 468.72,-66.37"/>
<text text-anchor="middle" x="799.47" y="-332.48" font-family="sans-serif" font-size="12.00"> &#160;&#160;&#160;&#160;&#160;&#160;&#160;&#160;&#160;&#160;&#160;&#160;&#160;&#160;&#160;&#160;&#160;&#160;&#160;&#160;&#160;&#160;&#160;&#160;&#160;&#160;&#160;&#160;&#160;&#160;&#160;&#160;&#160;&#160;&#160;&#160;&#160;&#160;&#160;</text>
<polygon fill="white" stroke="transparent" points="445.72,-56.37 445.72,-75.37 461.72,-75.37 461.72,-56.37 445.72,-56.37"/>
<polyline fill="none" stroke="black" points="461.72,-56.37 461.72,-75.37 "/>
<text text-anchor="start" x="448.72" y="-62.77" font-family="sans-serif" font-size="12.00">D</text>
<polygon fill="white" stroke="transparent" points="461.72,-56.37 461.72,-75.37 491.72,-75.37 491.72,-56.37 461.72,-56.37"/>
<polygon fill="none" stroke="black" points="461.72,-56.37 461.72,-75.37 491.72,-75.37 491.72,-56.37 461.72,-56.37"/>
<text text-anchor="start" x="464.72" y="-62.77" font-family="sans-serif" font-size="12.00">ACL</text>
<polygon fill="white" stroke="transparent" points="624.75,-584.48 624.75,-601.48 638.75,-601.48 638.75,-584.48 624.75,-584.48"/>
<text text-anchor="start" x="626.75" y="-589.88" font-family="sans-serif" font-size="12.00">U</text>
</g>
<!-- Stocking -->
<g id="node6" class="node">
<title>Stocking</title>
<polygon fill="none" stroke="black" stroke-width="2" points="336.95,-153.07 341.41,-151.55 345.96,-150.14 350.59,-148.85 355.26,-147.68 359.97,-146.64 364.7,-145.74 369.43,-144.97 374.14,-144.35 378.81,-143.87 383.44,-143.54 388,-143.36 392.48,-143.34 396.87,-143.46 401.16,-143.74 405.33,-144.16 409.37,-144.74 413.27,-145.46 417.03,-146.33 420.63,-147.34 424.07,-148.48 427.34,-149.76 430.44,-151.17 433.37,-152.7 436.11,-154.34 438.68,-156.1 441.06,-157.95 443.25,-159.9 445.26,-161.94 447.09,-164.06 448.73,-166.25 450.19,-168.5 451.47,-170.8 452.57,-173.16 453.49,-175.54 454.24,-177.96 454.82,-180.4 455.23,-182.84 455.47,-185.29 455.56,-187.74 455.48,-190.17 455.24,-192.58 454.85,-194.97 454.31,-197.32 453.62,-199.62 452.78,-201.88 451.79,-204.08 450.66,-206.23 449.38,-208.31 447.96,-210.32 446.4,-212.26 444.7,-214.12 442.85,-215.9 440.87,-217.59 438.74,-219.2 436.48,-220.72 434.08,-222.14 431.55,-223.48 428.88,-224.72 426.07,-225.86 423.14,-226.91 420.07,-227.86 416.88,-228.72 413.56,-229.48 410.12,-230.14 406.57,-230.7 402.91,-231.17 399.14,-231.55 395.27,-231.83 391.31,-232.01 387.26,-232.1 383.14,-232.1 378.96,-232.01 374.72,-231.82 370.43,-231.55 366.11,-231.18 361.78,-230.73 357.43,-230.19 353.09,-229.56 348.78,-228.84 344.5,-228.04 340.26,-227.15 336.1,-226.18 332.02,-225.12 328.03,-223.98 324.17,-222.76 320.43,-221.46 316.83,-220.08 313.4,-218.62 310.14,-217.09 307.08,-215.48 304.22,-213.8 301.58,-212.05 299.18,-210.23 297.02,-208.35 295.11,-206.4 293.47,-204.4 292.1,-202.34 291.01,-200.24 290.22,-198.08 289.71,-195.89 289.5,-193.66 289.6,-191.39 289.99,-189.11 290.68,-186.8 291.67,-184.48 292.96,-182.16 294.53,-179.83 296.39,-177.51 298.53,-175.21 300.93,-172.93 303.59,-170.68 306.5,-168.47 309.64,-166.3 313,-164.19 316.57,-162.14 320.32,-160.15 324.26,-158.25 328.35,-156.43 332.59,-154.7 336.95,-153.07"/>
<text text-anchor="middle" x="378.97" y="-186.63" font-family="sans-serif" font-size="16.00">Stocking</text>
</g>
<!-- ClientOrders&#45;&gt;Stocking -->
<g id="edge2" class="edge">
<title>ClientOrders&#45;&gt;Stocking</title>
<path fill="none" stroke="black" stroke-width="2" d="M559.6,-582.13C562.01,-503.71 563.45,-335.31 533.97,-286.72 513.73,-253.37 476.95,-230.02 444.29,-214.78"/>
<text text-anchor="middle" x="634.47" y="-405.84" font-family="sans-serif" font-size="12.00"> &#160;&#160;&#160;&#160;&#160;&#160;&#160;&#160;&#160;&#160;&#160;&#160;&#160;&#160;&#160;&#160;&#160;&#160;&#160;&#160;&#160;&#160;&#160;&#160;&#160;&#160;&#160;&#160;&#160;&#160;&#160;&#160;&#160;&#160;&#160;&#160;&#160;&#160;&#160;</text>
<polygon fill="white" stroke="transparent" points="421.29,-204.78 421.29,-223.78 437.29,-223.78 437.29,-204.78 421.29,-204.78"/>
<polyline fill="none" stroke="black" points="437.29,-204.78 437.29,-223.78 "/>
<text text-anchor="start" x="424.29" y="-211.18" font-family="sans-serif" font-size="12.00">D</text>
<polygon fill="white" stroke="transparent" points="437.29,-204.78 437.29,-223.78 467.29,-223.78 467.29,-204.78 437.29,-204.78"/>
<polygon fill="none" stroke="black" points="437.29,-204.78 437.29,-223.78 467.29,-223.78 467.29,-204.78 437.29,-204.78"/>
<text text-anchor="start" x="440.29" y="-211.18" font-family="sans-serif" font-size="12.00">ACL</text>
<polygon fill="white" stroke="transparent" points="552.6,-573.13 552.6,-590.13 566.6,-590.13 566.6,-573.13 552.6,-573.13"/>
<text text-anchor="start" x="554.6" y="-578.53" font-family="sans-serif" font-size="12.00">U</text>
</g>
<!-- Production -->
<g id="node3" class="node">
<title>Production</title>
<polygon fill="none" stroke="black" stroke-width="2" points="138.94,-309.44 142.47,-307.11 146.18,-304.88 150.05,-302.74 154.08,-300.71 158.25,-298.78 162.55,-296.98 166.95,-295.31 171.45,-293.78 176.02,-292.39 180.66,-291.14 185.35,-290.05 190.08,-289.11 194.82,-288.33 199.58,-287.72 204.33,-287.27 209.07,-286.98 213.77,-286.86 218.43,-286.9 223.05,-287.11 227.6,-287.47 232.08,-287.99 236.47,-288.67 240.78,-289.5 244.98,-290.46 249.09,-291.57 253.07,-292.81 256.94,-294.18 260.68,-295.66 264.28,-297.26 267.75,-298.96 271.08,-300.75 274.25,-302.63 277.27,-304.59 280.14,-306.62 282.84,-308.71 285.38,-310.86 287.75,-313.05 289.95,-315.27 291.97,-317.53 293.81,-319.8 295.46,-322.09 296.93,-324.38 298.21,-326.67 299.3,-328.95 300.2,-331.22 300.89,-333.47 301.39,-335.69 301.68,-337.88 301.76,-340.04 301.64,-342.15 301.3,-344.23 300.76,-346.25 299.99,-348.23 299.02,-350.15 297.82,-352.02 296.41,-353.83 294.78,-355.59 292.93,-357.28 290.86,-358.91 288.58,-360.49 286.08,-361.99 283.38,-363.44 280.46,-364.81 277.34,-366.13 274.03,-367.38 270.52,-368.56 266.82,-369.67 262.94,-370.72 258.89,-371.69 254.68,-372.6 250.32,-373.43 245.81,-374.2 241.17,-374.89 236.42,-375.5 231.56,-376.04 226.6,-376.5 221.57,-376.88 216.48,-377.18 211.34,-377.39 206.17,-377.51 200.99,-377.55 195.81,-377.49 190.65,-377.34 185.53,-377.09 180.47,-376.74 175.48,-376.29 170.58,-375.74 165.79,-375.09 161.13,-374.32 156.62,-373.45 152.26,-372.47 148.09,-371.38 144.1,-370.19 140.32,-368.88 136.77,-367.46 133.45,-365.93 130.37,-364.3 127.56,-362.56 125.01,-360.73 122.74,-358.79 120.76,-356.76 119.07,-354.64 117.68,-352.44 116.59,-350.16 115.81,-347.8 115.33,-345.38 115.16,-342.9 115.3,-340.37 115.74,-337.8 116.48,-335.19 117.52,-332.56 118.85,-329.92 120.47,-327.27 122.36,-324.62 124.52,-321.99 126.93,-319.39 129.6,-316.82 132.49,-314.3 135.61,-311.83 138.94,-309.44"/>
<text text-anchor="middle" x="212.97" y="-331.78" font-family="sans-serif" font-size="16.00">Production</text>
</g>
<!-- ProductionPlanning&#45;&gt;Production -->
<g id="edge4" class="edge">
<title>ProductionPlanning&#45;&gt;Production</title>
<path fill="none" stroke="black" stroke-width="2" d="M257.03,-451.84C240.11,-442.91 224.84,-431.09 213.97,-415.44 206.48,-404.65 204.46,-390.86 204.87,-377.84"/>
<text text-anchor="middle" x="289.47" y="-405.84" font-family="sans-serif" font-size="12.00"> &#160;&#160;&#160;&#160;&#160;&#160;&#160;&#160;&#160;&#160;&#160;&#160;&#160;&#160;&#160;&#160;&#160;&#160;&#160;&#160;&#160;&#160;&#160;&#160;&#160;&#160;&#160;&#160;&#160;&#160;&#160;&#160;&#160;&#160;&#160;&#160;&#160;&#160;&#160;</text>
<polygon fill="white" stroke="transparent" points="185.87,-367.84 185.87,-386.84 201.87,-386.84 201.87,-367.84 185.87,-367.84"/>
<polyline fill="none" stroke="black" points="201.87,-367.84 201.87,-386.84 "/>
<text text-anchor="start" x="188.87" y="-374.24" font-family="sans-serif" font-size="12.00">D</text>
<polygon fill="white" stroke="transparent" points="201.87,-367.84 201.87,-386.84 223.87,-386.84 223.87,-367.84 201.87,-367.84"/>
<polygon fill="none" stroke="black" points="201.87,-367.84 201.87,-386.84 223.87,-386.84 223.87,-367.84 201.87,-367.84"/>
<text text-anchor="start" x="204.87" y="-374.24" font-family="sans-serif" font-size="12.00">CF</text>
<polygon fill="white" stroke="transparent" points="250.03,-442.84 250.03,-459.84 264.03,-459.84 264.03,-442.84 250.03,-442.84"/>
<text text-anchor="start" x="252.03" y="-448.24" font-family="sans-serif" font-size="12.00">U</text>
</g>
<!-- Restocking -->
<g id="node4" class="node">
<title>Restocking</title>
<polygon fill="none" stroke="black" stroke-width="2" points="74.52,-148.56 80.29,-147.61 86.11,-146.79 91.95,-146.09 97.78,-145.51 103.6,-145.07 109.36,-144.76 115.06,-144.59 120.68,-144.56 126.18,-144.67 131.56,-144.91 136.79,-145.3 141.86,-145.82 146.75,-146.48 151.45,-147.28 155.95,-148.21 160.23,-149.27 164.29,-150.46 168.11,-151.77 171.69,-153.21 175.02,-154.76 178.09,-156.42 180.92,-158.18 183.48,-160.04 185.79,-161.99 187.84,-164.03 189.63,-166.15 191.17,-168.33 192.45,-170.58 193.49,-172.89 194.29,-175.24 194.86,-177.63 195.19,-180.05 195.3,-182.5 195.19,-184.96 194.88,-187.42 194.36,-189.89 193.64,-192.34 192.74,-194.78 191.66,-197.19 190.4,-199.58 188.98,-201.92 187.39,-204.21 185.65,-206.45 183.76,-208.63 181.73,-210.75 179.55,-212.79 177.24,-214.76 174.8,-216.65 172.23,-218.45 169.54,-220.16 166.72,-221.78 163.79,-223.3 160.73,-224.72 157.57,-226.04 154.29,-227.25 150.89,-228.36 147.39,-229.36 143.78,-230.25 140.07,-231.03 136.25,-231.7 132.34,-232.26 128.32,-232.7 124.22,-233.04 120.02,-233.27 115.74,-233.39 111.38,-233.4 106.94,-233.31 102.45,-233.11 97.89,-232.8 93.28,-232.39 88.64,-231.89 83.96,-231.28 79.26,-230.58 74.56,-229.78 69.87,-228.89 65.19,-227.91 60.55,-226.85 55.96,-225.69 51.44,-224.46 46.99,-223.14 42.65,-221.75 38.42,-220.28 34.32,-218.74 30.37,-217.14 26.59,-215.46 23,-213.72 19.61,-211.93 16.44,-210.07 13.51,-208.16 10.82,-206.21 8.41,-204.21 6.27,-202.16 4.43,-200.08 2.9,-197.97 1.68,-195.82 0.79,-193.65 0.24,-191.46 0.03,-189.26 0.16,-187.04 0.65,-184.83 1.49,-182.61 2.68,-180.4 4.22,-178.2 6.11,-176.02 8.35,-173.86 10.91,-171.73 13.81,-169.64 17.02,-167.59 20.54,-165.59 24.34,-163.65 28.43,-161.76 32.77,-159.95 37.36,-158.2 42.16,-156.54 47.17,-154.96 52.37,-153.48 57.72,-152.09 63.21,-150.8 68.82,-149.63 74.52,-148.56"/>
<text text-anchor="middle" x="103.97" y="-186.63" font-family="sans-serif" font-size="16.00">Restocking</text>
</g>
<!-- Production&#45;&gt;Restocking -->
<g id="edge5" class="edge">
<title>Production&#45;&gt;Restocking</title>
<path fill="none" stroke="black" stroke-width="2" d="M124.31,-322.13C92.29,-312.88 59.31,-296.77 39.97,-268.72 29.69,-253.8 38.32,-238.25 52.2,-225.04"/>
<text text-anchor="middle" x="115.47" y="-259.12" font-family="sans-serif" font-size="12.00"> &#160;&#160;&#160;&#160;&#160;&#160;&#160;&#160;&#160;&#160;&#160;&#160;&#160;&#160;&#160;&#160;&#160;&#160;&#160;&#160;&#160;&#160;&#160;&#160;&#160;&#160;&#160;&#160;&#160;&#160;&#160;&#160;&#160;&#160;&#160;&#160;&#160;&#160;&#160;</text>
<polygon fill="white" stroke="transparent" points="45.2,-216.04 45.2,-233.04 59.2,-233.04 59.2,-216.04 45.2,-216.04"/>
<text text-anchor="start" x="47.2" y="-221.44" font-family="sans-serif" font-size="12.00">D</text>
<polygon fill="white" stroke="transparent" points="89.31,-312.13 89.31,-331.13 105.31,-331.13 105.31,-312.13 89.31,-312.13"/>
<polyline fill="none" stroke="black" points="105.31,-312.13 105.31,-331.13 "/>
<text text-anchor="start" x="92.31" y="-318.53" font-family="sans-serif" font-size="12.00">U</text>
<polygon fill="white" stroke="transparent" points="105.31,-312.13 105.31,-331.13 160.31,-331.13 160.31,-312.13 105.31,-312.13"/>
<polygon fill="none" stroke="black" points="105.31,-312.13 105.31,-331.13 160.31,-331.13 160.31,-312.13 105.31,-312.13"/>
<text text-anchor="start" x="108.31" y="-318.53" font-family="sans-serif" font-size="12.00">OHS, PL</text>
</g>
<!-- Production&#45;&gt;Stocking -->
<g id="edge6" class="edge">
<title>Production&#45;&gt;Stocking</title>
<path fill="none" stroke="black" stroke-width="2" d="M204.88,-287.19C205.24,-276.08 207.66,-264.84 213.97,-255.72 232.27,-229.31 263.12,-213.75 293.23,-204.58"/>
<text text-anchor="middle" x="289.47" y="-259.12" font-family="sans-serif" font-size="12.00"> &#160;&#160;&#160;&#160;&#160;&#160;&#160;&#160;&#160;&#160;&#160;&#160;&#160;&#160;&#160;&#160;&#160;&#160;&#160;&#160;&#160;&#160;&#160;&#160;&#160;&#160;&#160;&#160;&#160;&#160;&#160;&#160;&#160;&#160;&#160;&#160;&#160;&#160;&#160;</text>
<polygon fill="white" stroke="transparent" points="274.23,-194.58 274.23,-213.58 290.23,-213.58 290.23,-194.58 274.23,-194.58"/>
<polyline fill="none" stroke="black" points="290.23,-194.58 290.23,-213.58 "/>
<text text-anchor="start" x="277.23" y="-200.98" font-family="sans-serif" font-size="12.00">D</text>
<polygon fill="white" stroke="transparent" points="290.23,-194.58 290.23,-213.58 312.23,-213.58 312.23,-194.58 290.23,-194.58"/>
<polygon fill="none" stroke="black" points="290.23,-194.58 290.23,-213.58 312.23,-213.58 312.23,-194.58 290.23,-194.58"/>
<text text-anchor="start" x="293.23" y="-200.98" font-family="sans-serif" font-size="12.00">CF</text>
<polygon fill="white" stroke="transparent" points="197.88,-278.19 197.88,-295.19 211.88,-295.19 211.88,-278.19 197.88,-278.19"/>
<text text-anchor="start" x="199.88" y="-283.59" font-family="sans-serif" font-size="12.00">U</text>
</g>
<!-- Restocking&#45;&gt;MilkPlanning -->
<g id="edge7" class="edge">
<title>Restocking&#45;&gt;MilkPlanning</title>
<path fill="none" stroke="black" stroke-width="2" d="M161.3,-149.51C180.75,-136.79 202.89,-123.16 223.97,-112.13 248.35,-99.37 275.86,-87.31 300.85,-77.16"/>
<text text-anchor="middle" x="299.47" y="-115.53" font-family="sans-serif" font-size="12.00"> &#160;&#160;&#160;&#160;&#160;&#160;&#160;&#160;&#160;&#160;&#160;&#160;&#160;&#160;&#160;&#160;&#160;&#160;&#160;&#160;&#160;&#160;&#160;&#160;&#160;&#160;&#160;&#160;&#160;&#160;&#160;&#160;&#160;&#160;&#160;&#160;&#160;&#160;&#160;</text>
<polygon fill="white" stroke="transparent" points="277.85,-67.16 277.85,-86.16 293.85,-86.16 293.85,-67.16 277.85,-67.16"/>
<polyline fill="none" stroke="black" points="293.85,-67.16 293.85,-86.16 "/>
<text text-anchor="start" x="280.85" y="-73.56" font-family="sans-serif" font-size="12.00">D</text>
<polygon fill="white" stroke="transparent" points="293.85,-67.16 293.85,-86.16 323.85,-86.16 323.85,-67.16 293.85,-67.16"/>
<polygon fill="none" stroke="black" points="293.85,-67.16 293.85,-86.16 323.85,-86.16 323.85,-67.16 293.85,-67.16"/>
<text text-anchor="start" x="296.85" y="-73.56" font-family="sans-serif" font-size="12.00">ACL</text>
<polygon fill="white" stroke="transparent" points="154.3,-140.51 154.3,-157.51 168.3,-157.51 168.3,-140.51 154.3,-140.51"/>
<text text-anchor="start" x="156.3" y="-145.91" font-family="sans-serif" font-size="12.00">U</text>
</g>
<!-- Stocking&#45;&gt;ProductionPlanning -->
<g id="edge9" class="edge">
<title>Stocking&#45;&gt;ProductionPlanning</title>
<path fill="none" stroke="black" stroke-width="2" d="M378.97,-232.02C378.97,-285.51 378.97,-379.27 378.97,-434.73"/>
<text text-anchor="middle" x="454.47" y="-332.48" font-family="sans-serif" font-size="12.00"> &#160;&#160;&#160;&#160;&#160;&#160;&#160;&#160;&#160;&#160;&#160;&#160;&#160;&#160;&#160;&#160;&#160;&#160;&#160;&#160;&#160;&#160;&#160;&#160;&#160;&#160;&#160;&#160;&#160;&#160;&#160;&#160;&#160;&#160;&#160;&#160;&#160;&#160;&#160;</text>
<polygon fill="white" stroke="transparent" points="355.97,-424.73 355.97,-443.73 371.97,-443.73 371.97,-424.73 355.97,-424.73"/>
<polyline fill="none" stroke="black" points="371.97,-424.73 371.97,-443.73 "/>
<text text-anchor="start" x="358.97" y="-431.13" font-family="sans-serif" font-size="12.00">D</text>
<polygon fill="white" stroke="transparent" points="371.97,-424.73 371.97,-443.73 401.97,-443.73 401.97,-424.73 371.97,-424.73"/>
<polygon fill="none" stroke="black" points="371.97,-424.73 371.97,-443.73 401.97,-443.73 401.97,-424.73 371.97,-424.73"/>
<text text-anchor="start" x="374.97" y="-431.13" font-family="sans-serif" font-size="12.00">ACL</text>
<polygon fill="white" stroke="transparent" points="371.97,-223.02 371.97,-240.02 385.97,-240.02 385.97,-223.02 371.97,-223.02"/>
<text text-anchor="start" x="373.97" y="-228.42" font-family="sans-serif" font-size="12.00">U</text>
</g>
<!-- Stocking&#45;&gt;MilkPlanning -->
<g id="edge8" class="edge">
<title>Stocking&#45;&gt;MilkPlanning</title>
<path fill="none" stroke="black" stroke-width="2" d="M378.97,-143.53C378.97,-126.12 378.97,-106.41 378.97,-89.43"/>
<text text-anchor="middle" x="454.47" y="-115.53" font-family="sans-serif" font-size="12.00"> &#160;&#160;&#160;&#160;&#160;&#160;&#160;&#160;&#160;&#160;&#160;&#160;&#160;&#160;&#160;&#160;&#160;&#160;&#160;&#160;&#160;&#160;&#160;&#160;&#160;&#160;&#160;&#160;&#160;&#160;&#160;&#160;&#160;&#160;&#160;&#160;&#160;&#160;&#160;</text>
<polygon fill="white" stroke="transparent" points="355.97,-79.43 355.97,-98.43 371.97,-98.43 371.97,-79.43 355.97,-79.43"/>
<polyline fill="none" stroke="black" points="371.97,-79.43 371.97,-98.43 "/>
<text text-anchor="start" x="358.97" y="-85.83" font-family="sans-serif" font-size="12.00">D</text>
<polygon fill="white" stroke="transparent" points="371.97,-79.43 371.97,-98.43 401.97,-98.43 401.97,-79.43 371.97,-79.43"/>
<polygon fill="none" stroke="black" points="371.97,-79.43 371.97,-98.43 401.97,-98.43 401.97,-79.43 371.97,-79.43"/>
<text text-anchor="start" x="374.97" y="-85.83" font-family="sans-serif" font-size="12.00">ACL</text>
<polygon fill="white" stroke="transparent" points="371.97,-134.53 371.97,-151.53 385.97,-151.53 385.97,-134.53 371.97,-134.53"/>
<text text-anchor="start" x="373.97" y="-139.93" font-family="sans-serif" font-size="12.00">U</text>
</g>
<!-- Pricing -->
<g id="node7" class="node">
<title>Pricing</title>
<polygon fill="none" stroke="black" stroke-width="2" points="559.63,-808.4 555.05,-808.51 550.5,-808.5 545.98,-808.36 541.53,-808.11 537.15,-807.73 532.87,-807.23 528.7,-806.61 524.65,-805.87 520.75,-805.01 517.01,-804.04 513.43,-802.95 510.04,-801.76 506.84,-800.45 503.83,-799.05 501.04,-797.54 498.46,-795.94 496.1,-794.25 493.97,-792.47 492.07,-790.61 490.4,-788.68 488.97,-786.68 487.76,-784.61 486.79,-782.48 486.04,-780.3 485.52,-778.08 485.22,-775.81 485.13,-773.52 485.25,-771.2 485.58,-768.86 486.1,-766.51 486.81,-764.15 487.69,-761.79 488.75,-759.45 489.97,-757.12 491.35,-754.81 492.86,-752.53 494.52,-750.29 496.3,-748.09 498.2,-745.94 500.21,-743.85 502.32,-741.81 504.52,-739.84 506.81,-737.95 509.18,-736.13 511.63,-734.39 514.14,-732.74 516.71,-731.18 519.34,-729.72 522.02,-728.35 524.75,-727.09 527.53,-725.94 530.34,-724.89 533.19,-723.96 536.08,-723.14 539,-722.43 541.95,-721.84 544.92,-721.37 547.93,-721.02 550.95,-720.78 554,-720.67 557.07,-720.68 560.16,-720.8 563.27,-721.04 566.39,-721.4 569.51,-721.88 572.65,-722.47 575.78,-723.17 578.92,-723.98 582.05,-724.89 585.16,-725.91 588.26,-727.04 591.34,-728.26 594.38,-729.57 597.38,-730.98 600.34,-732.47 603.24,-734.05 606.07,-735.7 608.83,-737.43 611.5,-739.23 614.08,-741.09 616.55,-743.02 618.9,-745 621.13,-747.03 623.21,-749.11 625.14,-751.22 626.91,-753.37 628.51,-755.55 629.92,-757.75 631.14,-759.97 632.16,-762.21 632.96,-764.45 633.54,-766.69 633.89,-768.93 634.01,-771.15 633.88,-773.37 633.51,-775.56 632.89,-777.72 632.02,-779.85 630.89,-781.94 629.51,-783.99 627.88,-785.99 626,-787.93 623.87,-789.81 621.49,-791.63 618.89,-793.38 616.06,-795.06 613.01,-796.65 609.75,-798.16 606.3,-799.59 602.66,-800.92 598.85,-802.15 594.89,-803.29 590.79,-804.32 586.57,-805.24 582.24,-806.06 577.82,-806.76 573.33,-807.34 568.79,-807.82 564.22,-808.17 559.63,-808.4"/>
<text text-anchor="middle" x="557.97" y="-760.65" font-family="sans-serif" font-size="16.00">Pricing</text>
</g>
<!-- Pricing&#45;&gt;ClientOrders -->
<g id="edge10" class="edge">
<title>Pricing&#45;&gt;ClientOrders</title>
<path fill="none" stroke="black" stroke-width="2" d="M557.97,-720.37C557.97,-704.8 557.97,-687.16 557.97,-671.31"/>
<text text-anchor="middle" x="633.47" y="-692.81" font-family="sans-serif" font-size="12.00"> &#160;&#160;&#160;&#160;&#160;&#160;&#160;&#160;&#160;&#160;&#160;&#160;&#160;&#160;&#160;&#160;&#160;&#160;&#160;&#160;&#160;&#160;&#160;&#160;&#160;&#160;&#160;&#160;&#160;&#160;&#160;&#160;&#160;&#160;&#160;&#160;&#160;&#160;&#160;</text>
<polygon fill="white" stroke="transparent" points="538.97,-661.31 538.97,-680.31 554.97,-680.31 554.97,-661.31 538.97,-661.31"/>
<polyline fill="none" stroke="black" points="554.97,-661.31 554.97,-680.31 "/>
<text text-anchor="start" x="541.97" y="-667.71" font-family="sans-serif" font-size="12.00">D</text>
<polygon fill="white" stroke="transparent" points="554.97,-661.31 554.97,-680.31 576.97,-680.31 576.97,-661.31 554.97,-661.31"/>
<polygon fill="none" stroke="black" points="554.97,-661.31 554.97,-680.31 576.97,-680.31 576.97,-661.31 554.97,-661.31"/>
<text text-anchor="start" x="557.97" y="-667.71" font-family="sans-serif" font-size="12.00">CF</text>
<polygon fill="white" stroke="transparent" points="550.97,-711.37 550.97,-728.37 564.97,-728.37 564.97,-711.37 550.97,-711.37"/>
<text text-anchor="start" x="552.97" y="-716.77" font-family="sans-serif" font-size="12.00">U</text>
</g>
</g>
</svg>
