<?xml version="1.0" encoding="UTF-8" standalone="no"?>
<!DOCTYPE svg PUBLIC "-//W3C//DTD SVG 1.1//EN" "http://www.w3.org/Graphics/SVG/1.1/DTD/svg11.dtd">
<!-- Created with Vectornator (http://vectornator.io/) -->
<svg height="100%" stroke-miterlimit="10" style="fill-rule:nonzero;clip-rule:evenodd;stroke-linecap:round;stroke-linejoin:round;" version="1.1" viewBox="0 0 1417.5 1417.5" width="100%" xml:space="preserve" xmlns="http://www.w3.org/2000/svg" xmlns:vectornator="http://vectornator.io" xmlns:xlink="http://www.w3.org/1999/xlink">
<defs/>
<g id="Livello-2" vectornator:layerName="Livello 2">
<path d="M266.571 464.742C275.275 496.034 282.596 525.875 277.498 547.968C260.333 622.347 156.06 738.93 208.331 810.802C236.483 849.513 448.02 1005.01 443.498 1032.14C407.052 1250.81 112.636 642.848 277.498 1027.53C289.873 1056.4 292.654 1090.81 309.775 1117.44C397.263 1253.53 581.832 1043.66 616.416 988.331C650.999 932.997 707.051 891.133 729.389 877.664C956.034 740.993 1074.58 844.191 1160.53 543.357C1170.34 509.029 1224.64 460.315 1202.03 418.856C1089.14 211.892 855.187 700.492 1010.67 757.774C1064.1 777.459 1159.12 458.952 1257.36 557.19C1281.55 581.376 1209.59 609.74 1158.22 654.024C1075.98 724.926 989.311 813.108 1003.75 813.108C1185.5 813.108 1241.17 400.429 1199.72 414.245C1197.32 415.047 1058.69 778.524 821.611 778.524C753.984 778.524 897.71 587.852 906.917 564.107C921.421 526.702 968.321 416.302 948.417 451.134C921.3 498.59 898.833 548.581 872.334 596.385C850.981 634.903 826.748 671.917 807.778 711.663C690.724 956.919 994.902 504.878 932.278 423.467C921.927 410.011 898.129 424.396 881.556 428.078C827.156 440.167 506.72 759.328 563.388 849.997C640.43 973.264 805.674 463.258 747.833 499.551C720.837 516.49 367.246 845.141 478.082 916.858C585.221 986.184 822.583 588.207 690.194 508.773C576.84 440.761 400.015 766.543 388.165 836.164C386.596 845.381 384.095 860.358 392.776 863.83C462.17 891.588 629.034 500.425 508.054 430.384C410.655 373.995 324.321 641.192 351.276 713.969C363.329 746.512 520.664 456.26 422.748 409.634C365.92 382.573 270.76 644.981 325.914 700.135C338.962 713.182 386.931 438.48 362.804 446.523C286.944 471.81 321.73 601.157 305.164 679.385C296.084 722.267 280.951 850.008 300.553 810.802C317.637 776.634 315.275 673.357 367.415 725.496" fill="none" opacity="1" stroke="#FADF62" stroke-linecap="round" stroke-linejoin="round" stroke-width="167.571"/>
<path d="M1123.64 471.884C1201.24 433.086 1106.97 328.466 1054.47 319.717C913.554 296.23 803.811 423.679 648.694 400.412C537.094 383.672 370.665 227.796 265.97 322.022C232.358 352.273 251.53 410.674 266.571 464.742" fill="none" opacity="1" stroke="#FADF62" stroke-linecap="round" stroke-linejoin="round" stroke-width="167.571"/>
</g>
<g id="Livello-3" vectornator:layerName="Livello 3">
<g opacity="1">
<path d="M809 710.469C794.986 710.15 782.698 716.792 772.25 725.562C765.861 730.949 762.305 738.436 761.688 746.156C760.182 748.114 758.848 750.274 757.5 752.281C756.114 754.345 755.694 756.917 755.031 759.312C754.649 760.693 754.525 762.138 754.375 763.562C753.941 767.669 754.589 771.899 755.344 775.938C756.379 781.473 757.777 786.942 759.25 792.375C760.772 797.989 762.434 803.591 764.125 809.156C764.906 811.725 765.727 814.282 766.531 816.844C768.215 830.773 768.628 844.847 767.344 858.812C765.847 874.769 777.575 888.91 793.531 890.406C809.487 891.903 823.66 880.206 825.156 864.25C825.316 862.578 825.313 860.893 825.438 859.219C837.348 852.492 843.882 839.657 847.812 826.938C850.502 818.236 852.232 809.251 853.344 800.219C854.81 788.305 855.18 776.171 853.969 764.219C852.893 753.602 850.49 742.916 845.312 733.5C842.966 729.232 840.002 725.265 836.469 721.906C833.667 719.243 830.517 716.957 827.094 715.156C823.996 713.526 820.693 712.287 817.281 711.5C814.563 710.873 811.788 710.532 809 710.469Z" fill="#E9B749" fill-opacity="0.689189" stroke="none"/>
</g>
<g opacity="1">
<path d="M556.938 678.688C550.502 678.56 544.056 678.637 537.625 678.844C507.358 679.819 477.161 683.624 447.375 689C431.04 691.96 420.197 707.603 423.156 723.938C425.288 735.703 434.033 744.507 444.844 747.469C444.742 749.949 444.78 752.445 445.125 754.906C446.66 765.846 452.531 775.559 459.812 783.656C464.96 789.381 470.85 794.357 476.875 799.125C482.653 803.698 488.629 808.024 494.75 812.125C509.135 821.764 524.545 830.341 541.062 835.719C552.252 839.362 564.084 841.466 575.875 840.5C587.652 839.535 599.035 835.375 608.344 828.031C611.931 825.202 615.019 821.92 618.062 818.531C621.036 815.221 623.964 811.851 626.781 808.406C634.337 799.168 641.313 789.349 646.781 778.719C651.136 770.251 654.524 761.208 655.875 751.75C656.652 746.314 656.748 740.762 656.031 735.312C655.486 731.168 654.481 727.097 653 723.188C651.788 719.986 650.241 716.878 648.438 713.969C638.509 697.953 621.409 689.075 603.688 684.375C594.698 681.991 585.47 680.576 576.219 679.719C569.808 679.125 563.373 678.815 556.938 678.688Z" fill="#E9B749" fill-opacity="0.689189" stroke="none"/>
</g>
<g opacity="1">
<path d="M859.625 355.344C857.447 355.326 855.257 355.433 853.094 355.688C837.265 357.553 824.165 366.337 813.531 377.594C804.316 382.959 795.608 389.12 787.688 396.438C764.35 417.999 748.242 448.131 746.312 480.125C744.93 503.04 751.226 527.334 768.438 543.406C771.005 545.804 773.771 547.963 776.719 549.875C779.781 551.862 783.027 553.587 786.406 554.969C790.98 556.84 795.79 558.121 800.688 558.781C805.557 559.438 810.459 559.47 815.344 558.969C835.998 556.851 853.746 544.592 868.062 530.281C892.158 506.195 909.284 474.436 913.594 440.438C915.642 424.282 914.865 407.302 908.938 392C906.126 384.741 902.125 377.931 896.844 372.188C892.278 367.222 886.848 363.17 880.781 360.219C876.184 357.983 871.183 356.519 866.125 355.812C863.967 355.511 861.803 355.362 859.625 355.344Z" fill="#E9B749" fill-opacity="0.689189" stroke="none"/>
</g>
<g opacity="1">
<path d="M347.719 342.25C333.174 341.873 318.772 345.172 306.531 353.812C302.634 356.564 299.095 359.803 295.969 363.406C282.252 379.217 278.4 400.336 280.594 420.656C281.517 429.206 283.452 437.605 286.094 445.781C288.11 452.019 290.535 458.108 293.344 464.031C295.574 468.735 298.031 473.323 300.719 477.781C313.91 499.659 333.855 520.348 359.656 526C363.075 526.749 366.566 527.21 370.062 527.375C375.65 527.639 381.244 527.138 386.688 525.844C391.336 524.739 395.867 523.072 400.125 520.906C425.491 508.003 437.805 480.27 444.688 454.062C446.711 446.357 448.149 438.404 448.594 430.438C448.614 430.405 448.636 430.376 448.656 430.344C460.094 412.207 454.668 388.219 436.531 376.781C422.587 368.015 408.253 359.832 393.062 353.406C383.147 349.212 372.859 345.749 362.25 343.812C357.442 342.935 352.567 342.376 347.719 342.25Z" fill="#E9B749" fill-opacity="0.689189" stroke="none"/>
</g>
</g>
<g id="Livello-1" vectornator:layerName="Livello 1">
<g opacity="1">
<path d="M289.889 254.227C128.166 322.269 97.5964 698.966 301.723 845.897" fill="none" opacity="1" stroke="#7F4A1B" stroke-linecap="round" stroke-linejoin="round" stroke-width="25.1111"/>
<path d="M345.112 846.884C389.663 826.298 417.098 805.467 463.976 786.693C500.918 797.578 531.488 848.856 572.905 827.161C614.322 805.467 616.327 769.371 623.197 721.647" fill="none" opacity="1" stroke="#7F4A1B" stroke-linecap="round" stroke-linejoin="round" stroke-width="25.1111"/>
<path d="M650.983 691.185C953.262 520.642 953.262 520.642 1255.54 350.1" fill="none" opacity="1" stroke="#7F4A1B" stroke-linecap="round" stroke-linejoin="round" stroke-width="25.1111"/>
<path d="M1212.65 329.675C1113.99 319.783 1015.79 297.881 916.658 299.999C887.718 300.617 891.667 330.769 836.198 330.158C780.73 329.547 778.726 298.479 744.49 293.145C606.925 271.712 467.017 269.842 328.28 258.191" fill="none" opacity="1" stroke="#7F4A1B" stroke-linecap="round" stroke-linejoin="round" stroke-width="25.1111"/>
<path d="M1271.88 380.736C1272.56 410.011 1272.06 427.784 1273.92 468.56C1275.32 499.229 1233.82 518.007 1227.69 548.09C1224.39 564.278 1231.96 588.597 1242.48 601.34C1256.03 617.765 1263.36 617.405 1272.06 636.841C1269.1 671.355 1283.9 716.716 1256.28 726.577C1234.42 734.113 354.973 1205.83 333.278 1211.75" fill="none" opacity="1" stroke="#7F4A1B" stroke-linecap="round" stroke-linejoin="round" stroke-width="25.1111"/>
<path d="M322.431 872.523C323.261 878.333 321.59 892.861 321.41 897.436C320.553 919.294 319.543 941.146 318.734 963.005C318.304 974.62 317.879 986.204 317.396 997.797C314.35 1070.9 313.556 1111.95 313.556 1185.12" fill="none" opacity="1" stroke="#7F4A1B" stroke-linecap="round" stroke-linejoin="round" stroke-width="25.1111"/>
<path d="M148.875 682.202C146.55 764.907 141.478 860.753 141.816 943.49C141.914 967.555 146.621 991.397 150.094 1015.21C162.037 1097.09 212.805 1180.5 293.834 1211.75" fill="none" opacity="1" stroke="#7F4A1B" stroke-linecap="round" stroke-linejoin="round" stroke-width="25.1111"/>
<path d="M899.9 416.843C856.121 351.176 617.491 442.074 761.835 502.851C785.326 512.741 816.236 517.682 841.129 515.548C871.428 512.951 909.897 494.36 920.27 463.242" fill="none" opacity="1" stroke="#7F4A1B" stroke-linecap="round" stroke-linejoin="round" stroke-width="25.1111"/>
<path d="M379.89 371.722C183.616 463.915 391.32 563.121 444.922 432.617C456.948 403.338 456.887 374.24 426.257 365.183" fill="none" opacity="1" stroke="#7F4A1B" stroke-linecap="round" stroke-linejoin="round" stroke-width="25.1111"/>
<path d="M598.325 681.713C536.932 659.561 334.595 733.566 442.084 755.845" fill="none" opacity="1" stroke="#7F4A1B" stroke-linecap="round" stroke-linejoin="round" stroke-width="25.1111"/>
<path d="M535.489 1002.14C521.113 1030.89 526.263 908.463 558.41 908.463C584.194 908.463 578.341 983.204 578.341 983.204C578.341 983.204 592.168 868.993 629.165 879.563C641.025 882.952 638.134 941.805 638.134 949.321C638.134 986.906 653.765 861.867 688.957 848.67C703.691 843.145 702.909 903.308 702.909 911.453" fill="none" opacity="1" stroke="#7F4A1B" stroke-linecap="round" stroke-linejoin="round" stroke-width="25.1111"/>
<path d="M762.373 766.463C762.373 788.511 762.206 810.209 764.366 832.235C784.299 1035.55 931.131 633.752 763.369 717.632" fill="none" opacity="1" stroke="#7F4A1B" stroke-linecap="round" stroke-linejoin="round" stroke-width="25.1111"/>
<path d="M914.634 787.154C899.451 817.519 909.584 689.493 943.533 689.493C954.945 689.493 951.811 748.668 955.492 757.258C970.649 792.625 972.941 639.456 1008.31 654.613C1031.07 664.368 1007.22 750.986 1017.28 728.358C1048.66 657.753 1082.05 562.433 1082.05 702.448" fill="none" opacity="1" stroke="#7F4A1B" stroke-linecap="round" stroke-linejoin="round" stroke-width="25.1111"/>
</g>
</g>
</svg>
